<?xml version="1.0" standalone="no"?>
<!DOCTYPE svg PUBLIC "-//W3C//DTD SVG 20010904//EN"
 "http://www.w3.org/TR/2001/REC-SVG-20010904/DTD/svg10.dtd">
<svg version="1.0" xmlns="http://www.w3.org/2000/svg"
 width="1021.000000pt" height="606.000000pt" viewBox="0 0 1021.000000 606.000000"
 preserveAspectRatio="xMidYMid meet">

<g transform="translate(0.000000,606.000000) scale(0.100000,-0.100000)"
fill="#000000" stroke="none">
<path d="M0 3030 l0 -3030 5105 0 5105 0 0 3030 0 3030 -5105 0 -5105 0 0
-3030z m357 2998 c38 -16 63 -38 63 -55 0 -8 -4 -11 -10 -8 -5 3 -10 1 -10 -5
0 -6 7 -13 16 -17 8 -3 13 -12 10 -19 -3 -8 -1 -35 4 -62 11 -58 -6 -81 -59
-83 l-36 -1 30 -8 30 -7 -28 -11 c-52 -22 -83 -14 -79 19 1 4 -8 15 -18 24
-23 21 -27 14 -6 -8 9 -9 11 -19 5 -28 -6 -10 -9 -10 -9 -1 0 6 -11 12 -25 12
-14 0 -25 5 -25 10 0 6 -9 19 -21 31 -12 12 -19 29 -16 40 3 12 1 17 -5 13
-10 -7 -9 16 5 73 9 35 38 73 61 79 12 3 38 3 59 1 36 -4 51 6 25 16 -10 4
-10 6 -1 6 7 1 25 -4 40 -11z m393 -34 c0 -23 2 -25 15 -14 20 17 32 5 15 -15
-10 -12 -10 -18 0 -30 17 -20 5 -32 -15 -15 -10 8 -15 9 -15 1 0 -6 -4 -11
-10 -11 -5 0 -10 25 -10 55 0 30 5 55 10 55 6 0 10 -12 10 -26z m270 -29 c0
-54 0 -55 -30 -55 -23 0 -31 5 -36 25 -7 27 10 55 32 55 8 0 14 7 14 15 0 8 5
15 10 15 6 0 10 -25 10 -55z m-440 13 l11 -33 14 33 c16 36 45 44 45 12 0 -17
3 -19 19 -8 26 16 51 -5 51 -43 0 -28 -1 -29 -50 -28 -44 1 -50 4 -51 23 0 21
0 20 -9 -1 -12 -31 -26 -29 -38 5 l-10 27 -1 -27 c-2 -50 -21 -29 -21 22 0 59
21 69 40 18z m280 0 l12 -33 9 33 c8 25 15 32 34 32 23 0 25 -3 25 -50 0 -27
-4 -50 -10 -50 -5 0 -10 21 -11 48 l0 47 -18 -45 c-10 -25 -24 -45 -31 -45 -8
0 -20 20 -29 45 l-16 45 -3 -47 c-4 -64 -22 -62 -22 2 0 46 2 50 24 50 18 0
27 -8 36 -32z m228 -7 c3 -9 -2 -11 -19 -7 l-24 6 23 -11 c12 -7 22 -21 22
-31 0 -15 -6 -19 -27 -16 -23 2 -28 8 -30 33 -2 30 12 47 36 42 8 -1 16 -8 19
-16z m5147 -25 c12 -9 18 -25 17 -49 -1 -20 5 -40 13 -47 8 -7 15 -17 15 -23
0 -6 -10 -1 -23 11 -15 14 -30 19 -44 16 -23 -6 -63 26 -63 51 0 18 35 55 53
55 7 0 22 -6 32 -14z m1610 4 c3 -5 1 -10 -4 -10 -6 0 -10 -8 -9 -17 1 -10 0
-33 0 -50 -3 -47 -28 -43 -35 5 -7 52 28 104 48 72z m2172 -6 c7 -19 -93 -124
-119 -124 -32 0 -19 33 34 87 54 55 74 64 85 37z m-3457 -9 c0 -8 -4 -15 -9
-15 -13 0 -22 16 -14 24 11 11 23 6 23 -9z m546 -24 l-26 -28 20 -18 c11 -10
18 -20 15 -23 -3 -3 -14 3 -25 13 -19 17 -21 17 -40 0 -11 -10 -23 -15 -27
-12 -3 4 2 16 12 27 17 19 17 21 0 40 -10 11 -16 22 -13 25 3 3 11 -1 18 -10
17 -20 33 -19 55 5 10 11 22 17 27 14 5 -4 -2 -18 -16 -33z m371 27 c9 -15 13
-56 6 -80 -3 -13 -14 -18 -39 -18 l-34 0 0 55 c0 54 0 55 29 55 17 0 33 -6 38
-12z m223 -43 c0 -42 -3 -55 -15 -55 -11 0 -15 12 -15 48 0 27 3 52 7 55 16
17 23 3 23 -48z m-86 33 c10 -10 11 -17 2 -30 -8 -13 -8 -23 2 -38 11 -17 10
-20 -7 -20 -14 0 -20 9 -23 38 -5 35 -1 62 8 62 3 0 11 -6 18 -12z m-44 -28
c16 -31 -4 -62 -38 -58 -28 3 -40 32 -28 64 8 21 54 17 66 -6z m214 4 c11 -29
7 -64 -9 -64 -10 0 -15 10 -15 30 0 17 -4 30 -10 30 -5 0 -10 -13 -10 -30 0
-20 -5 -30 -15 -30 -11 0 -15 11 -15 40 0 39 1 40 34 40 22 0 36 -6 40 -16z
m136 -4 c16 -31 -4 -62 -38 -58 -28 3 -40 32 -28 64 8 21 54 17 66 -6z m-1360
-10 c0 -5 -4 -10 -10 -10 -5 0 -10 5 -10 10 0 6 5 10 10 10 6 0 10 -4 10 -10z
m-6103 -22 c-3 -8 -6 -5 -6 6 -1 11 2 17 5 13 3 -3 4 -12 1 -19z m6103 -23 c0
-8 -4 -15 -9 -15 -13 0 -22 16 -14 24 11 11 23 6 23 -9z m-5995 -15 c16 0 26
-25 19 -45 -4 -8 -15 -15 -25 -15 -16 0 -19 7 -18 43 0 23 3 36 6 30 2 -7 11
-13 18 -13z m109 -30 c1 -16 -2 -30 -5 -30 -8 0 -17 58 -11 65 9 9 15 -4 16
-35z m-29 10 c3 -11 3 -24 0 -30 -8 -12 -32 -13 -39 -1 -4 5 3 7 15 4 17 -5
20 -2 17 13 -2 10 -11 18 -21 18 -9 -1 -14 2 -11 7 9 16 32 10 39 -11z m1765
-145 c0 -9 9 -15 25 -15 l25 0 0 -588 c0 -444 3 -591 12 -600 17 -17 3329 -17
3346 0 9 9 12 156 12 600 0 581 0 588 20 588 20 0 20 -7 20 -609 0 -542 -2
-611 -16 -625 -14 -15 -179 -16 -1737 -14 l-1722 3 -3 638 c-1 423 1 637 8
637 5 0 10 -7 10 -15z m1090 0 c-7 -9 -9 -19 -5 -23 4 -4 9 -2 12 3 18 48 48
41 40 -10 -8 -46 3 -51 27 -12 21 31 46 47 46 27 0 -5 -4 -10 -8 -10 -5 0 -6
-14 -4 -31 3 -22 1 -30 -7 -25 -6 4 -11 4 -12 -1 -4 -58 -12 -99 -20 -101 -5
-2 -7 -19 -3 -38 4 -22 2 -34 -5 -34 -7 0 -11 -22 -11 -56 l0 -57 -50 7 c-45
6 -50 5 -50 -13 0 -10 7 -21 15 -25 16 -6 21 -36 6 -36 -11 0 -51 -84 -51
-109 0 -26 -57 -164 -72 -176 -16 -12 -40 -73 -40 -97 1 -12 -7 -18 -21 -19
-15 0 -17 -2 -7 -6 17 -7 30 -23 30 -38 -1 -5 -7 -2 -14 8 -10 13 -28 18 -69
18 -61 1 -77 -5 -77 -27 0 -8 5 -12 10 -9 6 3 10 2 10 -4 0 -5 8 -12 18 -14 9
-3 1 -5 -18 -5 -19 0 -86 -3 -148 -6 -111 -5 -113 -5 -91 13 17 14 33 17 64
13 35 -5 39 -3 27 10 -11 14 -9 20 10 40 13 12 63 69 112 126 48 56 92 102 97
102 5 0 9 6 9 14 0 8 16 30 35 49 19 19 32 37 29 40 -3 3 -1 14 5 24 6 10 11
12 11 6 0 -7 4 -13 10 -13 5 0 7 7 4 15 -4 8 -1 15 7 15 7 0 9 3 6 6 -3 4 -2
15 4 25 7 15 16 18 36 13 l26 -7 -6 74 c-5 58 -2 88 12 135 11 33 22 84 25
113 3 29 8 56 10 60 6 8 -11 37 -17 31 -3 -3 -7 -23 -10 -45 -9 -62 -16 -75
-40 -71 -12 3 -30 5 -39 5 -25 1 -22 21 9 86 l27 55 59 0 c52 0 58 -2 47 -15z
m275 -28 c15 -37 15 -37 -5 -25 -13 8 -20 24 -20 42 0 35 4 32 25 -17z m260
31 c2 -7 6 -107 9 -223 3 -115 5 -211 6 -212 0 -2 6 -3 14 -3 9 0 12 7 9 20
-4 14 0 20 11 20 14 0 21 -11 17 -32 0 -5 2 -8 6 -8 12 0 35 16 34 24 -3 19 0
26 13 26 8 0 17 -7 20 -16 3 -8 10 -12 16 -9 6 3 13 -1 16 -9 15 -40 50 3 46
57 0 9 4 17 10 17 6 0 8 9 5 20 -5 20 7 28 17 11 3 -5 15 -11 26 -14 15 -4 19
-1 17 14 -2 11 -9 25 -15 31 -13 13 -16 29 -4 27 4 -1 16 0 27 1 16 1 13 5
-13 16 -18 8 -37 12 -43 9 -16 -10 -10 12 10 36 16 20 21 21 48 10 35 -14 42
-55 12 -74 -16 -10 -16 -12 -1 -24 14 -11 14 -12 1 -8 -12 5 -15 -4 -14 -49 1
-31 -2 -53 -7 -50 -4 3 -8 -2 -8 -10 0 -9 -5 -16 -11 -16 -5 0 -7 -5 -4 -11 4
-6 13 -8 21 -5 11 4 13 -27 11 -184 l-2 -190 63 0 c71 0 84 -12 62 -58 -8 -15
-14 -30 -14 -34 -2 -15 -18 -21 -25 -9 -11 18 -81 22 -81 5 0 -13 -41 -12 -84
2 -21 7 -20 8 4 15 20 7 18 8 -12 6 -37 -3 -38 -2 -38 29 0 38 -9 64 -21 64
-5 0 -9 -6 -9 -14 0 -8 -7 -16 -15 -20 -10 -4 -17 3 -20 22 -11 50 -33 72 -44
41 -2 -6 1 -9 7 -5 6 3 14 1 18 -5 4 -7 3 -9 -3 -6 -6 4 -19 0 -29 -8 -27 -20
-30 -19 -29 13 0 20 7 29 28 37 28 10 28 11 9 30 -15 16 -17 27 -11 55 4 19
13 36 18 38 6 2 11 13 11 23 0 13 -4 18 -12 13 -8 -5 -9 -2 -5 10 4 10 7 26 7
37 0 10 6 19 13 19 7 0 13 8 14 19 1 15 -8 19 -59 25 -73 7 -179 54 -175 76 1
8 13 15 25 14 12 0 22 3 22 7 0 4 3 14 6 22 4 12 0 14 -15 10 -17 -4 -21 -1
-21 17 0 18 4 21 25 18 21 -4 24 -2 23 18 -2 15 -9 24 -20 24 -11 0 -15 5 -12
15 4 8 12 15 20 15 8 0 14 9 14 20 0 11 -7 20 -15 20 -27 0 -15 27 20 46 23
13 33 42 34 107 1 43 16 64 26 35z m300 3 c3 -6 -3 -15 -14 -20 -14 -8 -20 -7
-24 3 -9 24 24 38 38 17z m165 -3 c-19 -5 -41 -15 -48 -20 -7 -6 -15 -8 -18
-5 -9 9 49 36 76 36 21 -1 19 -3 -10 -11z m4062 -2 c31 -8 61 -17 67 -20 7 -5
8 -1 4 10 -5 14 -3 15 15 5 12 -6 28 -21 36 -33 9 -12 16 -18 16 -12 0 6 -9
22 -19 36 l-20 25 132 -1 c75 -1 135 -5 139 -11 5 -7 8 -7 8 0 0 12 99 14 118
2 6 -5 12 -5 12 0 0 9 173 9 188 -1 6 -3 13 0 15 6 3 7 6 0 6 -17 0 -16 -3
-25 -7 -20 -4 6 -14 9 -22 9 -8 -1 -27 -2 -42 -3 -38 -1 -36 -28 2 -33 17 -3
30 0 30 6 0 6 4 6 11 -1 18 -18 2 -31 -36 -29 -19 1 -35 -3 -36 -9 0 -5 -3 -4
-6 3 -6 15 -23 6 -23 -12 0 -8 13 -13 35 -13 51 0 65 -22 16 -26 -11 -1 -21
-8 -21 -16 0 -8 3 -12 6 -8 3 3 17 2 30 -3 16 -6 24 -6 24 1 0 6 4 8 9 4 6 -3
9 -30 7 -60 -1 -30 1 -55 6 -55 4 0 9 39 10 88 2 82 2 83 5 20 4 -70 7 -75 33
-58 13 8 12 11 -5 25 -20 15 -20 15 0 30 19 16 20 14 23 -45 3 -52 6 -60 22
-60 11 0 20 5 20 11 0 6 -7 9 -15 5 -10 -4 -15 1 -15 15 0 17 5 19 39 16 45
-4 75 7 54 21 -7 4 -31 7 -53 6 -34 -1 -40 2 -40 19 0 11 3 17 7 14 3 -4 12
-2 20 4 7 6 13 7 13 2 0 -5 10 -9 23 -7 12 1 25 3 30 3 4 1 7 8 7 16 0 9 -9
15 -25 15 -35 0 -31 17 5 22 l30 5 0 -62 c0 -54 2 -61 20 -61 13 0 20 7 20 18
0 10 -6 17 -12 15 -7 -1 -13 4 -13 11 0 6 4 12 9 11 5 0 13 5 17 13 5 7 9 8 9
2 0 -6 10 -10 23 -8 12 1 28 3 35 3 8 1 12 6 10 13 -2 6 -25 12 -51 13 -85 3
-78 27 8 29 l55 1 0 -48 0 -48 -40 4 c-32 3 -40 1 -40 -12 0 -14 10 -16 65
-14 36 2 65 -1 65 -6 0 -5 9 -7 20 -4 13 3 20 0 20 -9 0 -10 -17 -14 -70 -13
-46 0 -71 -4 -74 -12 -3 -7 -1 -15 4 -18 6 -4 10 -2 10 2 0 5 9 9 20 9 11 0
20 -3 20 -7 0 -3 11 -4 25 -1 21 3 25 0 25 -18 0 -18 -4 -21 -25 -18 -19 4
-25 1 -25 -13 0 -17 15 -20 38 -6 8 6 12 0 12 -19 0 -23 -3 -26 -25 -22 -18 4
-25 1 -25 -10 0 -10 7 -13 25 -10 23 5 25 3 25 -36 0 -26 3 -36 9 -28 11 17
21 17 32 0 5 -7 9 42 9 116 0 117 1 127 16 115 10 -8 12 -15 5 -17 -15 -5 -14
-39 2 -45 9 -4 9 -8 -2 -15 -13 -9 -13 -13 -1 -27 11 -14 12 -20 1 -37 -11
-17 -10 -22 1 -29 10 -7 11 -12 1 -28 -10 -15 -9 -22 2 -31 13 -11 15 19 15
234 0 157 4 246 10 246 6 0 10 -130 10 -369 l0 -369 -27 -7 c-16 -4 -199 -9
-408 -11 -209 -2 -397 -3 -418 -3 -21 -1 -36 -4 -34 -8 3 -5 197 -8 431 -7
382 0 426 -1 424 -15 -3 -14 -63 -16 -548 -19 -299 -1 -546 -5 -549 -7 -2 -3
-2 -7 1 -10 2 -3 186 -6 409 -7 222 -1 395 -3 384 -6 -11 -2 -24 -8 -29 -13
-6 -5 -18 -9 -28 -9 -10 0 -18 -5 -18 -11 0 -6 -12 -9 -26 -7 -25 3 -27 0 -28
-35 -1 -20 3 -38 8 -40 5 -2 1 -11 -9 -21 -23 -22 -8 -34 38 -31 47 4 47 4 47
20 0 23 18 18 23 -7 4 -21 4 -20 6 3 1 26 22 44 35 31 7 -7 25 -11 74 -19 17
-3 32 -11 32 -18 0 -7 8 -12 18 -11 19 3 52 -14 52 -27 0 -4 -4 -5 -10 -2 -5
3 -10 -1 -10 -10 0 -12 8 -14 40 -9 33 5 40 4 40 -10 0 -9 -7 -16 -15 -16 -17
0 -18 -2 -9 -24 3 -9 13 -16 21 -16 12 0 14 -8 10 -33 -3 -19 -1 -40 4 -48 7
-12 9 -12 9 1 1 11 4 10 15 -4 16 -22 3 -39 -22 -29 -7 3 -13 0 -13 -6 0 -6
14 -11 30 -11 36 0 41 25 11 56 -12 14 -17 30 -13 52 3 25 1 32 -12 32 -19 0
-21 16 -4 26 6 4 14 2 16 -4 2 -7 11 -12 20 -12 24 -1 50 -23 45 -37 -3 -7 0
-13 7 -13 7 0 8 -6 0 -19 -7 -13 -7 -22 0 -26 13 -8 13 -35 1 -35 -5 0 -12 8
-14 18 -3 9 -5 -18 -6 -60 -1 -62 -4 -78 -16 -78 -15 0 -21 -64 -14 -150 1
-19 3 -48 3 -65 1 -16 4 -32 8 -35 4 -3 14 -53 23 -110 9 -57 22 -136 31 -177
8 -42 12 -93 9 -120 -4 -31 4 -111 23 -226 21 -127 27 -189 21 -220 -4 -23 -5
-72 -2 -108 5 -52 2 -71 -12 -92 -9 -15 -22 -27 -27 -27 -6 0 -4 7 3 16 12 15
11 16 -6 11 -34 -10 -174 -27 -225 -27 -27 0 -52 -4 -55 -10 -3 -5 -39 -11
-78 -12 -55 -1 -60 -2 -22 -5 28 -1 70 -6 95 -10 l45 -7 -40 -7 c-39 -6 -38
-6 15 -8 79 -2 160 -13 160 -21 0 -4 -204 -6 -452 -3 -490 4 -1090 -5 -1083
-17 3 -4 127 -11 276 -15 161 -4 266 -11 258 -16 -8 -5 291 -9 704 -9 l717 0
0 -22 0 -23 -687 0 c-447 0 -691 4 -695 10 -5 6 -8 6 -8 -2 0 -14 -277 -16
-286 -2 -7 12 -184 12 -184 0 0 -5 -11 -8 -25 -8 -13 0 -22 3 -19 8 10 17 -9
9 -22 -8 -12 -17 -13 -17 -19 2 -4 11 -25 58 -48 105 -68 140 -209 260 -376
320 -54 20 -73 35 -142 109 -80 87 -94 116 -63 142 13 10 27 9 86 -10 39 -13
98 -26 130 -28 l58 -6 50 50 50 50 0 71 c0 115 15 167 56 192 37 24 41 37 19
66 -14 19 -14 19 -15 -1 0 -11 -18 -35 -41 -55 l-41 -35 -8 -108 c-9 -124 -20
-144 -97 -173 -42 -16 -47 -16 -134 5 -50 12 -112 32 -137 43 -26 12 -51 22
-57 23 -18 5 -176 76 -300 135 -66 31 -140 65 -165 76 -25 10 -72 33 -105 51
l-60 31 -2 259 c-2 181 0 253 8 240 5 -9 8 -21 4 -26 -3 -5 -1 -12 5 -16 5 -3
10 -17 10 -30 0 -13 5 -27 10 -30 6 -3 10 -17 10 -30 0 -13 5 -27 10 -30 6 -3
10 -16 10 -27 0 -12 15 -53 34 -92 18 -39 39 -89 46 -111 16 -50 21 -55 67
-71 l38 -13 -30 25 c-16 13 -33 24 -37 24 -5 0 -8 5 -8 10 0 6 -9 29 -19 51
-23 47 -81 229 -81 253 0 9 -4 24 -10 34 -19 34 -29 114 -17 134 14 22 16 22
80 3 29 -9 69 -31 91 -50 69 -63 58 -37 -15 37 -52 51 -80 72 -98 73 -23 0
-26 5 -29 39 -3 36 -20 66 -38 66 -4 0 -16 7 -26 17 -17 15 -18 38 -18 314 l0
298 25 25 c13 13 38 33 55 42 33 20 39 34 14 34 -30 0 -2 20 29 21 29 1 26 3
-23 19 -30 11 -50 19 -45 20 6 1 20 3 32 4 13 2 26 6 30 10 4 3 25 -11 46 -31
l40 -38 -28 37 c-24 33 -25 39 -11 44 10 4 25 -1 37 -12 19 -17 20 -17 13 0
-6 15 -3 17 13 12 26 -8 75 9 52 18 -9 4 -33 8 -54 9 -21 2 -40 8 -42 14 -3 8
9 11 37 8 29 -3 43 0 46 10 4 10 19 13 55 9 54 -5 67 10 18 21 -48 11 -20 24
31 15 133 -23 135 -23 123 -10 -6 7 -31 14 -54 16 -48 5 -153 34 -146 41 3 2
49 -1 103 -7 55 -5 133 -9 175 -8 55 2 83 -2 100 -13 41 -27 62 -31 55 -13 -5
13 -2 15 11 9 33 -14 74 -13 69 2 -7 16 8 17 37 1 12 -7 28 -13 35 -14 8 -1
21 -6 30 -10 46 -19 112 -29 112 -16 0 7 12 9 33 6 50 -9 97 -33 97 -51 0 -11
5 -13 18 -8 9 4 31 8 48 9 18 1 48 15 69 31 65 52 81 60 48 24 -36 -38 -42
-55 -17 -45 8 3 22 -1 30 -9 12 -11 20 -12 40 -3 31 14 44 3 48 -43 2 -19 6
-41 9 -49 9 -23 38 -160 44 -212 l6 -48 -46 -19 c-57 -25 -120 -88 -135 -137
l-11 -37 57 60 c31 32 75 72 96 88 34 25 39 27 32 10 -4 -11 -14 -45 -22 -75
-8 -30 -19 -59 -25 -64 -5 -6 -9 -18 -9 -28 0 -14 -6 -16 -29 -12 -27 6 -99
-21 -88 -33 3 -3 16 2 29 11 25 18 38 20 38 7 0 -5 -25 -19 -55 -32 -50 -22
-57 -29 -74 -74 -11 -27 -24 -63 -30 -78 -9 -22 -8 -28 1 -25 7 3 16 18 20 34
9 31 47 86 48 68 0 -6 -7 -31 -15 -55 -27 -75 21 -78 54 -3 20 45 17 74 -7 74
-13 1 -9 7 13 25 17 14 36 25 44 25 19 0 7 -58 -30 -138 -28 -63 -41 -119 -18
-79 6 9 15 15 20 11 13 -8 -39 -64 -60 -64 -12 0 -12 -3 -3 -12 7 -7 20 -13
30 -13 19 0 21 -23 8 -87 -8 -45 -22 -49 -37 -10 -45 111 -51 132 -45 149 8
20 -13 35 -29 20 -8 -8 -9 -22 -3 -47 17 -64 15 -73 -17 -84 -16 -5 -43 -15
-60 -22 -37 -15 -66 -22 -125 -29 -25 -2 -58 -9 -75 -14 -28 -9 -27 -9 18 -10
27 -1 57 -6 68 -12 31 -16 57 -20 159 -26 104 -5 125 -17 137 -75 3 -16 10
-31 14 -34 22 -13 5 -49 -43 -95 -29 -27 -58 -49 -64 -49 -11 0 -23 -61 -24
-115 0 -11 -12 -30 -27 -42 -38 -31 -24 -38 18 -10 29 20 35 30 40 74 6 47 12
58 67 110 76 73 82 95 48 173 l-26 60 21 88 c12 48 23 123 24 167 3 79 36 206
63 238 16 19 102 246 102 270 0 10 -16 81 -35 157 -19 76 -35 141 -35 144 0 9
58 16 155 17 111 1 221 -25 263 -64 16 -15 22 -17 22 -6 -1 27 -26 60 -77 98
-72 54 -132 81 -208 94 -36 6 -65 14 -65 19 0 12 60 96 73 101 22 9 71 7 129
-7z m-4698 -21 c-4 -8 -10 -13 -15 -10 -4 3 -6 12 -3 20 4 8 10 13 15 10 4 -3
6 -12 3 -20z m356 4 c0 -5 -4 -9 -10 -9 -5 0 -10 7 -10 16 0 8 5 12 10 9 6 -3
10 -10 10 -16z m5110 6 c0 -8 -9 -15 -20 -15 -20 0 -26 11 -13 23 12 13 33 7
33 -8z m120 -7 c0 -11 -5 -16 -10 -13 -6 4 -31 7 -55 7 -31 0 -45 4 -45 13 0
9 16 13 55 13 47 -1 55 -4 55 -20z m180 6 c0 -15 -35 -20 -112 -16 -40 3 -58
8 -58 17 0 10 20 13 85 13 61 -1 85 -5 85 -14z m70 -5 c0 -5 -4 -9 -10 -9 -5
0 -10 7 -10 16 0 8 5 12 10 9 6 -3 10 -10 10 -16z m400 4 c0 -8 -16 -13 -42
-13 -191 -3 -287 7 -208 21 62 12 250 5 250 -8z m-2263 -19 c19 -14 32 -28 30
-31 -5 -4 -87 46 -87 53 0 11 27 1 57 -22z m1833 16 c0 -5 -7 -10 -15 -10 -8
0 -15 5 -15 10 0 6 7 10 15 10 8 0 15 -4 15 -10z m140 0 c0 -5 -6 -10 -14 -10
-8 0 -18 5 -21 10 -3 6 3 10 14 10 12 0 21 -4 21 -10z m-6073 -52 c2 -80 5
-86 31 -70 7 5 10 17 6 28 -5 16 -4 16 5 4 13 -18 15 -53 2 -46 -5 4 -20 2
-34 -3 -24 -9 -24 -8 -26 42 -1 45 5 87 12 87 2 0 3 -19 4 -42z m421 30 c-6
-18 -28 -21 -28 -4 0 9 7 16 16 16 9 0 14 -5 12 -12z m62 -19 c0 -18 -2 -19
-15 -9 -15 12 -12 30 6 30 5 0 9 -10 9 -21z m5057 -21 c-3 -7 -5 -2 -5 12 0
14 2 19 5 13 2 -7 2 -19 0 -25z m173 14 c0 -13 -8 -18 -30 -17 -38 0 -40 22
-2 28 15 2 28 5 30 6 1 0 2 -7 2 -17z m155 6 c18 3 25 0 25 -11 0 -13 -14 -15
-82 -13 -54 1 -83 6 -86 14 -3 9 11 12 47 11 28 -1 54 1 58 5 4 4 9 3 11 -2 1
-5 14 -7 27 -4z m-5750 -16 c-3 -3 -15 -7 -26 -9 -16 -2 -18 -1 -7 11 7 7 19
11 26 9 7 -3 10 -8 7 -11z m5475 4 c0 -9 -7 -12 -20 -9 -11 3 -20 9 -20 14 0
5 9 9 20 9 11 0 20 -6 20 -14z m50 0 c0 -9 -7 -12 -20 -9 -11 3 -20 9 -20 14
0 5 9 9 20 9 11 0 20 -6 20 -14z m290 -3 c0 -8 -5 -13 -12 -11 -18 6 -21 25
-3 25 8 0 15 -7 15 -14z m32 2 c0 -5 -5 -11 -11 -13 -6 -2 -11 4 -11 13 0 9 5
15 11 13 6 -2 11 -8 11 -13z m398 -7 c0 -15 -4 -18 -12 -11 -15 10 -75 10
-101 -2 -10 -4 -39 -4 -65 0 -26 4 -67 8 -92 10 -61 3 -62 4 -56 14 4 5 78 9
166 9 154 0 160 -1 160 -20z m-6180 -14 c0 -8 -7 -14 -15 -14 -17 0 -18 2 -9
24 7 18 24 12 24 -10z m70 -10 c0 -8 -6 -14 -13 -14 -19 0 -27 10 -20 25 6 17
33 8 33 -11z m3526 11 c18 -13 18 -14 -4 -8 -12 3 -25 9 -28 14 -8 14 10 11
32 -6z m-3429 -27 c-3 -8 -6 -5 -6 6 -1 11 2 17 5 13 3 -3 4 -12 1 -19z m73 7
c0 -8 -7 -15 -15 -15 -8 0 -15 7 -15 15 0 8 7 15 15 15 8 0 15 -7 15 -15z m96
-12 c-3 -3 -13 -2 -23 2 -17 7 -17 8 2 15 19 7 34 -5 21 -17z m3868 13 c-3 -8
-13 -17 -22 -21 -13 -5 -13 -2 3 15 21 24 26 25 19 6z m-534 -6 c8 -5 11 -10
5 -10 -5 0 -17 5 -25 10 -8 5 -10 10 -5 10 6 0 17 -5 25 -10z m250 -11 c17
-13 18 -17 5 -10 -33 17 -51 31 -40 31 6 0 21 -10 35 -21z m1412 -11 c-9 -9
-12 -7 -12 12 0 19 3 21 12 12 9 -9 9 -15 0 -24z m78 13 c0 -14 -5 -18 -20
-14 -25 7 -26 20 -2 26 9 3 18 5 20 6 1 0 2 -8 2 -18z m300 -2 c0 -14 -5 -19
-17 -17 -23 4 -28 25 -6 31 10 3 19 5 21 6 1 0 2 -8 2 -20z m62 -11 c-9 -9
-12 -7 -12 12 0 19 3 21 12 12 9 -9 9 -15 0 -24z m408 10 c0 -20 -28 -22 -42
-3 -5 6 -8 5 -8 -4 0 -11 -3 -11 -15 -1 -10 9 -15 9 -15 1 0 -6 -5 -10 -11 -8
-6 1 -14 -4 -16 -10 -5 -13 5 -16 70 -16 30 1 37 -3 37 -19 0 -20 -28 -22 -42
-3 -5 6 -8 6 -8 -1 0 -6 -10 -12 -22 -12 -13 -1 -39 -6 -58 -11 l-35 -9 30 -1
30 -2 -30 -16 c-16 -9 -47 -15 -67 -14 -37 2 -38 1 -38 -31 0 -32 -1 -33 -40
-33 -32 0 -40 4 -40 18 0 15 6 17 35 11 31 -6 35 -4 35 16 0 19 -4 21 -35 17
-28 -4 -35 -1 -35 12 0 13 10 16 58 15 61 -1 109 10 82 19 -38 13 -60 14 -60
4 0 -8 -3 -7 -9 1 -5 9 -20 12 -40 9 -25 -4 -31 -2 -31 12 0 10 7 18 15 18 8
0 15 -4 15 -8 0 -5 10 -5 23 0 27 10 30 11 62 11 16 0 25 6 25 16 0 9 -6 14
-12 11 -7 -2 -21 0 -30 5 -14 7 -18 5 -19 -9 0 -11 -3 -13 -6 -5 -2 6 -11 12
-19 12 -20 0 -17 18 3 22 9 2 72 4 140 4 114 1 123 0 123 -18z m-720 2 c0 -5
-9 -10 -20 -10 -11 0 -20 5 -20 10 0 6 9 10 20 10 11 0 20 -4 20 -10z m290 0
c0 -5 -7 -10 -15 -10 -8 0 -15 5 -15 10 0 6 7 10 15 10 8 0 15 -4 15 -10z
m140 -5 c0 -13 -4 -14 -20 -5 -11 6 -20 13 -20 15 0 3 9 5 20 5 11 0 20 -7 20
-15z m-5970 -5 c0 -5 -7 -10 -15 -10 -8 0 -15 5 -15 10 0 6 7 10 15 10 8 0 15
-4 15 -10z m70 -25 c0 -8 -7 -15 -15 -15 -8 0 -15 7 -15 15 0 8 7 15 15 15 8
0 15 -7 15 -15z m-533 -52 c-3 -10 -5 -2 -5 17 0 19 2 27 5 18 2 -10 2 -26 0
-35z m783 32 c0 -8 -7 -15 -15 -15 -8 0 -15 7 -15 15 0 8 7 15 15 15 8 0 15
-7 15 -15z m5470 -6 c0 -12 -7 -19 -20 -19 -13 0 -20 7 -20 18 0 11 8 18 20
19 14 1 20 -4 20 -18z m62 -11 c-9 -9 -12 -7 -12 12 0 19 3 21 12 12 9 -9 9
-15 0 -24z m-5854 5 c6 -19 -25 -16 -32 3 -4 11 -1 14 11 12 9 -2 18 -9 21
-15z m249 -5 c-3 -8 -6 -5 -6 6 -1 11 2 17 5 13 3 -3 4 -12 1 -19z m5583 7 c0
-9 -6 -12 -15 -9 -8 4 -15 10 -15 15 0 5 7 9 15 9 8 0 15 -7 15 -15z m-5770
-45 c0 -11 -7 -20 -15 -20 -15 0 -21 21 -8 33 12 13 23 7 23 -13z m-309 -42
c-3 -24 -6 -35 -9 -25 -2 10 -9 14 -15 11 -8 -5 -8 -2 1 7 6 7 12 24 12 37 0
13 4 21 8 18 4 -2 6 -24 3 -48z m6509 37 c0 -8 -4 -15 -10 -15 -5 0 -10 7 -10
15 0 8 5 15 10 15 6 0 10 -7 10 -15z m-6371 -55 c0 -14 -7 -43 -15 -65 -7 -22
-12 -30 -10 -17 2 12 1 22 -4 22 -11 0 1 53 14 63 8 6 7 10 -1 14 -7 2 -13 14
-13 26 0 20 0 20 15 1 8 -10 14 -30 14 -44z m111 50 c0 -5 -4 -10 -10 -10 -5
0 -10 5 -10 10 0 6 5 10 10 10 6 0 10 -4 10 -10z m330 -10 c0 -13 -7 -20 -20
-20 -13 0 -20 7 -20 20 0 13 7 20 20 20 13 0 20 -7 20 -20z m555 -18 l-28 -27
24 31 c13 17 26 30 28 27 3 -2 -8 -16 -24 -31z m-625 13 c0 -8 -7 -15 -15 -15
-8 0 -15 7 -15 15 0 8 7 15 15 15 8 0 15 -7 15 -15z m-722 -54 c2 -43 -10 -72
-24 -58 -7 7 8 117 15 113 4 -3 8 -27 9 -55z m935 7 c-2 -5 -13 -3 -24 2 -21
12 -21 12 -13 34 5 13 9 12 24 -7 10 -12 16 -25 13 -29z m-963 12 c0 -5 -5
-10 -11 -10 -5 0 -7 5 -4 10 3 6 8 10 11 10 2 0 4 -4 4 -10z m6320 -5 c0 -8
-7 -15 -15 -15 -26 0 -18 20 13 29 1 1 2 -6 2 -14z m-5852 -20 c-4 -19 -1 -25
13 -25 11 0 16 -5 13 -13 -3 -8 0 -25 5 -39 10 -27 5 -29 -31 -13 -13 5 -17
18 -16 44 0 21 -2 43 -5 49 -6 8 3 17 22 21 2 1 1 -10 -1 -24z m76 10 c-4 -8
-10 -15 -14 -15 -4 0 -10 7 -14 15 -4 10 1 15 14 15 13 0 18 -5 14 -15z m206
-25 c0 -11 -7 -20 -15 -20 -8 0 -15 9 -15 20 0 11 7 20 15 20 8 0 15 -9 15
-20z m70 5 c0 -8 -9 -15 -20 -15 -11 0 -20 7 -20 15 0 8 9 15 20 15 11 0 20
-7 20 -15z m5660 -20 c5 3 11 1 15 -5 3 -5 -6 -15 -20 -20 -39 -15 -45 -13
-45 15 0 23 2 24 20 15 11 -6 25 -8 30 -5z m-160 -15 c0 -5 -7 -10 -15 -10 -8
0 -15 5 -15 10 0 6 7 10 15 10 8 0 15 -4 15 -10z m-6100 -61 c0 -11 5 -17 10
-14 6 3 10 15 10 26 0 26 18 24 25 -3 2 -13 6 -88 7 -168 l3 -145 -21 20 c-11
11 -18 24 -16 29 3 5 0 6 -7 2 -6 -4 -9 -12 -5 -17 3 -5 1 -16 -5 -23 -7 -8
-7 -23 -1 -47 6 -18 10 -42 10 -52 0 -15 -2 -16 -14 -5 -8 7 -14 15 -14 18 0
3 0 14 -2 25 -1 19 -2 19 -9 1 -4 -11 -6 67 -5 173 2 105 6 196 9 201 9 15 25
2 25 -21z m6100 7 c0 -8 -7 -16 -15 -20 -10 -4 -15 1 -15 14 0 11 7 20 15 20
8 0 15 -6 15 -14z m169 -2 c7 -6 -2 -12 -32 -19 -23 -6 -27 -4 -27 15 0 19 4
21 27 15 16 -4 30 -9 32 -11z m21 -70 c0 -26 5 -33 25 -38 30 -8 24 -26 -7
-26 -20 0 -20 -1 -4 -19 27 -30 11 -41 -55 -41 -46 0 -59 3 -59 15 0 9 9 15
25 15 16 0 25 6 25 15 0 9 -9 15 -25 15 -34 0 -31 15 5 30 34 14 40 30 10 30
-13 0 -20 7 -20 20 0 18 6 20 40 18 38 -2 40 -4 40 -34z m-93 4 c-3 -8 -6 -5
-6 6 -1 11 2 17 5 13 3 -3 4 -12 1 -19z m236 -24 l26 -25 22 22 c31 31 37 8 8
-30 -27 -37 -75 -59 -92 -42 -8 8 -5 11 12 11 12 0 19 4 16 10 -3 6 -17 10
-31 10 -32 0 -40 23 -17 48 24 27 26 26 56 -4z m-6239 -74 c7 0 21 8 32 18 19
18 19 16 20 -149 2 -144 0 -169 -14 -174 -8 -3 -18 -1 -22 5 -4 6 -23 9 -43 6
-21 -2 -35 -1 -33 2 2 4 -2 12 -9 19 -11 10 -17 7 -29 -12 -9 -14 -22 -25 -28
-25 -7 0 -1 10 11 21 17 16 22 29 17 50 -4 22 -2 27 9 22 8 -3 15 -1 15 3 0
15 -17 36 -26 34 -5 -1 -10 4 -13 11 -2 7 1 9 9 4 10 -6 12 -4 7 9 -4 10 -7
33 -7 52 0 20 -4 33 -9 30 -10 -7 -4 71 11 129 l10 40 40 -48 c22 -26 46 -47
52 -47z m1034 38 c2 7 8 9 13 6 6 -4 6 -11 -1 -19 -8 -10 -7 -17 5 -27 37 -30
109 -108 111 -120 1 -5 2 -11 3 -15 1 -5 5 -2 10 6 6 9 14 10 22 5 8 -5 21 -9
29 -9 34 -2 121 -58 172 -112 83 -87 110 -121 103 -133 -10 -17 -44 7 -58 43
-8 18 -21 38 -31 46 -24 20 -96 8 -119 -21 -14 -17 -27 -22 -50 -19 -39 4 -87
28 -87 43 0 6 -3 9 -6 5 -4 -3 -12 -1 -19 6 -34 33 -64 55 -68 50 -3 -2 -8 5
-12 16 -3 11 -12 18 -18 15 -7 -2 -21 9 -30 26 -17 28 -17 34 -3 84 20 67 20
83 1 120 -20 38 -19 40 7 14 14 -14 23 -18 26 -10z m-8 22 c0 -5 -2 -10 -4
-10 -3 0 -8 5 -11 10 -3 6 -1 10 4 10 6 0 11 -4 11 -10z m-1275 -30 c-3 -5 -1
-10 5 -10 6 0 10 -10 8 -22 -2 -13 -9 -22 -15 -21 -7 2 -10 -3 -7 -11 6 -15
-12 -31 -20 -18 -7 12 15 92 26 92 5 0 6 -4 3 -10z m6565 -20 c-24 -15 -37
-11 -16 5 11 8 22 12 25 9 3 -3 -1 -9 -9 -14z m-6096 -62 c4 -24 2 -66 -3 -95
-7 -35 -7 -62 0 -82 9 -25 8 -34 -5 -47 -15 -14 -17 -14 -24 7 -8 22 -9 22
-23 -10 l-14 -32 -5 33 c-3 18 -2 58 3 88 8 59 48 180 58 180 4 0 10 -19 13
-42z m5841 2 c-3 -5 -16 -10 -28 -9 -21 0 -21 1 -2 9 28 12 37 12 30 0z
m-5207 -108 c3 -27 0 -32 -17 -32 -12 0 -21 -5 -21 -11 0 -5 -4 -7 -10 -4 -5
3 -10 1 -10 -4 0 -6 -7 -11 -16 -11 -23 0 -9 60 19 82 32 26 51 18 55 -20z
m-1208 13 c-7 -9 -15 -13 -19 -10 -3 3 1 10 9 15 21 14 24 12 10 -5z m1325
-11 l17 -27 -26 19 c-26 19 -33 34 -17 34 5 0 16 -12 26 -26z m-1335 -17 c0
-2 -12 -14 -26 -28 l-27 -24 18 28 c14 22 35 36 35 24z m714 -43 c3 -8 2 -12
-4 -9 -6 3 -10 10 -10 16 0 14 7 11 14 -7z m-624 -4 c13 -9 13 -12 -2 -21 -10
-5 -18 -15 -18 -20 0 -6 4 -8 9 -5 14 9 41 -4 41 -20 0 -8 -5 -14 -11 -14 -5
0 -7 -4 -4 -10 3 -5 1 -10 -4 -10 -6 0 -11 5 -11 12 0 9 -3 9 -11 1 -13 -13
-39 -6 -39 11 0 22 21 86 28 86 4 0 14 -5 22 -10z m48 -25 c-3 -3 -9 2 -12 12
-6 14 -5 15 5 6 7 -7 10 -15 7 -18z m1132 9 c0 -2 -7 -4 -15 -4 -8 0 -15 4
-15 10 0 5 7 7 15 4 8 -4 15 -8 15 -10z m5400 6 c0 -5 -2 -10 -4 -10 -3 0 -8
5 -11 10 -3 6 -1 10 4 10 6 0 11 -4 11 -10z m-5505 -16 c17 -1 46 -2 65 -3 57
-2 20 -22 -51 -27 -34 -3 -66 -7 -70 -10 -13 -7 -21 15 -14 37 5 15 12 18 23
13 10 -4 31 -9 47 -10z m5105 3 c0 -8 -6 -19 -12 -25 -16 -13 -141 -7 -146 7
-2 6 -13 2 -25 -9 -26 -24 -30 -21 -15 11 11 24 16 25 105 28 75 1 93 -1 93
-12z m-5605 -16 c-3 -6 -11 -11 -16 -11 -5 0 -4 6 3 14 14 16 24 13 13 -3z
m659 -2 c-6 -11 -24 -2 -24 11 0 5 7 7 15 4 8 -4 12 -10 9 -15z m4976 -49
c-16 -30 -30 -25 -19 8 22 67 24 69 27 40 2 -15 -2 -36 -8 -48z m-250 30 c0
-22 -48 -70 -70 -70 -19 0 -43 37 -34 51 9 15 86 49 96 43 4 -3 8 -14 8 -24z
m-5330 -10 c0 -5 -4 -10 -10 -10 -5 0 -10 5 -10 10 0 6 5 10 10 10 6 0 10 -4
10 -10z m5520 -10 c0 -5 -9 -10 -19 -10 -11 0 -23 5 -26 10 -4 6 5 10 19 10
14 0 26 -4 26 -10z m367 4 c-3 -3 -12 -4 -19 -1 -8 3 -5 6 6 6 11 1 17 -2 13
-5z m-397 -34 c39 -21 21 -26 -31 -9 -46 16 -59 29 -28 29 13 -1 40 -9 59 -20z
m-280 1 c0 -6 -4 -13 -10 -16 -5 -3 -10 1 -10 9 0 9 5 16 10 16 6 0 10 -4 10
-9z m20 -41 c0 -5 -12 -10 -26 -10 -14 0 -23 4 -19 10 3 6 15 10 26 10 10 0
19 -4 19 -10z m-6090 -40 c0 -6 -12 -8 -27 -5 -26 5 -26 4 5 -10 17 -8 32 -19
32 -24 0 -15 -49 -22 -68 -11 -14 9 -12 11 11 7 15 -2 27 0 27 4 0 5 -9 9 -19
9 -22 0 -35 15 -26 30 8 13 65 13 65 0z m84 -12 c22 -31 21 -33 -23 -34 -38
-1 -38 -1 -27 27 13 35 29 37 50 7z m56 -8 c0 -16 -4 -30 -10 -30 -5 0 -10 14
-10 30 0 17 5 30 10 30 6 0 10 -13 10 -30z m72 18 c17 17 33 15 18 -3 -10 -12
-10 -18 0 -30 10 -12 10 -15 -2 -15 -8 0 -19 5 -26 12 -9 9 -12 9 -12 0 0 -7
-7 -12 -15 -12 -9 0 -15 9 -15 23 0 31 10 40 27 25 10 -8 17 -8 25 0z m112 6
c23 -9 20 -51 -4 -59 -32 -10 -60 4 -60 30 0 30 28 43 64 29z m136 -4 c0 -5
-12 -11 -27 -11 -26 -2 -26 -2 -4 -6 l23 -5 -27 -14 c-36 -18 -35 -19 -35 16
0 28 3 30 35 30 19 0 35 -4 35 -10z m90 0 c0 -5 -12 -11 -27 -11 -28 -2 -28
-2 -3 -7 l25 -5 -25 -8 c-25 -7 -24 -7 5 -8 20 -1 26 -4 18 -12 -5 -5 -22 -7
-37 -3 -21 5 -26 12 -26 35 0 26 3 29 35 29 19 0 35 -4 35 -10z m40 -26 c0
-21 -4 -33 -10 -29 -5 3 -10 19 -10 36 0 16 5 29 10 29 6 0 10 -16 10 -36z
m94 21 c16 -16 12 -44 -8 -46 -58 -7 -56 -8 -56 27 0 29 3 34 24 34 14 0 31
-7 40 -15z m130 2 c13 -10 16 -20 11 -36 -5 -18 -13 -22 -37 -19 -42 4 -60 34
-34 54 24 17 37 18 60 1z m98 -49 c-6 -6 -22 -8 -36 -4 -19 5 -26 13 -26 31 0
14 5 25 10 25 6 0 10 -8 10 -18 0 -10 3 -22 7 -25 10 -11 33 13 34 37 2 14 3
12 6 -8 3 -16 0 -33 -5 -38z m78 41 l-35 -6 30 -3 c30 -2 30 -2 5 -10 l-25 -7
25 -11 c25 -11 25 -11 -7 -11 -31 -1 -33 1 -33 32 0 32 1 33 38 28 l37 -5 -35
-7z m405 7 c36 -26 -1 -64 -50 -52 -29 8 -34 40 -7 55 23 14 35 13 57 -3z
m260 -21 c0 -25 -27 -39 -58 -31 -34 8 -37 43 -4 55 29 11 62 -2 62 -24z
m3195 25 c0 -5 -4 -10 -10 -10 -5 0 -10 5 -10 10 0 6 5 10 10 10 6 0 10 -4 10
-10z m-3785 -17 c6 -17 7 -17 21 1 7 11 17 17 20 13 8 -7 -23 -57 -35 -57 -7
0 -31 43 -31 55 0 13 19 3 25 -12z m110 7 c-28 -7 -29 -8 -5 -10 l25 -2 -25
-8 c-25 -7 -24 -9 20 -23 8 -3 -2 -6 -22 -6 -36 -1 -38 1 -38 29 0 28 2 30 38
29 37 -1 37 -1 7 -9z m123 -17 c3 -17 -3 -24 -22 -29 -37 -9 -56 2 -56 31 0
24 3 26 38 23 29 -2 38 -7 40 -25z m199 16 c8 -8 13 -8 17 0 14 23 36 11 36
-19 0 -16 -4 -30 -10 -30 -5 0 -10 7 -10 16 0 13 -3 14 -14 5 -11 -9 -16 -9
-22 0 -5 9 -11 7 -21 -6 -12 -17 -13 -16 -13 13 0 33 16 42 37 21z m250 -19
c-2 -33 -7 -36 -25 -18 -8 8 -15 8 -27 -2 -13 -11 -15 -8 -15 19 0 29 3 31 35
31 32 0 34 -2 32 -30z m91 5 c7 -14 12 -27 12 -28 0 -1 -18 -2 -40 -2 -22 0
-40 1 -40 2 0 17 27 53 40 53 9 0 22 -11 28 -25z m4842 -39 c0 -14 -4 -28 -10
-31 -6 -4 -10 7 -10 24 0 17 5 31 10 31 6 0 10 -11 10 -24z m80 10 c0 -21 -11
-25 -37 -15 -33 12 -28 29 7 29 19 0 30 -5 30 -14z m-130 -18 c0 -16 -3 -19
-11 -11 -6 6 -8 16 -5 22 11 17 16 13 16 -11z m210 -9 c0 -5 -4 -9 -10 -9 -5
0 -10 7 -10 16 0 8 5 12 10 9 6 -3 10 -10 10 -16z m-3260 -65 c0 -17 -7 -37
-15 -44 -13 -11 -15 -4 -15 51 1 58 2 62 15 45 8 -11 15 -34 15 -52z m2929
-101 c0 -5 -4 -17 -9 -28 -8 -18 -9 -17 -9 8 -1 15 4 27 9 27 6 0 10 -3 9 -7z
m-4149 -150 c0 -23 -5 -33 -15 -33 -8 0 -15 9 -15 20 0 23 -15 27 -23 6 -3 -8
-1 -17 6 -20 7 -2 -3 -5 -22 -5 -32 -1 -33 0 -18 17 21 23 22 33 2 26 -15 -6
-21 7 -9 19 3 3 26 5 50 4 43 -2 44 -3 44 -34z m130 27 c0 -16 -23 -60 -32
-60 -5 0 -6 11 -2 25 4 15 2 25 -5 25 -6 0 -11 -11 -11 -25 0 -22 -4 -25 -37
-25 -31 1 -35 3 -20 11 9 5 23 7 30 3 8 -5 7 -2 -2 9 -7 9 -21 17 -29 17 -13
0 -12 3 3 14 21 15 105 20 105 6z m140 -4 c0 -20 -53 -63 -80 -64 -25 -1 -50
14 -50 30 0 6 9 8 19 5 12 -3 28 4 41 18 22 24 70 31 70 11z m4164 -247 l47
-102 -3 -136 -3 -136 -73 -145 c-41 -80 -76 -147 -78 -149 -13 -14 -12 19 6
128 11 67 19 159 18 204 -2 93 23 437 32 437 3 0 27 -46 54 -101z m-9004 -29
c0 -5 -2 -10 -4 -10 -3 0 -8 5 -11 10 -3 6 -1 10 4 10 6 0 11 -4 11 -10z m53
-20 c-5 -17 -8 -18 -21 -8 -13 12 -13 13 2 16 9 2 13 8 10 14 -4 6 -2 8 4 5 5
-4 8 -16 5 -27z m-174 -67 c-6 -7 -8 -17 -4 -23 3 -5 2 -10 -3 -10 -6 0 -15
-15 -22 -32 -7 -19 -14 -27 -17 -20 -3 7 0 19 7 27 6 8 9 19 5 25 -3 5 -1 10
5 10 7 0 9 8 5 19 -5 15 -1 19 14 18 15 -1 17 -4 10 -14z m66 -43 c7 0 16 8
18 18 3 9 5 -3 6 -27 1 -33 4 -42 16 -38 8 4 17 2 21 -4 3 -6 -9 -9 -33 -8
-35 2 -39 5 -35 25 2 12 -1 25 -7 28 -6 4 -10 17 -10 29 2 22 2 22 6 0 2 -13
10 -23 18 -23z m-45 -41 c0 -11 -5 -19 -11 -19 -5 0 -7 5 -4 10 3 6 1 10 -4
10 -6 0 -11 10 -11 21 0 18 2 19 15 9 8 -7 15 -21 15 -31z m230 22 c0 -6 21
-10 48 -9 96 1 162 -5 162 -14 0 -6 -8 -7 -17 -4 -17 6 -17 5 0 -8 29 -23 20
-36 -24 -34 -25 1 -44 -4 -51 -13 -7 -11 -11 -11 -15 -1 -2 6 -18 12 -34 12
-25 0 -29 4 -30 28 l-2 27 -4 -27 c-2 -16 -9 -28 -14 -28 -5 0 -10 12 -10 28
l-2 27 -4 -27 c-7 -42 -23 -33 -23 12 0 22 5 40 10 40 6 0 10 -4 10 -9z m265
-44 c-11 -28 -19 -35 -32 -30 -11 4 -13 8 -5 11 7 2 20 20 28 40 9 21 18 32
20 26 3 -6 -2 -27 -11 -47z m52 46 c-3 -5 1 -13 8 -20 11 -10 14 -10 18 0 3 9
8 9 20 -2 11 -9 17 -10 17 -2 0 6 7 11 15 11 8 0 15 -6 15 -12 0 -9 3 -9 9 1
8 12 12 12 25 2 11 -9 16 -10 16 -2 0 6 7 11 15 11 8 0 15 -6 15 -12 0 -9 4
-8 10 2 9 13 11 13 20 0 6 -10 10 -11 10 -2 0 6 5 12 10 12 13 0 13 -30 0 -50
-8 -12 -11 -13 -19 -1 -6 9 -11 10 -15 2 -11 -17 -26 -13 -26 6 0 15 -2 14
-15 -3 -13 -16 -16 -17 -25 -4 -6 10 -10 11 -10 3 0 -21 -20 -15 -30 10 -6 16
-9 17 -9 5 -1 -23 -21 -34 -32 -17 -6 10 -9 11 -9 2 0 -23 -20 -13 -31 15
l-11 27 -15 -35 c-8 -19 -17 -30 -19 -24 -6 15 24 84 37 84 5 0 8 -3 6 -7z
m535 -5 c2 -6 24 -12 49 -12 29 -1 44 -5 43 -13 -1 -7 -2 -19 -2 -26 -2 -10
-23 -14 -82 -15 -79 -2 -80 -2 -80 23 0 14 -5 25 -11 25 -7 0 -9 -10 -7 -25 3
-14 1 -25 -3 -25 -5 0 -10 12 -10 28 l-2 27 -4 -27 c-4 -25 -7 -26 -59 -26
-39 0 -57 5 -61 15 -4 11 -10 6 -19 -16 -7 -17 -18 -31 -24 -31 -13 0 -13 17
0 25 7 4 7 12 0 25 -13 24 -13 40 0 40 6 0 11 -8 11 -17 1 -15 2 -16 6 -2 3
12 16 16 53 16 46 0 50 -2 50 -23 0 -13 5 -24 10 -24 6 0 10 11 10 24 0 14 7
25 18 28 29 7 52 -3 52 -22 0 -10 5 -22 10 -25 6 -3 10 3 10 15 0 33 34 64 42
38z m400 -16 c4 11 8 11 20 0 9 -7 18 -9 20 -3 1 5 23 11 47 12 43 3 44 3 45
-29 1 -39 -13 -43 -15 -4 l-2 27 -4 -28 c-4 -26 -7 -28 -46 -26 -23 2 -45 7
-49 13 -5 7 -8 7 -8 -1 0 -23 -20 -14 -31 15 l-11 27 -14 -32 c-16 -38 -43
-35 -45 6 l-2 26 -4 -27 c-5 -32 -23 -38 -23 -9 0 11 -4 23 -10 26 -6 3 -10
-4 -10 -18 0 -22 -3 -24 -64 -25 -48 -1 -66 3 -70 14 -13 34 3 41 104 42 97 2
100 1 100 -21 1 -18 4 -16 15 12 l15 34 19 -22 c13 -15 20 -18 23 -9z m218 19
c0 -5 9 -11 20 -14 14 -3 20 -14 20 -31 0 -14 -4 -26 -10 -26 -5 0 -10 11 -10
25 0 14 -4 25 -10 25 -5 0 -10 -11 -10 -25 0 -22 -4 -25 -34 -25 -36 0 -50 17
-39 46 4 10 14 14 29 11 16 -3 24 0 24 9 0 8 5 14 10 14 6 0 10 -4 10 -9z m95
-11 c10 -11 21 -16 24 -11 4 6 20 6 41 1 l35 -8 -31 -1 c-23 -1 -33 -7 -37
-21 -3 -11 -10 -20 -15 -20 -6 0 -14 9 -17 20 -7 23 -21 26 -28 8 -2 -7 -8
-10 -12 -5 -5 4 -3 13 3 19 17 17 15 28 -3 22 -8 -4 -15 -1 -15 5 0 18 36 12
55 -9z m187 2 c3 -14 5 -13 20 1 19 19 53 22 64 6 5 -8 9 -8 14 1 9 15 30 4
30 -16 0 -21 18 -17 25 6 11 35 25 22 24 -22 -1 -24 -3 -35 -6 -25 -5 18 -5
18 -19 0 -12 -16 -15 -16 -24 -3 -5 8 -10 10 -10 4 0 -14 -188 -18 -204 -5 -6
5 -20 11 -31 14 -11 2 -6 3 10 2 17 -2 38 -6 48 -10 9 -4 17 -3 17 3 0 6 -9
14 -20 17 -11 3 -20 15 -20 26 0 16 7 19 40 17 26 -1 40 -6 42 -16z m208 -17
c0 -28 4 -35 20 -35 16 0 20 7 20 36 0 31 3 35 22 32 13 -2 24 -11 26 -23 10
-51 42 -54 42 -4 0 16 5 29 10 29 6 0 10 -6 10 -13 0 -9 10 -12 30 -9 17 2 30
8 30 13 0 13 47 11 55 -1 5 -7 11 -8 19 -1 17 14 76 11 76 -5 0 -8 7 -11 18
-7 13 5 15 3 5 -7 -8 -8 -9 -19 -3 -30 8 -14 3 -17 -38 -17 -26 -1 -52 3 -59
8 -7 7 -14 6 -18 -1 -3 -5 -17 -10 -30 -10 -13 0 -27 -4 -30 -10 -3 -5 -18
-10 -33 -9 l-27 1 25 8 c21 7 22 8 5 10 -11 1 -59 1 -107 0 l-88 -2 0 41 c0
23 5 41 10 41 6 0 10 -16 10 -35z m528 23 c9 -9 12 -9 12 0 0 14 32 16 46 3 5
-5 20 -11 34 -13 19 -2 26 -10 28 -30 2 -20 -1 -28 -12 -28 -9 0 -16 -4 -16
-10 0 -21 -20 -9 -21 13 0 12 -3 16 -6 10 -5 -15 -113 -18 -113 -4 0 5 7 14
15 21 8 7 15 19 15 27 0 12 -3 13 -13 4 -8 -6 -17 -8 -20 -4 -4 3 -12 -8 -18
-25 -6 -18 -15 -32 -21 -32 -6 0 -8 6 -5 13 18 49 18 55 -5 60 -13 2 2 5 33 6
31 0 60 -4 67 -11z m-2562 -18 c8 0 14 -4 14 -10 0 -5 -6 -10 -14 -10 -17 0
-38 25 -29 34 4 4 9 2 11 -3 2 -6 10 -11 18 -11z m5782 -61 c40 -34 57 -59 30
-43 -9 5 -8 2 1 -9 8 -10 16 -15 19 -13 2 3 22 -4 43 -14 21 -11 42 -20 46
-20 4 1 -9 10 -29 21 -42 22 -50 35 -15 24 19 -6 47 -12 69 -14 4 -1 16 -11
27 -22 12 -13 26 -19 36 -15 9 3 14 2 11 -3 -7 -11 113 -63 126 -55 7 5 8 2 3
-6 -5 -9 -2 -10 11 -6 20 6 47 -6 44 -20 -1 -5 4 -10 11 -13 7 -2 9 1 4 9 -6
9 -3 9 14 1 11 -7 21 -16 21 -21 0 -5 9 -12 21 -15 11 -4 18 -12 16 -19 -3 -6
15 -20 39 -31 24 -11 44 -23 44 -27 0 -23 -35 -12 -162 51 -77 39 -143 70
-145 67 -2 -2 60 -36 139 -76 158 -79 163 -83 153 -100 -5 -8 -10 -9 -18 -1
-6 6 -18 11 -26 11 -11 0 -9 -6 9 -20 14 -11 20 -20 13 -20 -6 0 -15 5 -18 10
-3 6 -12 10 -18 9 -7 0 -2 -7 11 -16 26 -18 27 -29 8 -49 -17 -16 -30 -19 -21
-4 3 5 -5 15 -19 22 -14 6 -26 15 -26 20 0 4 -7 8 -16 8 -19 0 -134 108 -134
127 0 17 12 17 36 -3 17 -14 17 -15 1 -10 -10 3 -15 2 -12 -3 3 -6 13 -9 23
-9 9 0 26 -3 37 -6 l20 -8 -20 17 c-11 9 -41 27 -67 41 -26 13 -49 28 -53 34
-3 5 -12 10 -18 10 -7 0 2 -11 18 -25 34 -27 27 -33 -10 -9 -14 9 -25 22 -25
29 0 7 -16 22 -36 34 -19 12 -33 25 -29 31 3 5 -20 21 -52 36 -32 15 -61 29
-65 31 -5 2 -8 0 -8 -5 0 -5 20 -17 45 -26 25 -10 45 -23 45 -31 0 -7 16 -23
35 -36 19 -13 35 -29 35 -36 0 -6 8 -14 18 -17 9 -3 47 -36 83 -74 36 -37 86
-81 110 -97 24 -17 56 -43 72 -59 l27 -28 -31 -37 c-48 -54 -53 -55 -103 -16
-35 27 -50 33 -67 27 -19 -8 -15 -13 44 -50 64 -40 99 -72 64 -59 -11 4 -14 2
-10 -9 6 -17 -8 -19 -25 -2 -7 7 -12 8 -12 4 0 -5 8 -15 18 -22 14 -11 15 -13
2 -14 -9 0 -22 6 -30 13 -8 6 -5 0 8 -14 34 -39 14 -43 -32 -6 -23 19 -49 36
-58 40 -20 7 -24 27 -7 27 8 0 8 4 2 13 -5 6 -10 22 -11 35 -1 22 0 21 44 -8
24 -17 44 -29 44 -26 0 3 -20 19 -45 36 -25 17 -45 36 -45 41 0 6 4 8 9 5 15
-9 2 27 -19 54 -19 25 -19 25 -14 -85 l5 -110 -35 63 c-20 34 -36 66 -36 70 0
4 -14 25 -30 46 -17 22 -30 44 -30 49 0 14 -31 47 -43 47 -6 0 -2 -9 8 -20 10
-11 15 -20 10 -20 -4 0 9 -20 30 -45 22 -27 35 -52 31 -61 -3 -8 -2 -12 4 -9
6 3 10 1 10 -5 0 -7 9 -23 20 -37 11 -14 20 -35 20 -46 0 -11 8 -26 18 -34 10
-9 6 -9 -11 2 -16 9 -31 15 -33 13 -2 -3 37 -33 86 -68 50 -35 88 -65 85 -68
-3 -3 -30 12 -60 33 -31 21 -57 36 -59 34 -2 -2 22 -22 55 -44 32 -22 59 -43
59 -47 0 -15 -24 -8 -57 18 -19 14 -37 23 -40 20 -3 -3 15 -18 40 -33 26 -15
47 -34 47 -40 0 -19 -11 -16 -53 13 -55 37 -56 24 -1 -15 52 -38 52 -54 -1
-22 -20 11 -39 21 -43 21 -12 0 52 -49 64 -50 14 0 26 -40 13 -40 -14 0 -92
50 -106 68 -18 22 -16 37 2 22 27 -23 16 0 -12 25 -16 13 -25 27 -21 31 5 4
17 -1 28 -11 11 -10 20 -13 20 -7 0 7 -3 12 -8 12 -16 0 -72 59 -72 76 0 15 4
14 25 -6 14 -13 27 -21 31 -18 3 3 -10 16 -28 29 -18 13 -36 28 -40 34 -12 16
-9 27 5 19 6 -4 2 4 -10 18 -29 31 -29 42 -2 27 16 -8 24 -8 33 1 8 8 6 9 -8
4 -13 -5 -17 -4 -13 3 4 6 -12 26 -35 45 -33 25 -40 28 -34 13 5 -11 20 -54
33 -95 14 -41 32 -88 40 -103 8 -16 12 -31 9 -34 -3 -3 1 -15 9 -27 8 -11 15
-30 15 -41 0 -12 5 -26 12 -33 6 -6 17 -26 24 -44 6 -18 21 -58 32 -88 11 -30
27 -56 36 -58 18 -4 22 23 6 33 -5 3 -10 11 -10 16 0 5 11 2 25 -7 14 -9 25
-24 25 -34 0 -13 5 -17 20 -13 18 5 20 2 16 -21 -3 -14 -1 -24 3 -21 5 2 11
16 13 29 4 18 -1 27 -16 34 -28 13 -118 93 -112 100 4 4 85 -55 106 -78 3 -3
19 -6 35 -8 l30 -3 -30 25 c-16 13 -27 28 -23 32 4 4 14 1 23 -6 9 -7 19 -10
23 -6 4 4 -5 18 -20 30 -16 12 -28 28 -28 35 0 10 3 11 13 2 8 -6 17 -8 20 -4
12 11 8 23 -8 23 -8 0 -15 5 -15 10 0 6 4 10 9 10 5 0 9 10 10 23 4 79 9 112
18 110 6 -1 9 6 6 16 -6 24 25 84 39 75 7 -4 8 -25 4 -58 -19 -141 -26 -312
-13 -356 17 -60 23 -11 20 163 -2 162 2 217 17 217 15 0 40 -50 43 -88 2 -22
7 -43 10 -49 3 -5 7 -39 9 -75 l2 -64 75 -1 c42 0 94 -1 116 -2 l39 -1 -42
-43 c-42 -43 -50 -57 -33 -57 17 0 116 111 145 163 49 88 68 129 62 134 -9 9
-26 -8 -26 -25 0 -9 -10 -33 -22 -52 -13 -19 -28 -46 -34 -60 -11 -25 -12 -24
-18 15 -4 22 -12 60 -17 85 -5 25 -10 63 -11 85 0 22 -6 46 -12 54 -9 12 -7
13 12 8 23 -5 23 -5 6 14 -19 22 -13 24 19 8 22 -12 22 -12 3 10 -34 38 -6 22
52 -29 31 -27 61 -50 66 -50 13 0 36 -46 36 -70 0 -9 4 -20 9 -25 5 -6 26 -50
46 -100 42 -101 71 -167 93 -208 7 -16 11 -31 8 -34 -3 -3 2 -12 10 -21 10 -9
13 -24 9 -39 -4 -16 -2 -22 5 -18 5 3 10 0 10 -9 0 -8 6 -17 13 -19 9 -4 9 -8
-2 -15 -7 -5 -11 -15 -7 -21 5 -7 1 -9 -8 -5 -19 7 -21 20 -3 28 9 3 7 8 -5
16 -9 6 -24 18 -33 26 -24 25 -28 11 -4 -15 27 -29 19 -37 -10 -10 -28 27 -37
20 -11 -9 24 -25 24 -28 6 -35 -11 -4 -13 -1 -9 10 5 13 2 15 -11 10 -11 -4
-15 -3 -10 4 4 6 1 15 -7 19 -10 7 -10 11 0 24 8 9 9 16 3 16 -6 0 -12 -6 -15
-12 -5 -16 -39 22 -61 68 -8 16 -29 48 -46 69 -18 22 -28 45 -25 54 3 8 3 12
-1 9 -4 -4 -16 -1 -28 7 -28 20 -50 19 -42 -2 8 -19 -29 -57 -48 -50 -8 3 -22
-1 -33 -8 -10 -7 -28 -13 -38 -12 -14 2 -19 -5 -20 -23 0 -21 -5 -25 -30 -25
-22 0 -30 4 -29 17 1 10 -2 15 -7 12 -5 -3 -9 -12 -9 -20 0 -9 -11 -14 -35
-14 -19 0 -35 5 -35 11 0 6 -7 4 -15 -5 -8 -8 -27 -24 -41 -35 -15 -12 -24
-24 -20 -28 4 -4 11 -1 16 7 5 8 12 11 17 7 4 -5 2 -12 -5 -16 -8 -4 -10 -15
-6 -27 6 -15 2 -14 -15 6 -17 19 -24 21 -31 11 -6 -11 -12 -10 -31 8 -12 11
-25 18 -28 15 -3 -4 0 -9 7 -11 6 -3 12 -11 12 -19 0 -8 5 -14 12 -14 6 0 8
-3 5 -7 -4 -3 -18 4 -31 16 l-23 22 -31 -35 -31 -35 -31 32 c-38 39 -57 69
-38 62 7 -3 19 4 26 15 7 11 8 20 3 20 -5 0 -11 -5 -13 -11 -2 -6 -16 1 -31
15 -19 17 -27 21 -27 11 0 -8 -7 -15 -15 -15 -8 0 -15 7 -15 16 0 12 -6 10
-21 -9 -18 -23 -23 -25 -42 -14 -12 6 -29 22 -39 34 -10 11 -38 33 -62 47 -64
37 -106 89 -106 131 0 41 25 49 39 13 13 -33 62 -80 78 -74 8 3 11 1 8 -4 -4
-6 4 -19 17 -30 27 -23 42 -26 35 -6 -4 10 0 12 16 8 21 -5 21 -5 5 11 -9 9
-21 17 -27 17 -6 0 -11 5 -11 10 0 6 -5 10 -11 10 -13 0 -108 72 -109 83 -1
18 32 3 95 -42 74 -54 94 -78 92 -106 -3 -27 29 -31 36 -5 3 11 2 20 -3 20 -4
0 -18 21 -32 48 -13 26 -30 56 -36 67 -26 48 -117 241 -117 251 0 6 -8 23 -18
37 -10 15 -15 32 -12 37 3 5 1 11 -4 15 -5 3 -17 19 -25 37 -13 26 -16 78 -16
320 0 326 -8 302 78 227z m-6034 -95 c26 -10 18 -25 -9 -18 -30 8 -33 -1 -4
-16 17 -9 23 -8 35 7 12 17 13 15 14 -14 0 -18 5 -33 10 -33 6 0 10 11 10 24
0 14 5 28 10 31 6 4 10 -8 10 -28 l0 -35 -60 0 c-56 0 -82 10 -65 26 4 4 10 1
12 -5 6 -15 33 -17 33 -3 0 6 -11 15 -25 20 -28 11 -31 20 -13 38 14 14 20 14
42 6z m196 -39 c0 -48 -19 -64 -21 -17 l-1 27 -11 -27 c-14 -35 -25 -35 -38
-1 -13 34 -5 56 9 23 6 -14 11 -20 11 -15 1 14 34 55 44 55 4 0 7 -20 7 -45z
m70 19 c0 -23 1 -24 16 -10 18 18 30 20 39 6 4 -7 13 -6 26 1 26 13 51 -5 47
-35 -4 -26 -40 -33 -58 -11 -14 17 -40 20 -40 4 0 -6 7 -9 15 -5 8 3 15 1 15
-4 0 -6 -11 -10 -25 -10 -14 0 -25 6 -25 13 0 9 -2 9 -9 -1 -4 -8 -19 -12 -32
-10 -33 4 -41 57 -10 65 12 3 21 9 21 14 0 5 5 9 10 9 6 0 10 -12 10 -26z
m640 -20 c0 -44 -1 -45 -27 -42 -37 4 -42 34 -11 64 33 33 38 30 38 -22z m560
1 l0 -45 -40 2 c-35 1 -40 4 -40 25 0 12 -4 23 -10 23 -5 0 -10 -11 -10 -25 0
-14 -4 -25 -10 -25 -5 0 -10 15 -10 33 0 35 21 46 47 25 12 -9 53 10 53 24 0
5 5 8 10 8 6 0 10 -20 10 -45z m-725 -8 c0 -39 -18 -46 -23 -9 -2 12 -7 20
-12 17 -4 -3 -6 -14 -3 -25 5 -18 1 -19 -53 -17 -51 2 -59 5 -62 23 -4 25 22
49 43 40 23 -9 18 -36 -7 -36 -12 0 -18 -3 -14 -7 4 -4 23 -8 42 -8 29 0 32 2
18 12 -23 16 -10 47 16 40 11 -3 23 -1 26 4 12 21 29 1 29 -34z m-261 10 c-1
-9 2 -17 7 -17 5 0 9 6 9 14 0 19 30 29 46 15 20 -16 17 -29 -6 -29 -11 0 -20
-5 -20 -11 0 -6 7 -9 15 -5 8 3 15 1 15 -4 0 -14 -34 -12 -48 2 -9 9 -12 9
-12 0 0 -7 -11 -12 -25 -12 -14 0 -25 5 -25 11 0 6 8 8 18 5 15 -5 15 -4 -2 8
-11 9 -16 21 -12 31 8 21 41 14 40 -8z m324 -15 c3 -29 1 -32 -22 -32 -22 0
-26 5 -26 28 0 33 8 44 30 40 9 -2 16 -16 18 -36z m160 26 c8 -8 15 -8 25 1
19 15 50 3 42 -18 -3 -9 4 -5 14 9 17 21 23 23 39 14 12 -8 24 -9 36 -2 12 7
21 7 28 0 7 -7 16 -7 29 1 10 6 22 7 26 3 4 -5 2 -11 -4 -13 -7 -3 -13 -15
-13 -29 0 -23 -3 -23 -70 -23 -44 1 -70 5 -70 12 0 8 -4 7 -12 -1 -15 -15 -45
-16 -54 -1 -4 8 1 9 17 5 22 -6 23 -6 6 7 -18 15 -67 11 -67 -5 0 -6 7 -8 15
-4 8 3 15 1 15 -5 0 -6 -10 -9 -22 -7 -27 3 -38 46 -16 59 17 11 22 11 36 -3z
m302 -35 c0 -46 -20 -67 -43 -44 -8 8 -6 11 9 12 17 0 17 1 -3 9 -39 16 -24
70 18 67 15 -1 19 -9 19 -44z m54 41 c10 -4 16 -18 16 -35 0 -24 -4 -29 -24
-29 -32 0 -39 12 -26 44 10 28 11 29 34 20z m206 -9 c19 -23 8 -50 -20 -50
-19 0 -26 6 -28 24 -5 35 26 53 48 26z m120 5 c9 -5 19 -5 26 1 20 16 43 0 41
-29 -2 -26 -5 -27 -57 -27 -45 0 -55 3 -58 18 -4 17 14 47 27 47 3 0 13 -4 21
-10z m127 -2 c7 -6 19 -4 33 4 18 11 23 10 36 -6 11 -15 14 -16 14 -5 0 9 7
16 15 16 10 0 14 -6 10 -14 -3 -8 -5 -23 -5 -34 0 -10 -4 -19 -10 -19 -5 0
-10 7 -10 15 0 9 -10 15 -26 15 -15 0 -23 -4 -19 -11 4 -6 13 -8 21 -5 8 3 14
1 14 -4 0 -5 -20 -9 -45 -8 -34 2 -48 -2 -59 -17 -14 -19 -15 -16 -16 31 0 42
3 51 18 51 9 0 22 -4 29 -9z m171 0 c18 -18 15 -28 -8 -28 -11 0 -20 -5 -20
-11 0 -6 7 -9 15 -5 8 3 15 1 15 -4 0 -6 -11 -10 -25 -10 -14 0 -25 2 -25 4 0
2 -3 11 -6 19 -5 14 19 47 35 47 4 0 12 -5 19 -12z m4401 -14 c14 -12 -19 -1
-35 12 -18 14 -18 14 6 3 14 -6 27 -13 29 -15z m-4781 -46 c-2 -6 -10 -14 -16
-16 -7 -2 -10 2 -6 12 7 18 28 22 22 4z m479 6 c-3 -3 -12 -4 -19 -1 -8 3 -5
6 6 6 11 1 17 -2 13 -5z m-2014 -249 c15 -1 27 3 27 7 0 4 -4 8 -10 8 -5 0
-10 9 -10 20 0 11 7 20 15 20 18 0 20 -16 3 -23 -8 -3 -6 -6 5 -6 10 -1 17 -9
17 -21 0 -19 -5 -20 -56 -16 -31 2 -58 7 -61 10 -3 3 3 18 13 33 l18 28 6 -30
c4 -25 10 -30 33 -30z m92 38 c-4 -10 -10 -26 -12 -35 -3 -10 -9 -18 -14 -18
-5 0 -4 12 1 26 13 33 13 32 -7 37 -11 3 -6 5 11 6 23 1 27 -2 21 -16z m9125
-208 c0 -148 -3 -215 -11 -215 -6 0 -9 5 -7 12 2 6 -3 19 -13 29 -21 21 -49
141 -49 211 0 44 7 65 37 116 20 34 38 62 40 62 2 0 3 -97 3 -215z m-2563 85
c79 -69 111 -82 38 -15 -53 49 -46 47 50 -14 33 -21 62 -46 64 -56 3 -16 0
-15 -28 4 -17 12 -31 18 -31 12 0 -6 9 -16 20 -23 24 -15 26 -28 5 -28 -21 0
-195 148 -195 165 0 8 2 15 4 15 3 0 35 -27 73 -60z m19 -64 c34 -28 70 -56
80 -63 15 -10 12 -10 -16 -1 -19 6 -51 22 -70 37 -19 14 -52 38 -72 51 -21 14
-38 33 -38 43 0 17 1 17 28 0 15 -9 55 -40 88 -67z m-5553 36 c25 -61 31 -129
17 -173 -12 -36 -16 -39 -52 -39 -76 0 -94 83 -42 198 29 65 55 70 77 14z
m5469 -27 c32 -27 19 -33 -29 -12 -16 6 -28 18 -26 25 7 18 22 15 55 -13z
m269 -16 c44 -15 69 -37 69 -61 0 -28 -13 -22 -67 27 -52 48 -53 51 -2 34z
m-881 -78 c0 -3 -5 -13 -10 -21 -8 -13 -11 -12 -24 5 -18 25 -12 32 11 14 10
-7 8 -2 -4 12 -31 34 -29 48 2 19 14 -13 25 -26 25 -29z m385 -34 c37 -32 41
-57 11 -57 -20 0 -67 40 -60 51 3 5 -2 12 -10 15 -22 8 -20 24 2 24 10 0 36
-15 57 -33z m165 12 c0 -5 -7 -9 -15 -9 -15 0 -20 12 -9 23 8 8 24 -1 24 -14z
m556 -38 c16 -16 35 -46 43 -67 13 -35 89 -203 128 -279 18 -38 24 -60 29
-110 4 -40 4 -40 -13 -17 -9 13 -45 85 -81 160 -35 76 -75 161 -89 191 -31 66
-63 141 -63 147 0 11 19 1 46 -25z m-1078 -9 c12 -19 12 -22 1 -17 -19 7 -46
49 -28 43 7 -2 19 -14 27 -26z m2 -37 c24 -24 41 -47 38 -51 -6 -6 -55 39 -87
79 -28 35 6 16 49 -28z m-54 -13 c-9 -8 -26 10 -26 26 1 15 2 15 15 -2 8 -11
13 -21 11 -24z m75 -51 c58 -59 63 -73 14 -35 -52 39 -43 19 15 -33 28 -25 49
-48 47 -50 -6 -5 -76 36 -101 59 -11 10 -17 25 -13 37 3 11 -1 25 -9 32 -14
12 -19 39 -8 39 4 0 29 -22 55 -49z m-68 -1 c3 -12 -3 -30 -14 -43 l-18 -22
-1 54 c0 45 2 52 14 42 8 -6 16 -21 19 -31z m2872 0 c-3 -5 -12 -10 -18 -10
-7 0 -6 4 3 10 19 12 23 12 15 0z m68 -7 c-7 -3 -13 -11 -13 -19 0 -8 -7 -14
-16 -14 -14 0 -15 2 -3 18 19 23 32 32 39 25 3 -3 -1 -8 -7 -10z m317 7 c0 -5
-9 -10 -19 -10 -11 0 -23 5 -26 10 -4 6 5 10 19 10 14 0 26 -4 26 -10z m-447
-7 c-7 -2 -19 -2 -25 0 -7 3 -2 5 12 5 14 0 19 -2 13 -5z m447 -33 c0 -6 -28
-10 -64 -10 -36 0 -68 5 -71 10 -4 6 20 10 64 10 41 0 71 -4 71 -10z m-2899
-70 c19 -15 31 -31 28 -34 -4 -4 -20 5 -37 19 -16 14 -34 25 -40 25 -5 0 -12
6 -15 14 -8 21 26 9 64 -24z m1102 -37 c-7 -2 -21 -2 -30 0 -10 3 -4 5 12 5
17 0 24 -2 18 -5z m-5163 -48 c0 -8 -9 -15 -19 -15 -24 0 -36 16 -19 23 24 10
38 7 38 -8z m6855 5 c3 -5 1 -10 -4 -10 -6 0 -11 5 -11 10 0 6 2 10 4 10 3 0
8 -4 11 -10z m-3159 -21 c19 -22 19 -22 -3 -10 -13 6 -23 16 -23 21 0 15 5 12
26 -11z m2309 -19 l955 0 0 -21 0 -22 -412 7 c-227 3 -507 2 -623 -3 -171 -6
-95 -8 413 -9 l622 -2 0 -150 0 -150 -950 0 c-894 0 -950 1 -951 18 0 9 -1 77
-2 150 l-2 133 93 -2 c63 -2 97 2 105 10 10 10 -11 12 -101 9 -94 -2 -112 -1
-112 12 0 8 -3 26 -5 40 -5 24 -5 24 4 3 l10 -23 956 0z m-2201 -88 c-17 -2
-31 3 -39 15 -8 11 -32 25 -54 32 -23 6 -41 18 -41 26 0 9 26 0 80 -28 67 -35
76 -43 54 -45z m-89 8 c9 -15 -15 -12 -31 4 -8 8 -14 17 -14 21 0 8 37 -13 45
-25z m3 -42 c9 -9 12 -9 12 0 0 16 30 16 31 0 0 -10 2 -10 6 0 6 15 33 16 33
1 0 -8 6 -7 17 2 13 11 17 11 20 2 3 -7 9 -13 14 -13 6 0 7 5 4 10 -12 20 11
10 45 -20 19 -16 40 -30 45 -31 6 -1 18 -2 27 -3 10 0 17 -5 17 -10 0 -5 5
-13 13 -17 11 -7 11 -9 0 -9 -9 0 -11 -7 -7 -21 6 -16 4 -20 -6 -13 -7 4 -26
7 -41 6 -14 -1 -30 3 -33 9 -5 7 -13 5 -25 -6 -20 -18 -51 -10 -43 11 3 9 -2
14 -13 14 -16 0 -17 2 -4 10 13 8 12 13 -7 32 -13 12 -23 17 -23 10 0 -6 5
-12 10 -12 16 0 12 -17 -6 -24 -8 -3 -12 -2 -9 3 3 5 1 12 -5 16 -5 3 -10 0
-10 -8 0 -7 -7 -14 -15 -14 -8 0 -15 7 -15 15 0 12 -3 12 -15 2 -24 -20 -31
-2 -7 19 25 21 30 40 6 20 -13 -10 -17 -10 -26 2 -7 11 -11 11 -15 2 -6 -18
-23 -16 -23 1 0 12 12 23 31 25 3 1 10 -4 17 -11z m632 1 c0 -6 9 -8 22 -3 21
6 21 6 5 -11 -14 -14 -20 -15 -32 -5 -11 9 -15 9 -15 1 0 -6 5 -11 10 -11 6 0
10 -7 10 -17 0 -15 -2 -14 -19 1 -16 15 -18 21 -8 37 13 21 27 25 27 8z m-640
-38 c0 -6 -5 -13 -10 -16 -6 -4 -8 -11 -5 -16 3 -5 -1 -6 -9 -3 -19 7 -20 11
-3 29 14 17 27 19 27 6z m449 -30 c12 -11 18 -21 14 -24 -4 -3 -16 6 -26 19
-22 29 -18 31 12 5z m-30 -65 c-3 -3 -11 5 -18 17 -13 21 -12 21 5 5 10 -10
16 -20 13 -22z m-5832 8 c-3 -3 -12 -4 -19 -1 -8 3 -5 6 6 6 11 1 17 -2 13 -5z
m1088 -4 c-3 -5 -13 -10 -21 -10 -8 0 -14 5 -14 10 0 6 9 10 21 10 11 0 17 -4
14 -10z m4665 0 c0 -5 -2 -10 -4 -10 -3 0 -8 5 -11 10 -3 6 -1 10 4 10 6 0 11
-4 11 -10z m-5020 -42 c0 -16 -3 -19 -11 -11 -6 6 -8 16 -5 22 11 17 16 13 16
-11z m5295 -244 c9 -9 15 -28 13 -43 -2 -20 -9 -27 -32 -29 -37 -5 -51 10 -37
37 17 30 41 27 41 -6 0 -20 3 -24 11 -16 18 18 1 53 -27 53 -41 0 -56 -70 -17
-84 8 -3 19 -4 24 0 5 3 9 0 9 -5 0 -17 -37 -13 -54 5 -22 21 -20 60 4 84 24
24 43 25 65 4z m58 -16 l13 -32 13 32 c19 45 31 40 31 -13 0 -42 -19 -66 -21
-27 -1 16 -2 16 -6 0 -2 -10 -8 -18 -13 -18 -5 0 -14 8 -19 18 -10 16 -10 16
-11 0 0 -10 -4 -18 -10 -18 -5 0 -10 20 -10 45 0 53 14 58 33 13z m157 11 c0
-18 2 -19 15 -9 9 8 15 9 15 2 0 -6 -5 -14 -10 -17 -8 -5 -7 -11 1 -21 6 -8 9
-18 5 -21 -4 -4 -11 -1 -16 7 -7 10 -10 11 -10 3 0 -7 -4 -13 -10 -13 -5 0
-10 20 -10 45 0 25 5 45 10 45 6 0 10 -10 10 -21z m90 -11 l13 -33 10 33 c5
17 14 32 19 32 5 0 6 -10 2 -22 -25 -81 -37 -87 -55 -28 -14 47 -25 44 -20 -6
1 -19 -2 -34 -8 -34 -6 0 -11 20 -11 45 0 38 3 45 19 45 12 0 23 -12 31 -32z
m67 -35 c-2 -16 -4 -5 -4 22 0 28 2 40 4 28 2 -13 2 -35 0 -50z m73 21 c0 -44
-1 -45 -27 -42 -37 4 -42 34 -11 64 33 33 38 30 38 -22z m128 12 c4 -28 4 -28
18 -7 8 11 21 21 29 21 19 0 37 -34 29 -54 -7 -19 -50 -21 -58 -3 -5 10 -7 10
-12 0 -3 -7 -19 -13 -35 -13 -28 0 -29 2 -29 46 0 44 1 45 28 42 21 -2 28 -9
30 -32z m113 17 c5 -48 2 -73 -7 -73 -7 0 -14 15 -17 33 -5 34 -1 47 14 47 5
0 9 -3 10 -7z m-517 -9 c10 -4 16 -18 16 -35 0 -24 -4 -29 -24 -29 -32 0 -39
12 -26 44 10 28 11 29 34 20z m336 -2 c0 -4 -7 -17 -15 -29 -14 -20 -13 -22 2
-26 11 -3 8 -5 -9 -6 -32 -1 -35 5 -11 31 15 17 15 18 0 18 -10 0 -17 5 -17
10 0 6 11 10 25 10 14 0 25 -3 25 -8z m-5834 -54 c-2 -13 1 -29 6 -35 8 -9 6
-13 -6 -13 -11 0 -14 -5 -10 -12 4 -7 3 -8 -5 -4 -12 8 -41 -16 -41 -33 0 -6
-9 -11 -19 -11 -14 0 -18 -5 -14 -19 3 -11 -2 -21 -11 -24 -9 -4 -16 -2 -16 2
0 5 6 12 13 14 7 3 5 6 -5 6 -22 1 -12 31 10 31 20 0 52 29 52 48 0 9 6 12 15
8 9 -3 15 -1 14 7 -4 29 2 57 11 57 5 0 8 -10 6 -22z m4994 2 c26 -26 35 -66
20 -85 -8 -9 -25 -13 -51 -10 -48 5 -59 11 -59 35 0 22 12 31 46 35 20 2 24
-2 24 -26 0 -15 5 -31 10 -34 14 -9 23 20 16 50 -17 68 -126 48 -126 -23 0
-38 11 -51 56 -67 39 -14 39 -14 8 -15 -78 -1 -108 98 -45 147 25 19 78 16
101 -7z m257 -137 c-3 -10 -5 -2 -5 17 0 19 2 27 5 18 2 -10 2 -26 0 -35z m49
-19 c-3 -8 -16 -13 -28 -13 l-23 2 23 4 c18 4 22 12 23 41 2 32 3 33 6 9 3
-16 2 -35 -1 -43z m54 36 c0 -5 -7 -6 -17 -3 -11 4 -14 3 -9 -5 4 -7 2 -12 -3
-12 -12 0 -14 13 -4 23 10 10 33 8 33 -3z m56 -8 c1 -7 0 -8 -3 -2 -8 17 -23
11 -23 -9 0 -11 8 -22 18 -24 13 -4 12 -5 -4 -6 -26 -1 -39 26 -23 46 13 15
32 13 35 -5z m38 10 c-7 -4 -14 -18 -17 -32 -4 -21 -4 -20 -6 8 -1 24 3 32 17
32 11 0 13 -3 6 -8z m55 -24 c-2 -31 -2 -31 -6 -5 -2 15 -8 27 -13 27 -5 0
-11 -12 -13 -27 -4 -26 -4 -26 -6 5 -1 26 3 32 19 32 16 0 20 -6 19 -32z m59
-1 c3 -23 0 -27 -20 -26 -16 1 -18 3 -6 6 9 2 16 13 15 24 -1 11 -7 17 -14 15
-7 -3 -13 -1 -13 5 0 24 35 2 38 -24z m91 -1 c-2 -30 -2 -30 -6 -3 -2 15 -9
27 -14 27 -5 0 -10 -12 -10 -27 l-2 -28 -4 28 c-2 15 -10 27 -18 27 -8 0 -16
-12 -18 -27 -4 -27 -4 -26 -6 4 -1 31 0 32 39 31 38 0 40 -2 39 -32z m57 16
c1 -7 0 -8 -3 -2 -2 5 -11 10 -19 10 -20 0 -17 -38 4 -43 16 -4 16 -5 -1 -6
-20 -1 -32 22 -23 45 7 18 38 15 42 -4z m-6406 -32 c0 -5 -6 -10 -14 -10 -8 0
-26 -14 -40 -31 -14 -17 -26 -26 -26 -21 0 6 13 24 29 41 29 31 51 40 51 21z
m6041 -8 c-7 -2 -18 1 -23 6 -8 8 -4 9 13 5 13 -4 18 -8 10 -11z m-5864 -75
c8 -16 12 -31 10 -33 -2 -3 -10 9 -17 26 -10 25 -18 30 -47 30 -23 0 -33 4
-30 13 2 6 12 11 22 9 12 -2 15 1 9 10 -4 7 3 4 15 -7 13 -11 30 -33 38 -48z
m-192 43 c3 -5 1 -10 -4 -10 -6 0 -11 5 -11 10 0 6 2 10 4 10 3 0 8 -4 11 -10z
m140 -50 c3 -5 -1 -10 -9 -10 -9 0 -16 5 -16 10 0 6 4 10 9 10 6 0 13 -4 16
-10z m-16 -107 c1 5 6 5 12 1 8 -5 8 -9 -1 -14 -9 -5 -12 -36 -11 -99 0 -54
-3 -91 -9 -91 -6 0 -10 8 -10 18 0 10 -5 23 -11 29 -8 8 -11 50 -10 120 2 139
11 169 27 88 6 -33 12 -56 13 -52z m741 59 c13 -10 33 -46 45 -80 l22 -62 -23
6 c-18 5 -24 2 -24 -10 0 -10 -8 -16 -21 -16 -16 0 -19 4 -13 18 4 9 9 37 11
62 2 33 0 40 -6 25 -5 -11 -10 -31 -11 -45 -2 -21 -3 -22 -7 -5 -3 11 -9 22
-13 25 -5 3 -10 26 -13 53 -4 40 -2 47 13 47 10 0 28 -8 40 -18z m-650 -3 c0
-4 -7 -9 -15 -13 -9 -3 -15 0 -15 8 0 7 7 13 15 13 8 0 15 -4 15 -8z m10 -39
c0 -5 -8 -10 -17 -10 -15 0 -16 2 -3 10 19 12 20 12 20 0z m-5 -40 c3 -5 -3
-10 -15 -10 -12 0 -18 5 -15 10 3 6 10 10 15 10 5 0 12 -4 15 -10z m5462 -12
c14 -13 23 -33 23 -50 0 -16 5 -38 10 -49 10 -18 7 -19 -61 -19 -69 0 -71 1
-65 23 3 12 6 32 6 45 0 21 40 72 56 72 4 0 18 -10 31 -22z m-5732 -18 c1 -11
-2 -20 -7 -20 -4 0 -8 12 -8 27 0 30 13 24 15 -7z m6042 -21 l18 -31 6 34 c6
30 6 28 8 -14 1 -55 -7 -60 -31 -20 l-17 27 -1 -27 c0 -16 -4 -28 -10 -28 -5
0 -10 20 -10 45 0 53 12 57 37 14z m170 -36 c-2 -16 -4 -5 -4 22 0 28 2 40 4
28 2 -13 2 -35 0 -50z m56 60 c-7 -2 -13 -9 -13 -15 0 -6 7 -8 15 -4 12 4 15
-3 15 -29 0 -41 -19 -48 -21 -7 l-2 27 -4 -27 c-6 -38 -20 -35 -26 5 -6 43 1
57 27 56 11 0 15 -3 9 -6z m204 -60 c-2 -16 -4 -5 -4 22 0 28 2 40 4 28 2 -13
2 -35 0 -50z m-282 14 c0 -46 -21 -49 -28 -4 -5 36 0 50 16 44 7 -2 12 -20 12
-40z m260 0 c0 -41 -16 -44 -26 -6 -7 24 -7 24 -8 -3 -1 -27 -2 -27 -58 -25
-54 2 -58 4 -61 28 -4 33 25 47 47 23 15 -15 14 -16 -6 -9 -19 5 -23 2 -23
-14 0 -12 2 -21 4 -21 18 0 39 17 47 37 7 18 14 23 28 18 11 -3 22 -1 26 5 13
21 30 3 30 -33z m-305 14 c14 -27 2 -51 -25 -51 -28 0 -43 34 -25 55 17 21 37
19 50 -4z m397 3 c5 -14 7 -14 14 -1 5 8 19 14 31 13 18 -1 24 -8 26 -33 2
-19 -1 -33 -7 -33 -6 0 -11 11 -11 25 0 14 -4 25 -10 25 -5 0 -10 -11 -10 -25
0 -25 -19 -36 -21 -12 0 10 -2 10 -6 0 -8 -21 -51 -15 -58 7 -12 38 38 70 52
34z m130 -22 c2 -28 0 -32 -22 -32 -14 0 -25 5 -25 11 0 6 9 8 21 4 15 -5 19
-4 15 4 -4 6 -14 11 -22 11 -17 0 -19 26 -1 33 22 9 32 1 34 -31z m-6667 -3
c0 -6 -4 -7 -10 -4 -5 3 -10 11 -10 16 0 6 5 7 10 4 6 -3 10 -11 10 -16z m45
-65 c45 -8 45 -24 0 -24 -34 0 -35 -1 -31 -35 3 -25 1 -35 -9 -35 -9 0 -11 -7
-7 -22 3 -14 1 -19 -6 -14 -8 5 -10 1 -5 -10 4 -12 3 -15 -6 -10 -9 6 -11 30
-7 90 3 44 5 88 6 96 0 10 5 8 15 -7 9 -12 31 -25 50 -29z m5662 0 c-3 -3 -12
-4 -19 -1 -8 3 -5 6 6 6 11 1 17 -2 13 -5z m-5493 -19 c4 -10 -1 -15 -15 -15
-17 0 -18 2 -7 15 16 18 15 18 22 0z m725 -65 c0 -9 -6 -4 -14 10 -19 33 -19
49 0 24 8 -10 14 -26 14 -34z m-1434 30 c3 -5 1 -10 -4 -10 -6 0 -11 5 -11 10
0 6 2 10 4 10 3 0 8 -4 11 -10z m2255 -189 c0 -127 0 -128 -22 -127 -40 3 -83
19 -95 35 -14 18 -17 111 -4 111 5 0 11 8 13 18 3 10 21 26 40 35 20 9 38 26
41 37 3 11 10 20 16 20 7 0 11 -42 11 -129z m-1740 102 c0 -5 -5 -15 -10 -23
-8 -12 -10 -11 -10 8 0 12 5 22 10 22 6 0 10 -3 10 -7z m934 -33 c4 -23 2 -49
-5 -61 -6 -11 -8 -28 -4 -36 5 -14 8 -13 26 5 26 29 84 30 98 3 8 -15 7 -20
-5 -25 -27 -10 -46 -7 -59 11 -13 18 -37 10 -29 -11 3 -7 -5 -18 -18 -24 -13
-6 -17 -11 -10 -11 24 -2 12 -21 -13 -21 -23 0 -25 3 -25 48 0 27 6 69 13 93
8 24 12 50 9 57 -2 6 1 12 6 12 5 0 12 -18 16 -40z m-1394 15 c25 -8 42 -45
47 -106 6 -66 -7 -89 -54 -90 -15 0 -37 -4 -48 -9 -17 -7 -14 -9 15 -10 19 -1
47 -1 61 0 16 1 29 -5 32 -14 4 -9 15 -16 26 -16 28 0 71 -21 65 -32 -3 -4
-10 -6 -15 -3 -5 4 -9 1 -9 -5 0 -13 -79 -10 -115 4 -14 6 -16 5 -7 -2 19 -13
-18 -19 -80 -14 -52 4 -62 17 -25 32 l22 9 -25 2 c-14 2 -34 4 -45 5 -11 1
-26 2 -32 3 -10 1 -13 29 -13 104 l0 103 45 23 c25 12 49 19 55 16 5 -3 10 -1
10 5 0 10 49 8 90 -5z m2054 -16 c-3 -5 -10 -7 -15 -3 -5 3 -7 10 -3 15 3 5
10 7 15 3 5 -3 7 -10 3 -15z m-1517 -21 c-3 -8 -6 -5 -6 6 -1 11 2 17 5 13 3
-3 4 -12 1 -19z m6283 -98 c0 -5 -9 -10 -20 -10 -28 0 -25 -20 3 -21 20 0 20
-1 3 -8 -11 -4 -23 -16 -27 -27 -5 -13 -8 -4 -8 29 -1 44 1 47 24 47 14 0 25
-4 25 -10z m57 -57 c-2 -16 -4 -5 -4 22 0 28 2 40 4 28 2 -13 2 -35 0 -50z
m516 -16 c18 -4 17 -5 -5 -6 -27 -1 -28 1 -26 47 l1 47 4 -42 c3 -33 8 -43 26
-46z m152 47 c9 3 12 0 8 -10 -3 -8 0 -21 7 -29 8 -9 8 -15 2 -15 -6 0 -13 6
-15 13 -4 9 -8 8 -16 -3 -8 -11 -10 -3 -9 35 0 28 3 40 5 27 3 -15 10 -22 18
-18z m461 4 l17 -33 14 33 c7 18 18 30 23 27 13 -8 13 -85 0 -85 -5 0 -10 10
-10 23 -1 22 -1 22 -14 -3 l-14 -25 -14 30 -13 29 -6 -30 c-6 -24 -7 -21 -8
19 0 26 1 47 4 47 2 0 12 -15 21 -32z m676 -5 c5 15 13 27 18 27 5 0 1 -18 -7
-40 -9 -22 -19 -40 -23 -40 -7 0 -31 70 -29 86 0 5 8 -7 16 -26 l16 -35 9 28z
m-8431 5 c9 -15 1 -27 -9 -13 -4 6 -20 10 -37 9 -28 0 -39 -3 -91 -24 -11 -4
-27 -4 -35 1 -10 6 -8 9 11 9 19 0 22 2 11 9 -12 8 -10 11 10 15 13 3 33 7 44
10 31 7 88 -2 96 -16z m289 1 c0 -11 -4 -18 -10 -14 -5 3 -7 12 -3 20 7 21 13
19 13 -6z m757 -9 c0 -16 -6 -31 -14 -34 -23 -9 -14 -25 12 -20 14 2 25 0 25
-6 0 -5 -4 -10 -10 -10 -5 0 -7 -13 -3 -30 3 -20 1 -30 -6 -30 -7 0 -9 -4 -6
-10 3 -5 -10 -16 -30 -24 -19 -8 -38 -22 -41 -31 -5 -13 -34 -15 -201 -15
-174 0 -194 2 -191 16 2 10 -3 19 -9 21 -7 3 -13 0 -13 -6 0 -6 -7 -11 -15
-11 -18 0 -20 16 -2 24 6 3 -1 4 -18 1 -29 -5 -29 -5 -10 10 17 14 18 17 5 26
-8 5 -36 8 -63 7 -26 -2 -48 1 -50 6 -2 5 -21 3 -43 -6 -27 -11 -45 -13 -57
-7 -11 7 -23 6 -34 -1 -16 -10 -15 -11 6 -6 18 4 21 2 12 -7 -7 -7 -23 -12
-36 -12 -19 -1 -22 2 -13 12 9 11 7 12 -8 6 -10 -4 -24 -13 -30 -22 -7 -8 -18
-12 -29 -7 -10 3 -23 1 -31 -5 -8 -6 -37 -9 -76 -5 -35 2 -71 5 -81 5 -17 1
-17 3 -3 16 8 9 19 14 24 13 6 -2 9 2 9 7 -1 6 -9 9 -17 7 -8 -2 -22 -3 -30
-4 -8 0 -21 -5 -28 -11 -8 -7 -12 -5 -12 7 0 9 6 16 13 16 9 0 9 2 0 8 -6 4
36 6 95 4 131 -3 193 12 202 48 8 33 57 37 52 5 -2 -16 4 -21 23 -23 14 -1 25
3 25 9 0 38 94 65 120 34 15 -18 51 -20 67 -4 6 6 32 10 57 8 25 -3 46 -1 46
3 0 11 48 10 54 -1 3 -4 29 -6 57 -3 40 4 50 2 44 -8 -6 -9 -3 -10 13 -1 11 6
30 11 41 11 11 0 26 7 35 15 24 24 28 18 24 -35 -2 -41 0 -50 12 -48 9 2 15
15 15 33 0 28 2 30 40 30 52 0 68 11 61 41 -4 16 -2 24 7 24 8 0 14 -11 14
-30z m5553 -20 c0 -16 -4 -30 -10 -30 -5 0 -10 14 -10 30 0 17 5 30 10 30 6 0
10 -13 10 -30z m98 13 c2 -8 -5 -13 -17 -13 -25 0 -28 -17 -3 -23 14 -4 14 -5
1 -6 -22 -1 -41 23 -33 43 7 19 45 18 52 -1z m62 8 c0 -5 -10 -7 -22 -5 l-23
5 23 -12 c12 -7 22 -16 22 -21 0 -14 -30 -22 -42 -10 -8 8 -4 9 12 5 16 -4 21
-3 16 5 -4 7 -14 12 -22 12 -8 0 -14 7 -14 15 0 9 9 15 25 15 14 0 25 -4 25
-9z m430 -21 c0 -16 -4 -30 -10 -30 -5 0 -10 14 -10 30 0 17 5 30 10 30 6 0
10 -13 10 -30z m59 -2 c-2 -32 -2 -32 -6 -5 -5 33 -25 31 -34 -4 -6 -21 -7
-21 -8 9 -1 28 2 32 24 32 22 0 25 -4 24 -32z m131 23 c0 -5 -10 -7 -22 -5
l-23 5 23 -12 c12 -7 22 -16 22 -21 0 -14 -30 -22 -42 -10 -8 8 -4 9 12 5 16
-4 21 -3 16 5 -4 7 -14 12 -22 12 -8 0 -14 7 -14 15 0 9 9 15 25 15 14 0 25
-4 25 -9z m470 -16 c0 -34 18 -32 23 3 4 25 4 24 6 -6 1 -29 -2 -33 -21 -30
-17 2 -24 11 -26 31 -2 15 1 27 7 27 6 0 11 -11 11 -25z m100 16 c0 -5 -10 -7
-22 -5 l-23 5 23 -12 c12 -7 22 -16 22 -21 0 -14 -30 -22 -42 -10 -8 8 -4 9
12 5 16 -4 21 -3 16 5 -4 7 -14 12 -22 12 -8 0 -14 7 -14 15 0 9 9 15 25 15
14 0 25 -4 25 -9z m30 -21 c0 -16 -4 -30 -10 -30 -5 0 -10 14 -10 30 0 17 5
30 10 30 6 0 10 -13 10 -30z m60 21 c0 -5 -8 -8 -17 -7 -10 0 -18 -6 -18 -14
0 -8 8 -14 18 -14 9 1 17 -2 17 -7 0 -5 -9 -9 -20 -9 -23 0 -35 22 -26 45 6
16 46 21 46 6z m475 -21 c0 -29 -38 -41 -48 -16 -10 26 4 47 27 44 15 -2 21
-10 21 -28z m35 0 c0 -16 -4 -30 -10 -30 -5 0 -10 14 -10 30 0 17 5 30 10 30
6 0 10 -13 10 -30z m60 21 c0 -5 -8 -8 -17 -7 -10 0 -18 -6 -18 -14 0 -8 8
-14 18 -14 9 1 17 -2 17 -7 0 -5 -9 -9 -20 -9 -23 0 -35 22 -26 45 6 16 46 21
46 6z m68 -8 c2 -8 -5 -13 -17 -13 -25 0 -28 -17 -3 -23 14 -4 14 -5 1 -6 -22
-1 -41 23 -33 43 7 19 45 18 52 -1z m-8747 -31 c-7 -2 -18 1 -23 6 -8 8 -4 9
13 5 13 -4 18 -8 10 -11z m-91 -2 c0 -5 -4 -10 -10 -10 -5 0 -10 5 -10 10 0 6
5 10 10 10 6 0 10 -4 10 -10z m348 4 c25 -7 28 -19 8 -39 -10 -10 -49 -14
-163 -13 -83 0 -157 4 -164 9 -10 6 -2 9 23 9 20 0 38 5 40 11 2 7 18 6 51 -3
41 -11 50 -10 58 2 8 11 12 12 16 3 7 -18 97 -17 112 1 10 12 8 15 -11 19 -13
2 -16 5 -8 6 8 0 25 -2 38 -5z m1201 -19 c-5 -5 -26 -9 -47 -8 -32 2 -30 0 18
-13 30 -8 63 -12 73 -10 9 2 17 0 17 -5 0 -5 -12 -11 -27 -15 -16 -3 -40 -10
-56 -16 -16 -6 -47 -8 -75 -3 -65 10 -90 10 -139 1 -35 -6 -43 -4 -43 9 0 8
-4 15 -9 15 -13 0 -21 39 -9 46 6 4 14 0 19 -7 7 -12 9 -11 9 1 0 12 2 12 9 2
9 -15 19 -15 42 2 21 14 232 15 218 1z m159 1 c3 -3 -15 -6 -39 -6 -28 0 -39
3 -31 9 14 9 60 7 70 -3z m45 -3 c-7 -2 -19 -2 -25 0 -7 3 -2 5 12 5 14 0 19
-2 13 -5z m-73 -22 c0 -9 -41 -23 -48 -16 -2 2 -1 8 3 14 8 13 45 15 45 2z
m30 -1 c0 -5 -5 -10 -11 -10 -5 0 -7 5 -4 10 3 6 8 10 11 10 2 0 4 -4 4 -10z
m170 -37 c0 -18 -4 -33 -10 -33 -5 0 -10 11 -10 25 0 29 -12 32 -31 9 -10 -13
-10 -17 2 -25 10 -6 6 -9 -15 -9 -28 0 -28 1 -13 18 21 23 22 36 2 28 -8 -3
-15 -2 -15 3 0 15 11 18 50 17 38 -1 40 -2 40 -33z m79 7 l4 -25 6 25 c10 36
35 32 39 -7 l3 -32 -61 1 c-36 1 -56 5 -48 9 7 5 22 6 33 2 17 -5 18 -4 8 9
-7 8 -9 18 -5 23 4 4 -6 5 -23 1 -29 -7 -29 -7 -10 8 27 21 49 16 54 -14z
m-1329 -50 c0 -12 -67 -12 -95 0 -14 6 -4 9 38 9 32 1 57 -3 57 -9z m5770 0
c0 -6 85 -10 235 -10 l235 0 0 -545 0 -545 -545 0 -545 0 0 545 0 545 80 0
c47 0 80 4 80 10 0 6 83 10 230 10 147 0 230 -4 230 -10z m1570 -555 l0 -545
-545 0 -545 0 0 545 0 545 545 0 545 0 0 -545z m-6515 515 c17 -7 14 -9 -13
-9 -20 -1 -31 3 -27 9 7 12 13 12 40 0z m-208 -6 c-3 -3 -12 -4 -19 -1 -8 3
-5 6 6 6 11 1 17 -2 13 -5z m86 -1 c-13 -2 -33 -2 -45 0 -13 2 -3 4 22 4 25 0
35 -2 23 -4z m4114 -213 c4 0 17 10 30 22 13 12 23 19 23 17 0 -3 -15 -19 -33
-37 l-33 -32 -35 37 c-18 21 -22 28 -8 15 14 -12 28 -22 32 -22 4 0 8 24 9 53
l2 52 3 -52 c2 -29 7 -53 10 -53z m-3517 -61 c0 -17 4 -28 10 -24 5 3 6 13 3
21 -4 12 0 15 18 12 17 -2 25 -10 27 -29 3 -27 2 -27 -57 -27 -34 0 -61 4 -61
9 0 6 8 9 18 7 13 -2 18 5 20 30 4 41 22 42 22 1z m420 -9 c0 -22 -4 -40 -10
-40 -5 0 -10 14 -10 30 0 17 -5 30 -12 30 -9 0 -8 4 2 10 25 16 30 12 30 -30z
m57 26 c-16 -13 -16 -14 4 -19 30 -8 21 -42 -11 -42 -18 0 -26 6 -28 23 -4 27
14 52 37 52 14 -1 14 -2 -2 -14z m130 -1 c3 -9 -3 -25 -12 -35 -17 -19 -17
-20 3 -20 16 0 21 7 24 33 2 27 7 32 28 32 21 0 26 -5 28 -33 3 -33 4 -33 23
-16 23 21 28 54 4 34 -12 -10 -15 -10 -15 4 0 21 39 21 47 1 3 -9 -2 -24 -12
-35 -16 -17 -15 -19 7 -22 13 -3 -24 -5 -80 -5 l-104 -1 21 22 c25 27 30 56 6
36 -12 -10 -15 -10 -15 4 0 21 39 21 47 1z m195 -15 c5 -32 -9 -65 -19 -42 -2
6 -14 12 -25 12 -19 0 -19 1 2 30 27 38 37 38 42 0z m-682 -20 c0 -38 -19 -40
-21 -2 l-2 27 -4 -27 c-6 -37 -23 -36 -23 2 0 25 4 30 25 30 21 0 25 -5 25
-30z m30 4 c0 -14 4 -23 10 -19 6 3 10 14 10 24 0 15 10 18 70 19 49 1 70 -2
70 -11 0 -8 3 -8 9 2 5 7 14 12 19 10 7 -3 4 -19 -8 -47 -12 -26 -24 -41 -31
-37 -7 5 -8 10 0 18 7 7 7 16 0 29 -13 24 -29 23 -29 -2 0 -18 -6 -20 -67 -18
-66 3 -68 4 -71 31 -2 15 1 27 7 27 6 0 11 -12 11 -26z m370 -39 c0 -8 -4 -15
-10 -15 -5 0 -10 7 -10 15 0 8 5 15 10 15 6 0 10 -7 10 -15z m-2446 -356 c14
-11 26 -28 26 -37 0 -12 -4 -9 -13 8 -26 51 -106 49 -127 -2 -6 -17 -9 -18 -9
-6 -1 22 45 58 74 58 12 0 34 -9 49 -21z m4776 -2 c0 -8 -4 -7 -12 1 -8 8 -15
9 -25 1 -9 -8 -13 -8 -13 -1 0 13 21 21 38 14 6 -2 12 -9 12 -15z m-442 -12
c3 -24 -71 -101 -87 -91 -17 11 -13 31 12 52 l22 19 -19 -23 c-13 -15 -16 -26
-10 -32 14 -14 78 54 71 74 -10 25 -38 19 -74 -16 -35 -34 -41 -56 -21 -76 18
-18 49 -14 77 11 l26 22 -25 -28 c-33 -38 -80 -35 -94 6 -9 24 -6 32 29 68 44
44 88 51 93 14z m-4168 -17 c0 -5 -4 -8 -10 -8 -5 0 -10 10 -10 23 0 18 2 19
10 7 5 -8 10 -18 10 -22z m58 -15 c-1 -41 -2 -43 -5 -13 l-5 35 -14 -35 c-12
-27 -17 -32 -24 -20 -5 8 -10 20 -10 25 0 6 4 4 9 -4 7 -11 13 -6 25 22 8 20
17 37 20 37 4 0 5 -21 4 -47z m37 7 c-3 -5 1 -10 10 -10 10 0 13 5 9 12 -4 7
-3 8 4 4 19 -11 14 -26 -8 -26 -23 0 -27 -16 -5 -23 11 -4 10 -4 -2 -3 -20 1
-32 56 -13 56 6 0 8 -4 5 -10z m60 1 c-3 -5 4 -12 15 -16 11 -3 20 -11 20 -16
0 -15 -30 -23 -42 -11 -8 8 -4 9 13 6 l24 -5 -22 17 c-24 17 -30 34 -12 34 5
0 8 -4 4 -9z m60 -1 c-3 -5 -1 -10 6 -10 7 0 10 -3 6 -6 -9 -9 -28 6 -22 17 4
5 8 9 11 9 3 0 2 -4 -1 -10z m97 -20 c4 -26 1 -30 -19 -30 -27 0 -30 17 -5 41
9 10 18 18 18 18 1 1 4 -12 6 -29z m30 5 c-3 -19 0 -25 13 -25 13 0 16 6 13
25 -3 14 -1 25 3 25 5 0 9 -18 9 -40 0 -22 -5 -40 -11 -40 -5 0 -8 4 -5 9 3 5
-3 11 -14 14 -19 5 -27 36 -13 50 10 11 11 9 5 -18z m73 15 c-3 -5 1 -10 10
-10 10 0 13 5 9 12 -4 7 -3 8 4 4 19 -11 14 -26 -8 -26 -23 0 -27 -16 -5 -23
11 -4 10 -4 -2 -3 -20 1 -32 56 -13 56 6 0 8 -4 5 -10z m-428 -42 c-3 -7 -5
-2 -5 12 0 14 2 19 5 13 2 -7 2 -19 0 -25z m258 3 c-8 -13 -32 -14 -39 -2 -4
5 3 7 14 4 12 -3 20 0 20 8 0 7 3 10 6 6 3 -3 3 -10 -1 -16z m4365 7 c0 -5
-11 -8 -25 -8 -14 0 -25 3 -25 8 0 4 11 7 25 7 14 0 25 -3 25 -7z m-4848 -52
c34 -12 75 5 88 36 6 17 9 18 9 6 1 -22 -45 -58 -74 -58 -28 0 -75 36 -75 58
0 12 4 9 13 -8 7 -13 25 -29 39 -34z m4823 24 c13 0 31 8 41 17 13 13 16 14
12 3 -2 -8 -14 -19 -26 -25 -12 -5 -22 -14 -22 -20 0 -7 -3 -7 -8 0 -4 6 -16
15 -26 21 -11 6 -22 17 -25 25 -3 9 1 8 13 -4 10 -9 28 -17 41 -17z m-4780 13
c18 9 19 9 6 -6 -17 -22 -35 -22 -52 0 -13 15 -12 15 6 5 15 -7 26 -7 40 1z"/>
<path d="M258 5923 c7 -3 16 -2 19 1 4 3 -2 6 -13 5 -11 0 -14 -3 -6 -6z"/>
<path d="M214 5843 c4 -6 2 -14 -4 -18 -10 -6 9 -45 22 -45 14 0 9 36 -8 56
-8 10 -13 14 -10 7z"/>
<path d="M975 5960 c-7 -12 2 -30 16 -30 5 0 9 9 9 20 0 21 -15 27 -25 10z"/>
<path d="M650 5949 c0 -5 5 -7 10 -4 6 3 10 8 10 11 0 2 -4 4 -10 4 -5 0 -10
-5 -10 -11z"/>
<path d="M680 5929 c0 -5 5 -7 10 -4 6 3 10 8 10 11 0 2 -4 4 -10 4 -5 0 -10
-5 -10 -11z"/>
<path d="M1055 5930 c3 -5 8 -10 11 -10 2 0 4 5 4 10 0 6 -5 10 -11 10 -5 0
-7 -4 -4 -10z"/>
<path d="M6174 5926 c-12 -31 0 -51 31 -51 27 0 30 3 30 30 0 25 -4 30 -28 33
-17 2 -29 -2 -33 -12z"/>
<path d="M9930 5885 c-18 -19 -30 -38 -27 -42 8 -7 77 55 77 69 0 16 -17 7
-50 -27z"/>
<path d="M7430 5914 c0 -9 5 -14 12 -12 18 6 21 28 4 28 -9 0 -16 -7 -16 -16z"/>
<path d="M7430 5876 c0 -9 7 -16 16 -16 9 0 14 5 12 12 -6 18 -28 21 -28 4z"/>
<path d="M7520 5880 c0 -11 7 -20 15 -20 8 0 15 9 15 20 0 11 -7 20 -15 20 -8
0 -15 -9 -15 -20z"/>
<path d="M7870 5880 c0 -11 7 -20 15 -20 8 0 15 9 15 20 0 11 -7 20 -15 20 -8
0 -15 -9 -15 -20z"/>
<path d="M550 5800 c0 -13 5 -20 13 -17 6 2 12 10 12 17 0 7 -6 15 -12 18 -8
2 -13 -5 -13 -18z"/>
<path d="M3580 5619 c0 -5 5 -7 10 -4 6 3 10 8 10 11 0 2 -4 4 -10 4 -5 0 -10
-5 -10 -11z"/>
<path d="M3073 4809 c-16 -16 -5 -39 19 -39 14 0 18 5 14 16 -3 9 -6 20 -6 25
0 12 -14 11 -27 -2z"/>
<path d="M2988 4753 c7 -3 16 -2 19 1 4 3 -2 6 -13 5 -11 0 -14 -3 -6 -6z"/>
<path d="M4276 5322 c-3 -6 -1 -14 5 -17 15 -10 25 3 12 16 -7 7 -13 7 -17 1z"/>
<path d="M4151 5184 c0 -11 3 -14 6 -6 3 7 2 16 -1 19 -3 4 -6 -2 -5 -13z"/>
<path d="M4220 5190 c8 -5 20 -10 25 -10 6 0 3 5 -5 10 -8 5 -19 10 -25 10 -5
0 -3 -5 5 -10z"/>
<path d="M4209 5028 c0 -18 -2 -42 -4 -52 -5 -26 5 -42 16 -25 12 19 11 109
-1 109 -5 0 -10 -15 -11 -32z"/>
<path d="M4191 5004 c0 -11 3 -14 6 -6 3 7 2 16 -1 19 -3 4 -6 -2 -5 -13z"/>
<path d="M4180 4953 c0 -17 6 -36 14 -42 13 -11 13 -7 4 26 -13 49 -18 54 -18
16z"/>
<path d="M8932 5630 c0 -14 2 -19 5 -12 2 6 2 18 0 25 -3 6 -5 1 -5 -13z"/>
<path d="M8563 5585 c0 -33 2 -45 4 -27 2 18 2 45 0 60 -2 15 -4 0 -4 -33z"/>
<path d="M8580 5575 c0 -53 3 -65 16 -65 12 0 15 6 10 23 -3 12 -6 41 -6 65 0
23 -4 42 -10 42 -6 0 -10 -28 -10 -65z"/>
<path d="M8811 5624 c0 -11 3 -14 6 -6 3 7 2 16 -1 19 -3 4 -6 -2 -5 -13z"/>
<path d="M8861 5624 c0 -11 3 -14 6 -6 3 7 2 16 -1 19 -3 4 -6 -2 -5 -13z"/>
<path d="M8881 5624 c0 -11 3 -14 6 -6 3 7 2 16 -1 19 -3 4 -6 -2 -5 -13z"/>
<path d="M8900 5625 c0 -8 4 -15 10 -15 5 0 7 7 4 15 -4 8 -8 15 -10 15 -2 0
-4 -7 -4 -15z"/>
<path d="M9062 5620 c0 -14 2 -19 5 -12 2 6 2 18 0 25 -3 6 -5 1 -5 -13z"/>
<path d="M9080 5625 c0 -11 9 -15 30 -13 17 1 30 7 30 13 0 6 -13 12 -30 13
-21 2 -30 -2 -30 -13z"/>
<path d="M9150 5631 c0 -6 5 -13 10 -16 6 -3 10 1 10 9 0 9 -4 16 -10 16 -5 0
-10 -4 -10 -9z"/>
<path d="M8950 5619 c0 -5 5 -7 10 -4 6 3 10 8 10 11 0 2 -4 4 -10 4 -5 0 -10
-5 -10 -11z"/>
<path d="M8512 5570 c0 -14 2 -19 5 -12 2 6 2 18 0 25 -3 6 -5 1 -5 -13z"/>
<path d="M8732 5570 c0 -14 2 -19 5 -12 2 6 2 18 0 25 -3 6 -5 1 -5 -13z"/>
<path d="M8804 5579 c-3 -6 -1 -16 5 -22 8 -8 11 -5 11 11 0 24 -5 28 -16 11z"/>
<path d="M8854 5578 c-10 -16 6 -25 41 -23 l35 1 0 -46 c0 -45 0 -46 -32 -45
-40 2 -49 -2 -42 -18 2 -8 19 -13 37 -13 l32 1 6 -70 5 -70 2 73 c2 56 5 72
17 72 8 0 15 5 15 10 0 6 -7 10 -15 10 -11 0 -15 12 -15 49 0 46 1 48 25 46
15 -2 25 2 25 9 0 7 -6 13 -12 14 -79 7 -120 8 -124 0z"/>
<path d="M9048 5582 c-10 -2 -18 -10 -18 -17 0 -9 6 -12 15 -9 9 4 15 0 15
-10 0 -9 -7 -16 -15 -16 -8 0 -15 -5 -15 -11 0 -6 7 -9 15 -5 11 4 15 -2 15
-25 0 -24 -4 -30 -15 -25 -9 3 -15 0 -15 -8 0 -8 9 -16 20 -19 11 -3 20 0 20
6 0 8 3 8 8 2 13 -18 42 -14 42 6 0 15 -5 18 -25 15 -24 -4 -25 -3 -25 45 0
33 4 48 11 44 5 -4 22 -4 36 0 53 13 -13 39 -69 27z"/>
<path d="M8685 5570 c-3 -5 1 -10 10 -10 9 0 13 5 10 10 -3 6 -8 10 -10 10 -2
0 -7 -4 -10 -10z"/>
<path d="M8750 5570 c0 -5 9 -10 20 -10 11 0 20 5 20 10 0 6 -9 10 -20 10 -11
0 -20 -4 -20 -10z"/>
<path d="M9000 5571 c0 -6 5 -13 10 -16 6 -3 10 1 10 9 0 9 -4 16 -10 16 -5 0
-10 -4 -10 -9z"/>
<path d="M9080 5523 c0 -7 6 -13 14 -13 8 0 17 -6 19 -12 3 -7 6 -2 6 12 1 19
-4 26 -19 26 -11 0 -20 -6 -20 -13z"/>
<path d="M9150 5521 c0 -6 5 -13 10 -16 6 -3 10 1 10 9 0 9 -4 16 -10 16 -5 0
-10 -4 -10 -9z"/>
<path d="M8680 5455 c0 -8 7 -15 15 -15 8 0 15 7 15 15 0 8 -7 15 -15 15 -8 0
-15 -7 -15 -15z"/>
<path d="M8982 5450 c0 -14 2 -19 5 -12 2 6 2 18 0 25 -3 6 -5 1 -5 -13z"/>
<path d="M9006 5461 c-4 -7 -5 -15 -2 -18 9 -9 19 4 14 18 -4 11 -6 11 -12 0z"/>
<path d="M9156 5461 c-4 -7 -5 -15 -2 -18 9 -9 19 4 14 18 -4 11 -6 11 -12 0z"/>
<path d="M9208 5463 c-37 -6 -36 -20 2 -25 24 -4 30 -1 30 14 0 10 -1 17 -2
17 -2 -1 -15 -4 -30 -6z"/>
<path d="M8731 5444 c0 -11 3 -14 6 -6 3 7 2 16 -1 19 -3 4 -6 -2 -5 -13z"/>
<path d="M8750 5450 c0 -5 5 -10 10 -10 6 0 10 5 10 10 0 6 -4 10 -10 10 -5 0
-10 -4 -10 -10z"/>
<path d="M8800 5450 c0 -5 5 -10 10 -10 6 0 10 5 10 10 0 6 -4 10 -10 10 -5 0
-10 -4 -10 -10z"/>
<path d="M8347 5404 c-8 -8 1 -24 14 -24 5 0 9 7 9 15 0 15 -12 20 -23 9z"/>
<path d="M8380 5390 c0 -13 8 -16 41 -14 22 1 43 5 47 8 10 11 -6 18 -47 20
-33 2 -41 -1 -41 -14z"/>
<path d="M8510 5389 c0 -11 5 -16 13 -14 24 9 36 -11 40 -70 3 -57 3 -57 5 16
l2 77 -30 4 c-24 4 -30 1 -30 -13z"/>
<path d="M9225 5400 c-3 -5 -1 -10 4 -10 6 0 11 5 11 10 0 6 -2 10 -4 10 -3 0
-8 -4 -11 -10z"/>
<path d="M9280 5399 c0 -5 9 -9 20 -9 11 0 20 2 20 4 0 2 -9 6 -20 9 -11 3
-20 1 -20 -4z"/>
<path d="M9381 5394 c0 -11 3 -14 6 -6 3 7 2 16 -1 19 -3 4 -6 -2 -5 -13z"/>
<path d="M9411 5387 c0 -12 3 -16 6 -9 2 6 9 10 14 6 5 -3 9 -1 9 4 0 6 -7 12
-15 16 -11 4 -15 -1 -14 -17z"/>
<path d="M9450 5390 c0 -13 5 -17 20 -13 11 3 20 9 20 13 0 4 -9 10 -20 13
-15 4 -20 0 -20 -13z"/>
<path d="M9502 5390 c0 -14 2 -19 5 -12 2 6 2 18 0 25 -3 6 -5 1 -5 -13z"/>
<path d="M8296 5385 c4 -8 7 -15 9 -15 2 0 5 7 9 15 3 9 0 15 -9 15 -9 0 -12
-6 -9 -15z"/>
<path d="M8480 5390 c0 -5 5 -10 10 -10 6 0 10 5 10 10 0 6 -4 10 -10 10 -5 0
-10 -4 -10 -10z"/>
<path d="M8581 5158 c0 -128 4 -255 9 -283 5 -34 8 10 9 143 1 163 3 192 16
192 8 0 15 4 15 10 0 5 -7 7 -15 4 -13 -5 -15 6 -15 70 0 62 3 76 16 76 8 0
12 5 9 10 -3 6 -15 10 -26 10 -18 0 -19 -9 -18 -232z"/>
<path d="M7030 5355 c0 -3 12 -18 26 -33 l25 -27 -18 32 c-16 29 -33 43 -33
28z"/>
<path d="M7089 5335 c17 -33 31 -51 31 -40 0 6 -10 21 -21 35 -13 17 -17 18
-10 5z"/>
<path d="M7860 5335 c-6 -8 -14 -49 -16 -92 l-5 -78 50 -37 c39 -29 50 -44 53
-70 3 -33 3 -33 9 7 6 38 3 42 -43 85 l-48 46 8 77 c4 42 7 77 6 77 -1 0 -7
-7 -14 -15z"/>
<path d="M8074 5315 c3 -22 10 -65 17 -96 11 -54 11 -58 -13 -90 -14 -19 -25
-44 -24 -56 0 -22 16 -22 16 1 0 7 14 30 30 51 17 21 28 45 26 54 -3 9 -7 27
-10 41 -2 14 -9 36 -14 50 -5 14 -10 28 -11 32 -1 4 -6 18 -11 30 -8 19 -9 15
-6 -17z"/>
<path d="M8350 5340 c0 -5 5 -10 10 -10 6 0 10 5 10 10 0 6 -4 10 -10 10 -5 0
-10 -4 -10 -10z"/>
<path d="M8380 5340 c0 -5 5 -10 10 -10 6 0 10 5 10 10 0 6 -4 10 -10 10 -5 0
-10 -4 -10 -10z"/>
<path d="M8410 5338 c0 -4 7 -8 15 -8 8 0 15 4 15 8 0 5 -7 9 -15 9 -8 0 -15
-4 -15 -9z"/>
<path d="M8535 5340 c3 -5 8 -10 11 -10 2 0 4 5 4 10 0 6 -5 10 -11 10 -5 0
-7 -4 -4 -10z"/>
<path d="M9105 5341 c-3 -5 -1 -12 5 -16 5 -3 10 1 10 9 0 18 -6 21 -15 7z"/>
<path d="M9150 5340 c0 -5 5 -10 10 -10 6 0 10 5 10 10 0 6 -4 10 -10 10 -5 0
-10 -4 -10 -10z"/>
<path d="M9180 5340 c0 -5 5 -10 11 -10 5 0 7 5 4 10 -3 6 -8 10 -11 10 -2 0
-4 -4 -4 -10z"/>
<path d="M9226 5342 c-2 -4 -1 -14 5 -22 7 -12 9 -10 9 8 0 23 -5 28 -14 14z"/>
<path d="M9250 5343 c0 -5 5 -15 10 -23 8 -12 10 -11 10 8 0 12 -4 22 -10 22
-5 0 -10 -3 -10 -7z"/>
<path d="M9280 5336 c0 -9 7 -12 20 -9 11 3 20 9 20 14 0 5 -9 9 -20 9 -11 0
-20 -6 -20 -14z"/>
<path d="M9330 5338 c0 -4 9 -8 20 -8 11 0 20 4 20 9 0 6 -9 9 -20 8 -11 -1
-20 -5 -20 -9z"/>
<path d="M9380 5335 c0 -5 14 -10 30 -10 18 -1 30 4 30 12 0 9 -11 12 -30 11
-16 -1 -30 -7 -30 -13z"/>
<path d="M9450 5328 c0 -16 3 -18 14 -9 11 9 15 9 19 -1 3 -7 6 -4 6 7 1 14
-6 21 -19 22 -14 1 -20 -4 -20 -19z"/>
<path d="M9502 5330 c0 -14 2 -19 5 -12 2 6 2 18 0 25 -3 6 -5 1 -5 -13z"/>
<path d="M9526 5341 c-3 -4 -1 -13 5 -21 7 -13 9 -13 9 0 0 13 1 13 10 0 6
-10 10 -11 10 -2 0 6 1 15 3 19 3 9 -32 13 -37 4z"/>
<path d="M8003 5246 c1 -55 6 -81 15 -84 10 -3 12 9 8 55 -3 32 -10 70 -15 83
-8 20 -10 8 -8 -54z"/>
<path d="M7032 5290 c12 -19 28 -27 28 -14 0 7 -27 34 -34 34 -4 0 -1 -9 6
-20z"/>
<path d="M7085 5280 c3 -5 8 -10 11 -10 2 0 4 5 4 10 0 6 -5 10 -11 10 -5 0
-7 -4 -4 -10z"/>
<path d="M8380 5276 c0 -9 5 -16 10 -16 6 0 10 4 10 9 0 6 -4 13 -10 16 -5 3
-10 -1 -10 -9z"/>
<path d="M8855 5280 c-3 -5 -1 -10 4 -10 6 0 11 5 11 10 0 6 -2 10 -4 10 -3 0
-8 -4 -11 -10z"/>
<path d="M8904 5278 c-3 -5 1 -8 8 -9 66 -4 78 -3 78 6 0 12 -79 14 -86 3z"/>
<path d="M9030 5280 c0 -5 5 -10 11 -10 5 0 7 5 4 10 -3 6 -8 10 -11 10 -2 0
-4 -4 -4 -10z"/>
<path d="M9080 5279 c0 -4 9 -9 20 -12 12 -3 20 0 20 7 0 6 -9 12 -20 12 -11
0 -20 -3 -20 -7z"/>
<path d="M9150 5280 c0 -5 5 -10 10 -10 6 0 10 5 10 10 0 6 -4 10 -10 10 -5 0
-10 -4 -10 -10z"/>
<path d="M9224 5278 c-6 -9 -6 -9 24 -12 12 -2 22 3 22 10 0 14 -38 15 -46 2z"/>
<path d="M9285 5280 c-3 -5 3 -10 15 -10 12 0 18 5 15 10 -3 6 -10 10 -15 10
-5 0 -12 -4 -15 -10z"/>
<path d="M9330 5279 c0 -5 10 -9 22 -9 12 0 18 3 14 7 -10 11 -36 12 -36 2z"/>
<path d="M9380 5274 c0 -6 13 -9 30 -6 39 6 39 22 0 19 -16 -1 -30 -7 -30 -13z"/>
<path d="M9450 5274 c0 -7 8 -10 20 -7 11 3 20 8 20 12 0 4 -9 7 -20 7 -11 0
-20 -6 -20 -12z"/>
<path d="M9501 5274 c0 -11 3 -14 6 -6 3 7 2 16 -1 19 -3 4 -6 -2 -5 -13z"/>
<path d="M9531 5274 c0 -11 3 -14 6 -6 3 7 2 16 -1 19 -3 4 -6 -2 -5 -13z"/>
<path d="M8350 5270 c0 -5 5 -10 10 -10 6 0 10 5 10 10 0 6 -4 10 -10 10 -5 0
-10 -4 -10 -10z"/>
<path d="M8430 5270 c0 -5 5 -10 11 -10 5 0 7 5 4 10 -3 6 -8 10 -11 10 -2 0
-4 -4 -4 -10z"/>
<path d="M7140 5244 c1 -12 39 -61 40 -51 0 5 -9 20 -20 34 -11 14 -20 22 -20
17z"/>
<path d="M8561 5224 c0 -11 3 -14 6 -6 3 7 2 16 -1 19 -3 4 -6 -2 -5 -13z"/>
<path d="M7113 5179 c26 -29 47 -57 47 -61 0 -5 5 -8 11 -8 12 0 -77 113 -94
119 -6 2 10 -20 36 -50z"/>
<path d="M7120 5223 c0 -6 8 -17 18 -24 16 -13 16 -13 2 6 -8 11 -16 22 -17
24 -2 2 -3 0 -3 -6z"/>
<path d="M8350 5220 c0 -5 5 -10 11 -10 5 0 7 5 4 10 -3 6 -8 10 -11 10 -2 0
-4 -4 -4 -10z"/>
<path d="M8380 5214 c0 -8 5 -12 10 -9 6 4 8 11 5 16 -9 14 -15 11 -15 -7z"/>
<path d="M8410 5219 c0 -5 10 -9 22 -9 12 0 18 3 14 7 -10 11 -36 12 -36 2z"/>
<path d="M8511 5214 c0 -11 3 -14 6 -6 3 7 2 16 -1 19 -3 4 -6 -2 -5 -13z"/>
<path d="M8642 5220 c2 -6 7 -11 11 -11 4 1 19 1 34 1 34 0 24 10 -17 16 -22
4 -31 2 -28 -6z"/>
<path d="M8854 5218 c-3 -4 4 -8 15 -8 12 0 21 4 21 8 0 5 -7 9 -15 9 -9 0
-18 -4 -21 -9z"/>
<path d="M8904 5218 c-3 -5 1 -8 8 -9 66 -4 78 -3 78 6 0 12 -79 14 -86 3z"/>
<path d="M9030 5220 c0 -5 5 -10 11 -10 5 0 7 5 4 10 -3 6 -8 10 -11 10 -2 0
-4 -4 -4 -10z"/>
<path d="M9105 5221 c-3 -5 -1 -12 5 -16 5 -3 10 1 10 9 0 18 -6 21 -15 7z"/>
<path d="M9155 5220 c-3 -5 -1 -10 4 -10 6 0 11 5 11 10 0 6 -2 10 -4 10 -3 0
-8 -4 -11 -10z"/>
<path d="M9180 5220 c0 -5 5 -10 11 -10 5 0 7 5 4 10 -3 6 -8 10 -11 10 -2 0
-4 -4 -4 -10z"/>
<path d="M9224 5218 c-6 -9 -6 -9 24 -12 12 -2 22 3 22 10 0 14 -38 15 -46 2z"/>
<path d="M9380 5215 c0 -6 14 -10 30 -10 17 -1 30 4 30 10 0 5 -13 10 -30 10
-16 0 -30 -5 -30 -10z"/>
<path d="M9450 5215 c0 -8 8 -11 20 -8 11 3 20 7 20 8 0 1 -9 5 -20 8 -12 3
-20 0 -20 -8z"/>
<path d="M9501 5214 c0 -11 3 -14 6 -6 3 7 2 16 -1 19 -3 4 -6 -2 -5 -13z"/>
<path d="M9531 5214 c0 -11 3 -14 6 -6 3 7 2 16 -1 19 -3 4 -6 -2 -5 -13z"/>
<path d="M9580 5215 c0 -8 8 -11 20 -8 11 3 20 7 20 8 0 1 -9 5 -20 8 -12 3
-20 0 -20 -8z"/>
<path d="M8758 5213 c6 -2 18 -2 25 0 6 3 1 5 -13 5 -14 0 -19 -2 -12 -5z"/>
<path d="M9288 5213 c6 -2 18 -2 25 0 6 3 1 5 -13 5 -14 0 -19 -2 -12 -5z"/>
<path d="M9330 5211 c0 -5 9 -7 20 -4 11 3 20 7 20 9 0 2 -9 4 -20 4 -11 0
-20 -4 -20 -9z"/>
<path d="M7162 5161 c6 -10 17 -17 25 -14 7 3 10 9 7 14 -3 5 -10 7 -15 4 -5
-4 -9 -1 -9 4 0 6 -5 11 -10 11 -6 0 -6 -7 2 -19z"/>
<path d="M8380 5161 c0 -12 5 -21 10 -21 6 0 10 6 10 14 0 8 -4 18 -10 21 -5
3 -10 -3 -10 -14z"/>
<path d="M8410 5160 c0 -11 6 -17 17 -16 25 4 27 23 3 29 -15 4 -20 0 -20 -13z"/>
<path d="M8510 5157 c0 -15 3 -16 20 -7 11 6 25 8 30 5 6 -3 10 0 10 7 0 8
-12 13 -30 13 -22 0 -30 -5 -30 -18z"/>
<path d="M8958 5173 c-16 -3 -28 -11 -28 -19 0 -11 4 -12 18 -5 13 7 23 6 30
-1 9 -9 12 -7 12 10 0 12 -1 21 -2 21 -2 -1 -15 -4 -30 -6z"/>
<path d="M9450 5175 c0 -6 -25 -9 -60 -8 -47 2 -60 0 -60 -12 0 -12 13 -14 60
-12 33 1 60 -1 60 -5 0 -4 10 -4 23 1 12 4 39 6 61 4 29 -4 37 -1 34 9 -3 7
-17 12 -31 11 -16 -1 -27 3 -27 10 0 8 -3 8 -8 2 -4 -5 -14 -10 -22 -10 -8 0
-18 5 -22 10 -5 7 -8 7 -8 0z"/>
<path d="M9630 5171 c0 -5 -11 -6 -25 -3 -19 3 -25 0 -25 -14 0 -17 8 -19 70
-19 66 0 70 1 70 23 0 22 -14 30 -25 13 -3 -6 -17 -6 -35 -1 -17 5 -30 5 -30
1z"/>
<path d="M8350 5155 c0 -8 5 -15 10 -15 6 0 10 7 10 15 0 8 -4 15 -10 15 -5 0
-10 -7 -10 -15z"/>
<path d="M8640 5161 c0 -5 7 -11 15 -15 8 -3 15 -1 15 4 0 5 6 7 14 4 8 -3 17
-1 21 5 4 7 -7 11 -29 11 -20 0 -36 -4 -36 -9z"/>
<path d="M8857 5153 c4 -9 8 -12 10 -6 2 6 15 9 29 7 13 -2 24 0 24 6 0 5 -16
10 -35 10 -28 0 -33 -3 -28 -17z"/>
<path d="M9005 5160 c3 -5 8 -10 11 -10 2 0 4 5 4 10 0 6 -5 10 -11 10 -5 0
-7 -4 -4 -10z"/>
<path d="M9100 5161 c0 -6 5 -13 10 -16 6 -3 10 1 10 9 0 9 -4 16 -10 16 -5 0
-10 -4 -10 -9z"/>
<path d="M9150 5155 c0 -8 5 -15 10 -15 6 0 10 7 10 15 0 8 -4 15 -10 15 -5 0
-10 -7 -10 -15z"/>
<path d="M9180 5154 c0 -8 5 -12 10 -9 6 3 10 10 10 16 0 5 -4 9 -10 9 -5 0
-10 -7 -10 -16z"/>
<path d="M9222 5158 c6 -18 48 -21 48 -3 0 9 -10 15 -26 15 -15 0 -24 -5 -22
-12z"/>
<path d="M9280 5155 c0 -8 9 -15 20 -15 11 0 20 7 20 15 0 8 -9 15 -20 15 -11
0 -20 -7 -20 -15z"/>
<path d="M9452 5095 c0 -16 2 -22 5 -12 2 9 2 23 0 30 -3 6 -5 -1 -5 -18z"/>
<path d="M9630 5110 c0 -4 -11 -5 -25 -2 -18 3 -25 0 -25 -11 0 -12 10 -16 39
-15 22 0 44 -3 50 -6 7 -4 11 1 11 12 0 13 -9 21 -25 24 -14 3 -25 2 -25 -2z"/>
<path d="M9700 5110 c-13 -8 -13 -11 3 -27 16 -16 17 -16 17 10 0 30 0 30 -20
17z"/>
<path d="M8381 5094 c0 -11 3 -14 6 -6 3 7 2 16 -1 19 -3 4 -6 -2 -5 -13z"/>
<path d="M9111 5094 c0 -11 3 -14 6 -6 3 7 2 16 -1 19 -3 4 -6 -2 -5 -13z"/>
<path d="M9150 5101 c0 -6 5 -13 10 -16 6 -3 10 1 10 9 0 9 -4 16 -10 16 -5 0
-10 -4 -10 -9z"/>
<path d="M9180 5094 c0 -8 5 -12 10 -9 6 4 8 11 5 16 -9 14 -15 11 -15 -7z"/>
<path d="M9220 5095 c0 -8 5 -15 10 -15 6 0 10 7 10 15 0 8 -4 15 -10 15 -5 0
-10 -7 -10 -15z"/>
<path d="M9250 5095 c0 -8 5 -15 10 -15 6 0 10 7 10 15 0 8 -4 15 -10 15 -5 0
-10 -7 -10 -15z"/>
<path d="M9280 5095 c0 -8 9 -15 20 -15 11 0 20 7 20 15 0 8 -9 15 -20 15 -11
0 -20 -7 -20 -15z"/>
<path d="M9330 5094 c0 -10 15 -14 55 -14 42 0 55 4 55 15 0 11 -13 14 -55 14
-40 -1 -55 -5 -55 -15z"/>
<path d="M9470 5095 c0 -8 5 -15 10 -15 6 0 10 7 10 15 0 8 -4 15 -10 15 -5 0
-10 -7 -10 -15z"/>
<path d="M9501 5094 c0 -11 3 -14 6 -6 3 7 2 16 -1 19 -3 4 -6 -2 -5 -13z"/>
<path d="M9530 5095 c0 -10 7 -15 18 -13 21 4 19 22 -2 26 -10 2 -16 -3 -16
-13z"/>
<path d="M8510 5050 c0 -5 5 -10 11 -10 5 0 7 5 4 10 -3 6 -8 10 -11 10 -2 0
-4 -4 -4 -10z"/>
<path d="M8790 5050 l-75 -5 70 -7 c39 -5 155 -8 259 -8 l188 0 -4 -30 c-3
-17 -1 -33 4 -36 4 -3 8 12 8 33 l0 38 45 0 c25 0 45 -2 45 -5 0 -3 26 -3 58
0 31 3 101 3 155 0 55 -3 101 -2 103 1 4 8 49 4 63 -6 6 -3 11 1 11 9 0 12
-10 16 -37 16 -303 4 -835 4 -893 0z"/>
<path d="M7271 5045 c4 -3 55 -15 115 -25 60 -11 120 -22 134 -26 64 -16 152
-45 173 -56 12 -6 28 -13 35 -14 30 -5 48 -33 44 -68 -4 -35 20 -77 36 -62 3
4 0 11 -8 16 -8 5 -11 12 -8 15 13 14 43 -20 43 -47 -1 -16 3 -28 7 -28 4 0 8
3 9 8 0 4 2 21 4 37 3 22 -4 40 -25 67 -17 20 -30 42 -30 48 0 14 -25 40 -39
40 -6 0 -26 9 -46 20 -20 11 -44 20 -53 20 -10 0 -22 4 -27 9 -9 7 -104 23
-225 36 -25 3 -67 8 -95 11 -27 3 -47 3 -44 -1z m534 -184 c0 -6 7 -16 15 -21
8 -5 11 -10 5 -10 -18 0 -39 18 -41 35 -1 9 3 14 9 12 7 -2 12 -9 12 -16z"/>
<path d="M8648 5043 c7 -3 16 -2 19 1 4 3 -2 6 -13 5 -11 0 -14 -3 -6 -6z"/>
<path d="M8623 4973 c9 -2 25 -2 35 0 9 3 1 5 -18 5 -19 0 -27 -2 -17 -5z"/>
<path d="M8898 4973 c12 -2 32 -2 45 0 12 2 2 4 -23 4 -25 0 -35 -2 -22 -4z"/>
<path d="M8975 4970 c3 -5 8 -10 11 -10 2 0 4 5 4 10 0 6 -5 10 -11 10 -5 0
-7 -4 -4 -10z"/>
<path d="M9088 4973 c6 -2 18 -2 25 0 6 3 1 5 -13 5 -14 0 -19 -2 -12 -5z"/>
<path d="M9288 4973 c6 -2 18 -2 25 0 6 3 1 5 -13 5 -14 0 -19 -2 -12 -5z"/>
<path d="M9330 4970 c0 -5 7 -7 15 -4 8 4 15 8 15 10 0 2 -7 4 -15 4 -8 0 -15
-4 -15 -10z"/>
<path d="M9380 4970 c0 -5 7 -7 15 -4 8 4 15 8 15 10 0 2 -7 4 -15 4 -8 0 -15
-4 -15 -10z"/>
<path d="M9538 4973 c7 -3 16 -2 19 1 4 3 -2 6 -13 5 -11 0 -14 -3 -6 -6z"/>
<path d="M8808 4913 c7 -3 16 -2 19 1 4 3 -2 6 -13 5 -11 0 -14 -3 -6 -6z"/>
<path d="M7407 4879 c6 -6 29 -13 50 -15 44 -3 26 10 -27 20 -26 5 -32 4 -23
-5z"/>
<path d="M8515 4860 c-3 -5 -1 -10 4 -10 6 0 11 5 11 10 0 6 -2 10 -4 10 -3 0
-8 -4 -11 -10z"/>
<path d="M7575 4835 c58 -20 79 -33 41 -26 -4 1 -43 9 -85 17 -98 19 -308 30
-271 13 14 -6 72 -17 130 -26 112 -15 202 -42 231 -69 20 -18 35 -90 25 -121
-7 -22 -88 -53 -140 -53 -22 0 -35 -4 -31 -10 12 -20 76 -10 145 23 54 25 69
37 70 54 0 12 -4 25 -10 28 -5 3 -10 30 -11 58 -1 75 -23 108 -85 124 -79 20
-85 13 -9 -12z"/>
<path d="M8854 4798 c-3 -5 21 -8 52 -8 32 0 54 3 51 6 -9 10 -98 11 -103 2z"/>
<path d="M8974 4798 c-3 -4 6 -8 20 -8 14 0 26 4 26 8 0 4 -9 8 -21 8 -11 0
-23 -4 -25 -8z"/>
<path d="M9054 4799 c-6 -10 6 -15 36 -14 14 0 25 5 25 10 0 11 -54 14 -61 4z"/>
<path d="M9165 4800 c-18 -8 -17 -9 8 -9 16 -1 26 3 22 9 -3 6 -7 10 -8 9 -1
0 -11 -4 -22 -9z"/>
<path d="M9225 4800 c-3 -5 1 -10 10 -10 9 0 13 5 10 10 -3 6 -8 10 -10 10 -2
0 -7 -4 -10 -10z"/>
<path d="M7523 4748 c-23 -30 -26 -42 -5 -24 21 18 23 18 42 1 21 -19 28 -65
9 -65 -6 0 -8 8 -5 18 8 24 -9 46 -28 39 -18 -7 -22 -62 -6 -72 6 -4 8 -11 4
-16 -3 -6 -12 -5 -22 3 -13 11 -14 11 -10 -2 7 -24 57 -24 82 -1 19 18 23 38
17 82 -1 3 -10 15 -21 27 -23 25 -43 28 -57 10z"/>
<path d="M9098 4753 c-21 -5 -24 -23 -4 -23 8 0 17 -8 19 -17 3 -10 5 -3 6 15
0 17 0 31 -1 31 -2 -1 -11 -3 -20 -6z"/>
<path d="M8510 4739 c0 -5 5 -7 10 -4 6 3 10 8 10 11 0 2 -4 4 -10 4 -5 0 -10
-5 -10 -11z"/>
<path d="M8591 4734 c0 -11 3 -14 6 -6 3 7 2 16 -1 19 -3 4 -6 -2 -5 -13z"/>
<path d="M9150 4740 c0 -5 5 -10 11 -10 5 0 7 5 4 10 -3 6 -8 10 -11 10 -2 0
-4 -4 -4 -10z"/>
<path d="M9180 4740 c0 -5 5 -10 11 -10 5 0 7 5 4 10 -3 6 -8 10 -11 10 -2 0
-4 -4 -4 -10z"/>
<path d="M9225 4740 c-3 -5 -1 -10 4 -10 6 0 11 5 11 10 0 6 -2 10 -4 10 -3 0
-8 -4 -11 -10z"/>
<path d="M7026 4711 c-4 -6 -2 -11 4 -11 6 0 35 -22 63 -49 29 -27 70 -57 92
-67 22 -10 44 -20 49 -22 4 -2 5 6 2 19 -7 22 -6 23 5 4 7 -11 12 -21 13 -22
1 -1 13 -4 29 -8 17 -5 27 -3 27 4 0 6 -7 11 -15 11 -8 0 -21 16 -30 35 -28
58 -76 86 -152 90 -37 2 -69 8 -73 15 -5 9 -9 9 -14 1z m128 -42 c4 -3 3 -16
-2 -28 l-8 -22 -27 21 c-15 12 -27 24 -27 28 0 9 56 9 64 1z"/>
<path d="M6895 4690 c45 -18 94 -87 79 -111 -3 -5 -14 -9 -25 -9 -18 0 -20 -4
-14 -32 9 -42 9 -42 37 -24 20 13 31 14 88 1 36 -7 78 -18 93 -24 42 -16 42
-14 -4 30 -26 25 -47 38 -57 34 -10 -4 -29 8 -52 32 -69 73 -119 113 -142 112
-22 0 -22 -1 -3 -9z"/>
<path d="M8594 4425 c0 -154 2 -216 3 -137 2 79 2 205 0 280 -1 75 -3 11 -3
-143z"/>
<path d="M8263 4683 c26 -2 67 -2 90 0 23 2 2 3 -48 3 -49 0 -68 -1 -42 -3z"/>
<path d="M9090 4686 c0 -2 7 -6 15 -10 8 -3 15 -1 15 4 0 6 -7 10 -15 10 -8 0
-15 -2 -15 -4z"/>
<path d="M9225 4680 c3 -5 8 -10 11 -10 2 0 4 5 4 10 0 6 -5 10 -11 10 -5 0
-7 -4 -4 -10z"/>
<path d="M9380 4654 c0 -5 -72 -9 -161 -9 -88 0 -163 -3 -166 -7 -4 -7 34 -9
252 -10 120 -1 137 1 130 12 -4 6 -11 8 -16 4 -5 -3 -16 0 -24 6 -8 7 -15 9
-15 4z"/>
<path d="M8510 4640 c0 -5 5 -10 10 -10 6 0 10 5 10 10 0 6 -4 10 -10 10 -5 0
-10 -4 -10 -10z"/>
<path d="M8655 4640 c-3 -5 -1 -10 4 -10 6 0 11 5 11 10 0 6 -2 10 -4 10 -3 0
-8 -4 -11 -10z"/>
<path d="M8685 4640 c-3 -5 -1 -10 4 -10 6 0 11 5 11 10 0 6 -2 10 -4 10 -3 0
-8 -4 -11 -10z"/>
<path d="M8805 4640 c-3 -5 -1 -10 4 -10 6 0 11 5 11 10 0 6 -2 10 -4 10 -3 0
-8 -4 -11 -10z"/>
<path d="M8854 4638 c-5 -8 16 -10 96 -10 79 0 93 2 87 9 -9 9 -178 10 -183 1z"/>
<path d="M9450 4638 c0 -5 28 -8 62 -8 34 0 58 3 54 7 -10 10 -116 10 -116 1z"/>
<path d="M7716 4601 c-10 -16 6 -42 21 -37 8 3 19 6 24 6 6 0 5 8 -1 20 -11
21 -35 27 -44 11z"/>
<path d="M8093 4600 c-28 -11 -30 -20 -4 -20 10 0 21 7 25 15 3 8 4 15 3 14
-1 0 -12 -4 -24 -9z"/>
<path d="M8860 4590 c0 -5 7 -7 15 -4 8 4 15 8 15 10 0 2 -7 4 -15 4 -8 0 -15
-4 -15 -10z"/>
<path d="M8900 4591 c0 -4 12 -7 26 -5 38 4 42 14 6 14 -18 0 -32 -4 -32 -9z"/>
<path d="M8975 4590 c3 -5 8 -10 11 -10 2 0 4 5 4 10 0 6 -5 10 -11 10 -5 0
-7 -4 -4 -10z"/>
<path d="M9060 4591 c0 -4 12 -7 26 -5 38 4 42 14 6 14 -18 0 -32 -4 -32 -9z"/>
<path d="M9144 4592 c6 -10 42 -9 52 1 4 4 -7 7 -25 7 -18 0 -30 -4 -27 -8z"/>
<path d="M9225 4590 c4 -6 11 -8 16 -5 14 9 11 15 -7 15 -8 0 -12 -5 -9 -10z"/>
<path d="M9264 4593 c10 -10 176 -11 176 -1 0 5 -41 8 -92 8 -50 0 -88 -3 -84
-7z"/>
<path d="M9475 4590 c3 -5 13 -10 21 -10 8 0 14 5 14 10 0 6 -9 10 -21 10 -11
0 -17 -4 -14 -10z"/>
<path d="M9530 4592 c0 -5 7 -9 15 -9 8 0 15 4 15 9 0 4 -7 8 -15 8 -8 0 -15
-4 -15 -8z"/>
<path d="M9580 4590 c0 -5 9 -10 20 -10 11 0 20 5 20 10 0 6 -9 10 -20 10 -11
0 -20 -4 -20 -10z"/>
<path d="M7645 4580 c-3 -6 1 -7 9 -4 18 7 21 14 7 14 -6 0 -13 -4 -16 -10z"/>
<path d="M8900 4540 c0 -5 15 -10 33 -10 24 0 28 3 17 10 -20 13 -50 13 -50 0z"/>
<path d="M9085 4540 c-4 -6 3 -10 14 -10 25 0 27 6 6 13 -8 4 -17 2 -20 -3z"/>
<path d="M9225 4540 c-3 -5 -1 -10 4 -10 6 0 11 5 11 10 0 6 -2 10 -4 10 -3 0
-8 -4 -11 -10z"/>
<path d="M9280 4539 c0 -5 10 -9 22 -9 12 0 18 3 14 7 -10 11 -36 12 -36 2z"/>
<path d="M9350 4540 c0 -5 5 -10 10 -10 6 0 10 5 10 10 0 6 -4 10 -10 10 -5 0
-10 -4 -10 -10z"/>
<path d="M9380 4534 c0 -8 5 -12 10 -9 6 3 10 10 10 16 0 5 -4 9 -10 9 -5 0
-10 -7 -10 -16z"/>
<path d="M9475 4540 c-3 -5 -1 -10 4 -10 6 0 11 5 11 10 0 6 -2 10 -4 10 -3 0
-8 -4 -11 -10z"/>
<path d="M9524 4538 c-3 -4 4 -8 15 -8 12 0 21 4 21 8 0 5 -7 9 -15 9 -9 0
-18 -4 -21 -9z"/>
<path d="M9580 4540 c0 -6 7 -10 15 -10 8 0 15 2 15 4 0 2 -7 6 -15 10 -8 3
-15 1 -15 -4z"/>
<path d="M9030 4495 c0 -6 9 -11 20 -11 11 0 20 5 20 11 0 6 -9 11 -20 11 -11
0 -20 -5 -20 -11z"/>
<path d="M9380 4494 c0 -8 5 -12 10 -9 6 4 8 11 5 16 -9 14 -15 11 -15 -7z"/>
<path d="M8860 4496 c0 -8 48 -12 66 -5 13 5 7 8 -23 8 -24 1 -43 -1 -43 -3z"/>
<path d="M9088 4493 c6 -2 18 -2 25 0 6 3 1 5 -13 5 -14 0 -19 -2 -12 -5z"/>
<path d="M9225 4490 c3 -5 8 -10 11 -10 2 0 4 5 4 10 0 6 -5 10 -11 10 -5 0
-7 -4 -4 -10z"/>
<path d="M9280 4491 c0 -10 26 -9 36 2 4 4 -2 7 -14 7 -12 0 -22 -4 -22 -9z"/>
<path d="M9350 4489 c0 -5 5 -7 10 -4 6 3 10 8 10 11 0 2 -4 4 -10 4 -5 0 -10
-5 -10 -11z"/>
<path d="M9525 4490 c3 -5 8 -10 11 -10 2 0 4 5 4 10 0 6 -5 10 -11 10 -5 0
-7 -4 -4 -10z"/>
<path d="M9580 4492 c0 -5 7 -9 15 -9 8 0 15 4 15 9 0 4 -7 8 -15 8 -8 0 -15
-4 -15 -8z"/>
<path d="M8900 4440 c0 -5 9 -10 20 -10 11 0 20 5 20 10 0 6 -9 10 -20 10 -11
0 -20 -4 -20 -10z"/>
<path d="M9085 4440 c-3 -5 -1 -10 4 -10 6 0 11 5 11 10 0 6 -2 10 -4 10 -3 0
-8 -4 -11 -10z"/>
<path d="M9180 4440 c0 -5 5 -10 11 -10 5 0 7 5 4 10 -3 6 -8 10 -11 10 -2 0
-4 -4 -4 -10z"/>
<path d="M9220 4440 c0 -5 5 -10 10 -10 6 0 10 5 10 10 0 6 -4 10 -10 10 -5 0
-10 -4 -10 -10z"/>
<path d="M9280 4438 c0 -4 9 -8 20 -8 11 0 20 4 20 9 0 6 -9 9 -20 8 -11 -1
-20 -5 -20 -9z"/>
<path d="M9350 4440 c0 -5 5 -10 10 -10 6 0 10 5 10 10 0 6 -4 10 -10 10 -5 0
-10 -4 -10 -10z"/>
<path d="M9380 4440 c0 -5 5 -10 11 -10 5 0 7 5 4 10 -3 6 -8 10 -11 10 -2 0
-4 -4 -4 -10z"/>
<path d="M9580 4440 c0 -5 9 -10 21 -10 11 0 17 5 14 10 -3 6 -13 10 -21 10
-8 0 -14 -4 -14 -10z"/>
<path d="M8851 4406 c9 -9 90 -13 95 -5 3 5 -18 9 -47 9 -29 0 -50 -2 -48 -4z"/>
<path d="M9060 4401 c0 -5 9 -7 20 -4 11 3 20 7 20 9 0 2 -9 4 -20 4 -11 0
-20 -4 -20 -9z"/>
<path d="M9178 4403 c7 -3 16 -2 19 1 4 3 -2 6 -13 5 -11 0 -14 -3 -6 -6z"/>
<path d="M9225 4400 c3 -5 8 -10 11 -10 2 0 4 5 4 10 0 6 -5 10 -11 10 -5 0
-7 -4 -4 -10z"/>
<path d="M9280 4400 c0 -5 9 -10 20 -10 11 0 20 5 20 10 0 6 -9 10 -20 10 -11
0 -20 -4 -20 -10z"/>
<path d="M9350 4400 c0 -5 5 -10 10 -10 6 0 10 5 10 10 0 6 -4 10 -10 10 -5 0
-10 -4 -10 -10z"/>
<path d="M9525 4400 c3 -5 8 -10 11 -10 2 0 4 5 4 10 0 6 -5 10 -11 10 -5 0
-7 -4 -4 -10z"/>
<path d="M9580 4400 c0 -5 6 -10 14 -10 8 0 18 5 21 10 3 6 -3 10 -14 10 -12
0 -21 -4 -21 -10z"/>
<path d="M9660 4400 c0 -13 11 -13 30 0 12 8 11 10 -7 10 -13 0 -23 -4 -23
-10z"/>
<path d="M8900 4366 c0 -2 9 -6 20 -9 11 -3 20 -1 20 4 0 5 -9 9 -20 9 -11 0
-20 -2 -20 -4z"/>
<path d="M9098 4363 c23 -2 59 -2 80 0 20 2 1 4 -43 4 -44 0 -61 -2 -37 -4z"/>
<path d="M9224 4362 c5 -8 96 -6 104 3 3 3 -20 5 -52 5 -31 0 -55 -4 -52 -8z"/>
<path d="M9388 4363 c23 -2 61 -2 85 0 23 2 4 4 -43 4 -47 0 -66 -2 -42 -4z"/>
<path d="M9538 4363 c7 -3 16 -2 19 1 4 3 -2 6 -13 5 -11 0 -14 -3 -6 -6z"/>
<path d="M9580 4361 c0 -5 9 -7 20 -4 11 3 20 7 20 9 0 2 -9 4 -20 4 -11 0
-20 -4 -20 -9z"/>
<path d="M9643 4363 c9 -2 23 -2 30 0 6 3 -1 5 -18 5 -16 0 -22 -2 -12 -5z"/>
<path d="M9690 4366 c0 -2 7 -6 15 -10 8 -3 15 -1 15 4 0 6 -7 10 -15 10 -8 0
-15 -2 -15 -4z"/>
<path d="M8925 4320 c-3 -5 -1 -10 4 -10 6 0 11 5 11 10 0 6 -2 10 -4 10 -3 0
-8 -4 -11 -10z"/>
<path d="M9055 4320 c-3 -5 1 -10 10 -10 9 0 13 5 10 10 -3 6 -8 10 -10 10 -2
0 -7 -4 -10 -10z"/>
<path d="M9225 4320 c-3 -5 -1 -10 4 -10 6 0 11 5 11 10 0 6 -2 10 -4 10 -3 0
-8 -4 -11 -10z"/>
<path d="M9277 4324 c-12 -12 3 -22 23 -17 11 3 17 9 14 14 -6 10 -28 12 -37
3z"/>
<path d="M9488 4313 c7 -3 16 -2 19 1 4 3 -2 6 -13 5 -11 0 -14 -3 -6 -6z"/>
<path d="M9578 4313 c7 -3 16 -2 19 1 4 3 -2 6 -13 5 -11 0 -14 -3 -6 -6z"/>
<path d="M8925 4270 c3 -5 8 -10 11 -10 2 0 4 5 4 10 0 6 -5 10 -11 10 -5 0
-7 -4 -4 -10z"/>
<path d="M9280 4271 c0 -5 9 -7 20 -4 11 3 20 7 20 9 0 2 -9 4 -20 4 -11 0
-20 -4 -20 -9z"/>
<path d="M9580 4270 c0 -5 5 -10 11 -10 5 0 7 5 4 10 -3 6 -8 10 -11 10 -2 0
-4 -4 -4 -10z"/>
<path d="M9058 4213 c7 -3 16 -2 19 1 4 3 -2 6 -13 5 -11 0 -14 -3 -6 -6z"/>
<path d="M9193 4214 c7 -7 318 -6 326 1 2 3 -71 5 -164 5 -93 0 -165 -3 -162
-6z"/>
<path d="M9575 4210 c4 -6 11 -8 16 -5 14 9 11 15 -7 15 -8 0 -12 -5 -9 -10z"/>
<path d="M9278 4153 c7 -3 16 -2 19 1 4 3 -2 6 -13 5 -11 0 -14 -3 -6 -6z"/>
<path d="M9578 4153 c7 -3 16 -2 19 1 4 3 -2 6 -13 5 -11 0 -14 -3 -6 -6z"/>
<path d="M7863 4143 c10 -9 106 -10 100 -1 -2 5 -27 8 -55 8 -28 0 -48 -3 -45
-7z"/>
<path d="M9580 4090 c0 -5 5 -10 10 -10 6 0 10 5 10 10 0 6 -4 10 -10 10 -5 0
-10 -4 -10 -10z"/>
<path d="M7860 3905 c-53 -11 -130 -51 -130 -68 0 -18 33 -18 70 2 22 12 51
21 63 21 13 0 33 9 45 20 22 20 29 41 15 39 -5 -1 -33 -7 -63 -14z m10 -19 c0
-3 -4 -8 -10 -11 -5 -3 -10 -1 -10 4 0 6 5 11 10 11 6 0 10 -2 10 -4z"/>
<path d="M7070 3880 c0 -5 5 -10 10 -10 6 0 10 5 10 10 0 6 -4 10 -10 10 -5 0
-10 -4 -10 -10z"/>
<path d="M7127 3859 c7 -7 15 -10 18 -7 3 3 -2 9 -12 12 -14 6 -15 5 -6 -5z"/>
<path d="M7180 3840 c8 -5 22 -9 30 -9 10 0 8 3 -5 9 -27 12 -43 12 -25 0z"/>
<path d="M7245 3817 c11 -8 40 -17 65 -20 l45 -6 -44 14 c-24 8 -53 17 -65 21
-21 6 -21 6 -1 -9z"/>
<path d="M7376 3775 c10 -7 22 -11 26 -9 15 9 88 -17 109 -39 12 -12 29 -39
39 -60 11 -24 20 -34 25 -27 14 23 -32 157 -49 140 -12 -12 -93 -14 -100 -2
-3 5 -19 9 -37 10 -28 1 -29 0 -13 -13z"/>
<path d="M7684 3705 c1 -14 6 -28 9 -32 4 -3 7 -17 7 -30 0 -32 24 -25 28 8 2
13 10 31 18 40 18 20 0 39 -37 39 -24 0 -27 -4 -25 -25z"/>
<path d="M8793 2973 c42 -2 112 -2 155 0 42 1 7 3 -78 3 -85 0 -120 -2 -77 -3z"/>
<path d="M8893 2943 c26 -2 67 -2 90 0 23 2 2 3 -48 3 -49 0 -68 -1 -42 -3z"/>
<path d="M4555 4910 c3 -5 10 -10 16 -10 5 0 9 5 9 10 0 6 -7 10 -16 10 -8 0
-12 -4 -9 -10z"/>
<path d="M3540 4645 c0 -8 9 -15 20 -15 11 0 20 7 20 15 0 8 -9 15 -20 15 -11
0 -20 -7 -20 -15z"/>
<path d="M3900 4645 c0 -8 7 -15 15 -15 8 0 15 7 15 15 0 8 -7 15 -15 15 -8 0
-15 -7 -15 -15z"/>
<path d="M4020 4646 c0 -8 7 -16 15 -20 8 -3 15 -1 15 5 0 6 5 7 10 4 6 -3 10
1 10 9 0 10 -9 16 -25 16 -15 0 -25 -6 -25 -14z"/>
<path d="M4602 4643 c2 -10 10 -18 18 -18 8 0 16 8 18 18 2 12 -3 17 -18 17
-15 0 -20 -5 -18 -17z"/>
<path d="M4854 4649 c-3 -6 -2 -15 4 -21 13 -13 32 -2 32 18 0 16 -26 19 -36
3z"/>
<path d="M4500 4647 c0 -19 10 -27 26 -20 21 8 17 33 -6 33 -11 0 -20 -6 -20
-13z"/>
<path d="M4960 4650 c0 -5 7 -10 15 -10 8 0 15 5 15 10 0 6 -7 10 -15 10 -8 0
-15 -4 -15 -10z"/>
<path d="M5060 4640 c0 -5 5 -10 10 -10 6 0 10 5 10 10 0 6 -4 10 -10 10 -5 0
-10 -4 -10 -10z"/>
<path d="M5839 4273 c-13 -16 -12 -17 4 -4 16 13 21 21 13 21 -2 0 -10 -8 -17
-17z"/>
<path d="M1242 3830 c0 -14 2 -19 5 -12 2 6 2 18 0 25 -3 6 -5 1 -5 -13z"/>
<path d="M1272 3830 c0 -14 2 -19 5 -12 2 6 2 18 0 25 -3 6 -5 1 -5 -13z"/>
<path d="M1300 3830 c0 -11 5 -20 10 -20 6 0 10 9 10 20 0 11 -4 20 -10 20 -5
0 -10 -9 -10 -20z"/>
<path d="M1340 3826 c0 -2 7 -7 16 -10 8 -3 12 -2 9 4 -6 10 -25 14 -25 6z"/>
<path d="M1825 3837 c-4 -10 -5 -21 -1 -24 10 -10 18 4 13 24 -4 17 -4 17 -12
0z"/>
<path d="M2035 3837 c-4 -10 -5 -21 -1 -24 10 -10 18 4 13 24 -4 17 -4 17 -12
0z"/>
<path d="M2175 3840 c-9 -15 4 -30 20 -23 8 3 15 9 15 13 0 12 -29 20 -35 10z"/>
<path d="M2230 3830 c0 -11 5 -20 10 -20 6 0 10 9 10 20 0 11 -4 20 -10 20 -5
0 -10 -9 -10 -20z"/>
<path d="M2490 3840 c-8 -5 -10 -10 -5 -10 6 0 17 5 25 10 8 5 11 10 5 10 -5
0 -17 -5 -25 -10z"/>
<path d="M2595 3840 c-9 -15 4 -30 20 -23 8 3 15 9 15 13 0 12 -29 20 -35 10z"/>
<path d="M2872 3858 c3 -7 13 -15 23 -17 17 -3 17 -2 3 13 -20 19 -31 21 -26
4z"/>
<path d="M2980 3860 c0 -5 5 -10 10 -10 6 0 10 5 10 10 0 6 -4 10 -10 10 -5 0
-10 -4 -10 -10z"/>
<path d="M2946 3842 c-2 -4 -1 -14 5 -22 7 -12 9 -10 9 8 0 23 -5 28 -14 14z"/>
<path d="M2980 3820 c0 -5 4 -10 9 -10 6 0 13 5 16 10 3 6 -1 10 -9 10 -9 0
-16 -4 -16 -10z"/>
<path d="M3370 3840 c0 -21 4 -30 13 -27 6 2 12 14 12 27 0 13 -6 25 -12 28
-9 2 -13 -7 -13 -28z"/>
<path d="M3440 3841 c0 -17 5 -31 10 -31 6 0 10 11 10 24 0 14 -4 28 -10 31
-6 4 -10 -7 -10 -24z"/>
<path d="M3310 3830 c0 -11 5 -20 10 -20 6 0 10 9 10 20 0 11 -4 20 -10 20 -5
0 -10 -9 -10 -20z"/>
<path d="M3195 3820 c3 -5 8 -10 11 -10 2 0 4 5 4 10 0 6 -5 10 -11 10 -5 0
-7 -4 -4 -10z"/>
<path d="M3695 3858 c-4 -10 -4 -26 0 -35 8 -17 8 -17 12 0 3 9 3 25 0 35 -4
16 -4 16 -12 0z"/>
<path d="M3655 3830 c-18 -19 -17 -20 3 -20 15 0 22 6 22 20 0 11 -2 20 -3 20
-2 0 -12 -9 -22 -20z"/>
<path d="M3760 3830 c0 -19 3 -21 12 -12 9 9 9 15 0 24 -9 9 -12 7 -12 -12z"/>
<path d="M7056 3675 c10 -8 26 -14 34 -14 9 0 4 6 -10 14 -33 19 -49 19 -24 0z"/>
<path d="M6820 3643 c0 -17 4 -34 9 -38 5 -3 15 -22 21 -43 13 -41 36 -98 51
-125 5 -10 7 -22 4 -27 -7 -12 18 -39 54 -58 23 -12 22 -9 -9 23 -29 30 -32
38 -20 46 13 8 11 12 -9 29 -13 11 -21 23 -18 27 4 3 -3 19 -14 35 -11 15 -19
34 -17 40 3 7 19 -9 37 -35 18 -26 30 -51 27 -55 -5 -8 28 -42 39 -42 6 0 -29
65 -69 129 -14 22 -35 45 -46 51 -11 6 -20 18 -20 28 0 9 -5 24 -10 32 -7 11
-10 7 -10 -17z"/>
<path d="M7115 3650 c3 -5 11 -10 16 -10 6 0 7 5 4 10 -3 6 -11 10 -16 10 -6
0 -7 -4 -4 -10z"/>
<path d="M7118 3619 c18 -12 35 -19 38 -16 3 3 -8 13 -25 21 -43 23 -52 19
-13 -5z"/>
<path d="M7171 3626 c13 -11 149 -72 149 -66 0 4 -12 12 -27 19 -22 10 -24 14
-12 22 10 8 8 9 -9 4 -12 -4 -36 0 -54 9 -28 14 -58 22 -47 12z"/>
<path d="M7331 3556 c2 -2 15 -9 29 -15 24 -11 24 -11 6 3 -16 13 -49 24 -35
12z"/>
<path d="M7327 3467 c4 -7 0 -8 -13 -3 -11 4 -7 -3 11 -18 27 -22 65 -40 65
-30 0 2 -14 11 -31 19 -41 22 -30 31 13 10 l33 -16 -25 20 c-29 23 -64 35 -53
18z"/>
<path d="M6920 3342 c0 -9 30 -36 45 -41 6 -1 17 -8 25 -14 8 -6 -1 6 -19 26
-34 36 -51 46 -51 29z"/>
<path d="M7080 3170 c0 -5 5 -10 11 -10 5 0 7 5 4 10 -3 6 -8 10 -11 10 -2 0
-4 -4 -4 -10z"/>
<path d="M7082 3104 c10 -10 20 -16 22 -13 3 3 -5 11 -17 18 -21 13 -21 12 -5
-5z"/>
<path d="M6820 2821 c0 -9 12 -18 100 -84 61 -45 70 -50 70 -38 0 9 -153 131
-165 131 -3 0 -5 -4 -5 -9z"/>
<path d="M7310 2665 c0 -7 12 -23 27 -34 14 -12 23 -24 19 -28 -3 -3 -17 4
-31 17 -33 31 -33 17 0 -16 l25 -25 24 24 c14 14 23 35 23 53 0 28 0 28 -10 7
-11 -26 -35 -30 -43 -9 -8 20 -34 29 -34 11z"/>
<path d="M7565 2660 c3 -5 8 -10 11 -10 2 0 4 5 4 10 0 6 -5 10 -11 10 -5 0
-7 -4 -4 -10z"/>
<path d="M7890 2630 c0 -5 5 -10 11 -10 5 0 7 5 4 10 -3 6 -8 10 -11 10 -2 0
-4 -4 -4 -10z"/>
<path d="M7930 2630 c0 -5 5 -10 11 -10 5 0 7 5 4 10 -3 6 -8 10 -11 10 -2 0
-4 -4 -4 -10z"/>
<path d="M7232 2608 c-7 -7 -12 -16 -12 -21 0 -5 7 -1 16 8 9 9 14 18 12 20
-2 3 -10 -1 -16 -7z"/>
<path d="M7181 2601 c-12 -8 -12 -12 3 -26 9 -10 20 -14 24 -11 3 4 0 11 -8
17 -13 8 -13 10 0 19 8 5 11 10 5 10 -5 0 -16 -4 -24 -9z"/>
<path d="M7227 2562 c-19 -21 -22 -32 -7 -32 6 0 10 6 10 14 0 8 6 16 13 19 6
2 9 7 6 11 -3 3 -13 -2 -22 -12z"/>
<path d="M1080 3640 c0 -11 5 -20 10 -20 6 0 10 9 10 20 0 11 -4 20 -10 20 -5
0 -10 -9 -10 -20z"/>
<path d="M1210 3640 c0 -11 5 -20 10 -20 6 0 10 9 10 20 0 11 -4 20 -10 20 -5
0 -10 -9 -10 -20z"/>
<path d="M1720 3640 c0 -11 5 -20 10 -20 6 0 10 9 10 20 0 11 -4 20 -10 20 -5
0 -10 -9 -10 -20z"/>
<path d="M2280 3640 c0 -11 5 -20 10 -20 6 0 10 9 10 20 0 11 -4 20 -10 20 -5
0 -10 -9 -10 -20z"/>
<path d="M1913 3647 c-3 -5 -1 -13 5 -19 6 -6 22 -3 46 10 l36 19 -41 -1 c-22
0 -43 -5 -46 -9z"/>
<path d="M1980 3629 c0 -5 5 -7 10 -4 6 3 10 8 10 11 0 2 -4 4 -10 4 -5 0 -10
-5 -10 -11z"/>
<path d="M2080 3646 c0 -8 5 -18 10 -21 6 -3 10 3 10 14 0 12 -4 21 -10 21 -5
0 -10 -6 -10 -14z"/>
<path d="M2150 3630 c0 -5 5 -10 10 -10 6 0 10 5 10 10 0 6 -4 10 -10 10 -5 0
-10 -4 -10 -10z"/>
<path d="M2350 3640 c0 -11 5 -20 10 -20 6 0 10 9 10 20 0 11 -4 20 -10 20 -5
0 -10 -9 -10 -20z"/>
<path d="M2493 3642 c-37 -6 -26 -17 17 -17 22 0 40 1 40 2 0 8 -39 18 -57 15z"/>
<path d="M2600 3640 c0 -11 5 -20 10 -20 6 0 10 9 10 20 0 11 -4 20 -10 20 -5
0 -10 -9 -10 -20z"/>
<path d="M6960 2591 c0 -5 7 -12 16 -15 14 -5 15 -4 4 9 -14 17 -20 19 -20 6z"/>
<path d="M7007 2593 c-3 -3 1 -12 9 -20 8 -9 18 -13 21 -10 3 3 -1 13 -10 21
-8 8 -17 12 -20 9z"/>
<path d="M7045 2550 c-3 -5 -1 -10 4 -10 6 0 11 5 11 10 0 6 -2 10 -4 10 -3 0
-8 -4 -11 -10z"/>
<path d="M7071 2524 c0 -11 3 -14 6 -6 3 7 2 16 -1 19 -3 4 -6 -2 -5 -13z"/>
<path d="M7010 2510 c0 -5 5 -10 11 -10 5 0 7 5 4 10 -3 6 -8 10 -11 10 -2 0
-4 -4 -4 -10z"/>
<path d="M7427 2164 c-4 -4 -7 -14 -7 -23 0 -11 3 -12 11 -4 6 6 10 16 7 23
-2 6 -7 8 -11 4z"/>
<path d="M7870 2150 c0 -11 5 -20 10 -20 6 0 10 9 10 20 0 11 -4 20 -10 20 -5
0 -10 -9 -10 -20z"/>
<path d="M8000 2180 c0 -5 4 -10 9 -10 6 0 13 5 16 10 3 6 -1 10 -9 10 -9 0
-16 -4 -16 -10z"/>
<path d="M8070 2149 c0 -24 23 -21 28 4 2 10 -3 17 -12 17 -10 0 -16 -9 -16
-21z"/>
<path d="M8000 2145 c0 -9 5 -15 11 -13 6 2 11 8 11 13 0 5 -5 11 -11 13 -6 2
-11 -4 -11 -13z"/>
<path d="M7610 2140 c0 -5 5 -10 10 -10 6 0 10 5 10 10 0 6 -4 10 -10 10 -5 0
-10 -4 -10 -10z"/>
<path d="M7055 2080 c-4 -7 -3 -16 3 -22 14 -14 45 -2 40 15 -6 16 -34 21 -43
7z"/>
<path d="M2306 1745 c-3 -8 -1 -15 4 -15 6 0 10 7 10 15 0 8 -2 15 -4 15 -2 0
-6 -7 -10 -15z"/>
<path d="M7046 1718 c-9 -12 -16 -35 -16 -50 0 -26 2 -28 45 -28 43 0 45 2 45
28 0 32 -25 72 -45 72 -8 0 -21 -10 -29 -22z"/>
<path d="M7750 1660 c0 -5 5 -10 10 -10 6 0 10 5 10 10 0 6 -4 10 -10 10 -5 0
-10 -4 -10 -10z"/>
<path d="M7480 1669 c0 -24 23 -21 28 4 2 10 -3 17 -12 17 -10 0 -16 -9 -16
-21z"/>
<path d="M7880 1669 c0 -24 23 -21 28 4 2 10 -3 17 -12 17 -10 0 -16 -9 -16
-21z"/>
<path d="M895 1190 c-3 -5 -1 -10 4 -10 6 0 11 5 11 10 0 6 -2 10 -4 10 -3 0
-8 -4 -11 -10z"/>
<path d="M1068 1283 c7 -3 16 -2 19 1 4 3 -2 6 -13 5 -11 0 -14 -3 -6 -6z"/>
<path d="M2020 1230 c19 -13 30 -13 30 0 0 6 -10 10 -22 10 -19 0 -20 -2 -8
-10z"/>
<path d="M1570 1215 c10 -12 10 -15 0 -15 -8 0 -11 -3 -8 -6 10 -9 49 16 43
27 -4 5 -15 9 -27 9 -17 0 -18 -2 -8 -15z"/>
<path d="M1995 1180 c-3 -5 -1 -10 4 -10 6 0 11 5 11 10 0 6 -2 10 -4 10 -3 0
-8 -4 -11 -10z"/>
<path d="M1875 1170 c-3 -5 -2 -10 4 -10 5 0 13 5 16 10 3 6 2 10 -4 10 -5 0
-13 -4 -16 -10z"/>
<path d="M1754 1148 c-5 -7 -3 -8 5 -4 7 5 19 0 27 -10 9 -11 13 -13 9 -6 -3
6 0 12 7 13 7 0 4 4 -7 9 -28 12 -33 12 -41 -2z"/>
<path d="M1865 1130 c4 -6 11 -8 16 -5 14 9 11 15 -7 15 -8 0 -12 -5 -9 -10z"/>
<path d="M9670 1259 c0 -24 23 -21 28 4 2 10 -3 17 -12 17 -10 0 -16 -9 -16
-21z"/>
<path d="M3010 1150 c0 -5 5 -10 11 -10 5 0 7 5 4 10 -3 6 -8 10 -11 10 -2 0
-4 -4 -4 -10z"/>
<path d="M6820 565 l0 -535 535 0 535 0 0 535 0 535 -535 0 -535 0 0 -535z
m98 473 c10 -10 17 -10 33 1 15 9 24 10 32 2 7 -7 14 -7 23 0 19 16 34 2 34
-31 0 -27 -2 -28 -45 -28 -38 0 -45 3 -45 19 0 10 -7 19 -15 19 -8 0 -15 -9
-15 -20 0 -27 -37 -27 -45 0 -6 20 9 50 24 50 4 0 13 -6 19 -12z"/>
<path d="M6890 1010 c0 -11 5 -20 10 -20 6 0 10 9 10 20 0 11 -4 20 -10 20 -5
0 -10 -9 -10 -20z"/>
<path d="M6960 1010 c0 -11 5 -20 10 -20 6 0 10 9 10 20 0 11 -4 20 -10 20 -5
0 -10 -9 -10 -20z"/>
<path d="M7010 1010 c0 -11 5 -20 10 -20 6 0 10 9 10 20 0 11 -4 20 -10 20 -5
0 -10 -9 -10 -20z"/>
<path d="M7920 565 l0 -535 535 0 535 0 0 535 0 535 -535 0 -535 0 0 -535z
m98 473 c10 -10 17 -10 33 1 15 9 24 10 32 2 7 -7 14 -7 23 0 19 16 34 2 34
-31 0 -27 -2 -28 -45 -28 -38 0 -45 3 -45 19 0 10 -7 19 -15 19 -8 0 -15 -9
-15 -20 0 -27 -37 -27 -45 0 -6 20 9 50 24 50 4 0 13 -6 19 -12z"/>
<path d="M7990 1010 c0 -11 5 -20 10 -20 6 0 10 9 10 20 0 11 -4 20 -10 20 -5
0 -10 -9 -10 -20z"/>
<path d="M8060 1010 c0 -11 5 -20 10 -20 6 0 10 9 10 20 0 11 -4 20 -10 20 -5
0 -10 -9 -10 -20z"/>
<path d="M8110 1010 c0 -11 5 -20 10 -20 6 0 10 9 10 20 0 11 -4 20 -10 20 -5
0 -10 -9 -10 -20z"/>
<path d="M3420 781 c0 -6 5 -13 10 -16 6 -3 10 1 10 9 0 9 -4 16 -10 16 -5 0
-10 -4 -10 -9z"/>
<path d="M3600 785 c0 -14 5 -25 10 -25 6 0 10 11 10 25 0 14 -4 25 -10 25 -5
0 -10 -11 -10 -25z"/>
<path d="M1480 320 c0 -5 5 -10 10 -10 6 0 10 5 10 10 0 6 -4 10 -10 10 -5 0
-10 -4 -10 -10z"/>
</g>
</svg>
