<?xml version="1.0" standalone="no"?>
<!DOCTYPE svg PUBLIC "-//W3C//DTD SVG 20010904//EN"
 "http://www.w3.org/TR/2001/REC-SVG-20010904/DTD/svg10.dtd">
<svg version="1.0" xmlns="http://www.w3.org/2000/svg"
 width="1348.000000pt" height="691.000000pt" viewBox="0 0 1348.000000 691.000000"
 preserveAspectRatio="xMidYMid meet">
<metadata>
Created by potrace 1.16, written by Peter Selinger 2001-2019
</metadata>
<g transform="translate(0.000000,691.000000) scale(0.100000,-0.100000)"
fill="#000000" stroke="none">
<path d="M12525 6730 c-3 -5 -15 -10 -26 -10 -25 0 -36 -27 -20 -51 8 -15 8
-23 0 -38 -23 -36 -5 -51 61 -51 49 0 62 3 66 18 3 9 10 25 15 35 6 10 6 24 0
35 -5 9 -12 25 -15 35 -3 9 -14 17 -25 17 -11 0 -23 5 -26 10 -3 6 -10 10 -15
10 -5 0 -12 -4 -15 -10z"/>
<path d="M0 3365 l0 -3045 6740 0 6740 0 0 3045 0 3045 -6740 0 -6740 0 0
-3045z m1680 2716 l0 -88 -47 -1 c-58 -2 -73 10 -73 58 0 45 19 64 60 58 28
-4 30 -3 30 29 0 23 5 33 15 33 12 0 15 -17 15 -89z m3540 -4896 l0 -135 -30
0 -30 0 0 135 0 135 30 0 30 0 0 -135z m3340 0 l0 -135 -30 0 c-17 0 -30 5
-30 12 0 9 -3 9 -12 0 -19 -19 -76 -14 -98 8 -31 31 -28 103 6 137 21 21 32
25 65 20 l39 -5 0 49 c0 48 1 49 30 49 l30 0 0 -135z m-3890 68 c25 -127 24
-126 49 -30 l24 87 33 0 33 0 18 -80 c10 -44 20 -80 24 -80 3 0 12 35 20 78
14 76 14 77 47 80 37 4 38 21 -8 -153 l-26 -100 -35 -3 -36 -3 -18 81 c-10 44
-22 77 -25 73 -4 -4 -15 -41 -25 -80 l-17 -73 -38 0 -38 0 -31 125 c-17 68
-31 127 -31 130 0 3 15 5 34 5 34 0 35 -1 46 -57z m2250 32 c0 -22 -4 -25 -35
-25 l-35 0 0 -105 0 -105 -30 0 -30 0 0 105 0 105 -35 0 c-31 0 -35 3 -35 25
l0 25 100 0 100 0 0 -25z m1068 -6 c3 -26 2 -27 -50 -25 -68 1 -72 -20 -9 -49
74 -36 92 -85 46 -130 -19 -20 -34 -25 -74 -25 -67 0 -81 7 -81 41 0 30 9 36
27 18 6 -6 26 -9 44 -7 50 5 49 30 -1 53 -72 33 -90 86 -45 131 22 22 32 25
83 22 53 -3 57 -5 60 -29z m-1638 -24 c0 -18 5 -25 20 -25 13 0 20 -7 20 -20
0 -13 -7 -20 -20 -20 -17 0 -20 -7 -20 -41 0 -32 4 -42 20 -46 13 -3 20 -14
20 -29 0 -21 -5 -24 -38 -24 -51 0 -62 14 -62 82 0 45 -3 58 -15 58 -8 0 -15
9 -15 20 0 11 7 20 15 20 8 0 15 9 15 19 0 20 12 29 43 30 12 1 17 -7 17 -24z
m830 0 c0 -18 5 -25 20 -25 13 0 20 -7 20 -20 0 -13 -7 -20 -20 -20 -17 0 -20
-7 -20 -39 0 -37 19 -68 33 -54 4 3 7 -6 7 -20 0 -24 -4 -27 -34 -27 -45 0
-66 29 -66 92 0 36 -4 48 -15 48 -8 0 -15 9 -15 20 0 11 7 20 15 20 8 0 15 9
15 19 0 18 14 27 48 30 6 0 12 -10 12 -24z m140 0 c0 -18 5 -25 20 -25 13 0
20 -7 20 -20 0 -13 -7 -20 -20 -20 -17 0 -20 -7 -20 -39 0 -37 19 -68 33 -54
4 3 7 -6 7 -20 0 -24 -4 -27 -34 -27 -45 0 -66 29 -66 92 0 36 -4 48 -15 48
-8 0 -15 9 -15 20 0 11 7 20 15 20 8 0 15 9 15 19 0 18 14 27 48 30 6 0 12
-10 12 -24z m770 0 c0 -18 5 -25 20 -25 13 0 20 -7 20 -20 0 -13 -7 -20 -20
-20 -17 0 -20 -7 -20 -39 0 -37 19 -68 33 -54 4 3 7 -6 7 -20 0 -24 -4 -27
-34 -27 -45 0 -66 29 -66 92 0 36 -4 48 -15 48 -8 0 -15 9 -15 20 0 11 7 20
15 20 8 0 15 9 15 19 0 18 14 27 48 30 6 0 12 -10 12 -24z m-2985 -50 c16 -15
25 -36 25 -55 0 -30 0 -30 -55 -30 -30 0 -55 -4 -55 -9 0 -15 35 -23 65 -15
24 6 26 4 23 -17 -3 -21 -9 -24 -55 -27 -45 -3 -56 1 -78 22 -38 38 -31 108
14 143 28 22 89 16 116 -12z m295 -5 c0 -27 -2 -29 -24 -20 -36 13 -71 -17
-63 -53 8 -29 30 -37 65 -25 21 7 23 5 20 -19 -3 -26 -7 -28 -50 -31 -61 -4
-98 27 -98 83 0 55 44 95 104 95 44 0 46 -1 46 -30z m173 19 c53 -24 62 -96
18 -140 -24 -24 -38 -29 -76 -29 -59 0 -95 32 -95 85 0 73 81 117 153 84z
m137 1 c0 -7 6 -7 19 0 26 13 64 13 78 -1 8 -8 17 -8 31 0 30 16 63 14 84 -6
14 -13 18 -31 18 -90 l0 -73 -30 0 -30 0 0 64 c0 45 -4 65 -14 69 -24 9 -36
-15 -36 -75 l0 -58 -33 0 -33 0 4 58 c3 43 0 61 -11 70 -26 22 -47 -11 -47
-74 0 -53 0 -54 -30 -54 l-30 0 0 90 0 90 30 0 c17 0 30 -5 30 -10z m409 -7
c12 -10 24 -35 28 -55 l6 -38 -64 0 c-60 -1 -63 -2 -44 -16 13 -10 32 -14 53
-10 30 4 33 3 30 -17 -3 -19 -10 -22 -54 -25 -65 -4 -93 17 -101 74 -4 33 -1
45 22 72 21 26 34 32 65 32 21 0 47 -8 59 -17z m456 -8 c19 -18 25 -35 25 -65
0 -59 -33 -90 -97 -90 -51 1 -73 12 -91 47 -20 37 -14 73 17 104 40 39 109 41
146 4z m475 5 c16 -16 20 -33 20 -90 l0 -70 -30 0 c-17 0 -30 5 -30 12 0 9 -3
9 -12 0 -30 -30 -98 -3 -98 39 0 26 35 59 63 59 12 0 29 4 37 10 24 15 -18 25
-51 13 -27 -10 -29 -9 -29 12 0 28 11 33 68 34 29 1 48 -5 62 -19z m495 -5
c19 -18 25 -35 25 -65 0 -58 -33 -90 -95 -90 -62 0 -95 32 -95 90 0 58 33 90
95 90 35 0 52 -6 70 -25z m220 0 c19 -18 25 -35 25 -65 0 -58 -33 -90 -95 -90
-62 0 -95 32 -95 90 0 58 33 90 95 90 35 0 52 -6 70 -25z m455 -39 c0 -47 4
-65 15 -70 27 -10 45 22 45 80 0 53 0 54 30 54 l30 0 0 -90 0 -90 -30 0 c-16
0 -30 5 -30 10 0 7 -6 7 -19 0 -29 -15 -62 -12 -83 7 -14 13 -18 31 -18 90 l0
73 30 0 30 0 0 -64z m645 39 c19 -18 25 -35 25 -65 0 -58 -33 -90 -94 -90 -64
0 -101 33 -101 90 0 34 6 47 28 66 39 34 108 33 142 -1z"/>
</g>
</svg>
