<?xml version="1.0" standalone="no"?>
<!DOCTYPE svg PUBLIC "-//W3C//DTD SVG 20010904//EN"
 "http://www.w3.org/TR/2001/REC-SVG-20010904/DTD/svg10.dtd">
<svg version="1.0" xmlns="http://www.w3.org/2000/svg"
 width="1346.000000pt" height="610.000000pt" viewBox="0 0 1346.000000 610.000000"
 preserveAspectRatio="xMidYMid meet">

<g transform="translate(0.000000,610.000000) scale(0.100000,-0.100000)"
fill="#000000" stroke="none">
<path d="M1571 5743 c-44 -36 -22 -103 34 -103 25 0 63 25 53 36 -4 4 -14 1
-22 -5 -8 -7 -25 -11 -38 -9 -18 2 -23 9 -23 32 0 37 27 56 55 38 26 -16 30
-15 30 3 0 8 -6 15 -12 15 -7 0 -22 3 -34 6 -12 3 -30 -2 -43 -13z"/>
<path d="M2770 5745 c-19 -23 -8 -48 28 -57 35 -9 41 -22 16 -32 -10 -4 -25 1
-35 10 -18 16 -19 16 -19 -2 0 -15 8 -20 34 -22 61 -4 75 54 16 68 -13 3 -25
11 -28 18 -5 16 30 16 46 0 9 -9 12 -8 12 4 0 9 -10 18 -22 22 -32 8 -34 8
-48 -9z"/>
<path d="M12270 5744 c0 -8 5 -12 10 -9 6 3 10 10 10 16 0 5 -4 9 -10 9 -5 0
-10 -7 -10 -16z"/>
<path d="M12416 5751 c-4 -5 -2 -12 3 -15 5 -4 12 -2 15 3 4 5 2 12 -3 15 -5
4 -12 2 -15 -3z"/>
<path d="M12712 5751 c-22 -14 -10 -54 18 -61 14 -3 25 -12 25 -20 0 -20 -21
-23 -39 -5 -15 15 -16 15 -16 -2 0 -14 8 -19 34 -21 61 -4 75 54 16 68 -13 3
-25 11 -28 18 -5 16 30 16 46 0 9 -9 12 -8 12 4 0 9 -10 18 -22 22 -29 7 -30
7 -46 -3z"/>
<path d="M13000 5751 c0 -6 5 -13 10 -16 6 -3 10 1 10 9 0 9 -4 16 -10 16 -5
0 -10 -4 -10 -9z"/>
<path d="M13090 5749 c0 -5 5 -7 10 -4 6 3 10 8 10 11 0 2 -4 4 -10 4 -5 0
-10 -5 -10 -11z"/>
<path d="M2969 5741 c10 -6 12 -22 9 -53 l-5 -45 35 1 c42 1 63 26 46 54 -7 9
-21 17 -33 16 -14 0 -21 5 -21 18 0 12 -7 18 -22 18 -17 0 -20 -3 -9 -9z m71
-61 c0 -13 -7 -20 -20 -20 -13 0 -20 7 -20 20 0 13 7 20 20 20 13 0 20 -7 20
-20z"/>
<path d="M3712 5734 c-17 -31 2 -94 28 -94 11 0 20 5 20 10 0 6 -7 10 -15 10
-21 0 -19 30 3 46 16 12 16 13 0 14 -9 0 -18 8 -20 18 -3 15 -5 15 -16 -4z"/>
<path d="M12088 5743 c15 -6 16 -75 0 -91 -9 -9 -7 -12 13 -12 23 0 24 3 24
55 0 52 -1 55 -25 54 -14 0 -19 -3 -12 -6z"/>
<path d="M1693 5714 c-7 -3 -13 -16 -13 -29 0 -44 50 -60 74 -22 20 32 -22 67
-61 51z m47 -34 c0 -13 -7 -20 -20 -20 -13 0 -20 7 -20 20 0 13 7 20 20 20 13
0 20 -7 20 -20z"/>
<path d="M1783 5698 c9 -14 9 -23 -1 -38 -11 -18 -10 -20 11 -20 20 0 23 4 19
30 -3 24 -1 30 13 30 14 0 16 -6 12 -30 -6 -25 -3 -30 13 -30 16 0 19 5 14 30
-6 26 -4 30 16 30 20 0 22 -4 17 -30 -6 -25 -3 -30 13 -30 20 0 21 13 5 66 -2
7 -30 11 -73 11 -65 -1 -69 -2 -59 -19z"/>
<path d="M1945 5664 c0 -44 3 -54 17 -54 11 0 15 6 11 19 -4 15 0 18 20 14 19
-4 27 0 32 16 12 39 -2 60 -43 59 l-37 0 0 -54z m65 16 c0 -13 -7 -20 -20 -20
-13 0 -20 7 -20 20 0 13 7 20 20 20 13 0 20 -7 20 -20z"/>
<path d="M2055 5679 c0 -30 3 -39 17 -39 14 0 16 6 12 30 -5 23 -3 30 10 30
28 0 17 17 -12 18 -25 0 -27 -2 -27 -39z"/>
<path d="M2130 5710 c0 -5 9 -10 20 -10 27 0 25 -18 -2 -22 -39 -5 -28 -33 14
-34 40 -2 41 3 22 64 -4 14 -54 17 -54 2z m40 -50 c0 -5 -4 -10 -9 -10 -6 0
-13 5 -16 10 -3 6 1 10 9 10 9 0 16 -4 16 -10z"/>
<path d="M2225 5679 c0 -30 3 -39 17 -39 14 0 16 6 12 30 -5 23 -3 30 10 30
28 0 17 17 -12 18 -25 0 -27 -2 -27 -39z"/>
<path d="M2883 5714 c-7 -3 -13 -16 -13 -29 0 -44 50 -60 74 -22 20 32 -22 67
-61 51z m47 -34 c0 -13 -7 -20 -20 -20 -13 0 -20 7 -20 20 0 13 7 20 20 20 13
0 20 -7 20 -20z"/>
<path d="M3083 5699 c9 -15 9 -23 -1 -39 -11 -18 -10 -20 13 -20 22 0 24 3 19
30 -5 23 -3 30 10 30 32 0 15 16 -18 17 -32 1 -34 -1 -23 -18z"/>
<path d="M3163 5713 c-7 -2 -13 -17 -13 -33 0 -28 15 -40 51 -40 29 0 23 18
-8 23 -26 4 -26 4 5 6 33 1 42 17 20 39 -12 12 -33 14 -55 5z m42 -13 c3 -5
-3 -10 -15 -10 -12 0 -18 5 -15 10 3 6 10 10 15 10 5 0 12 -4 15 -10z"/>
<path d="M3305 5679 c0 -30 3 -39 17 -39 14 0 16 6 12 30 -6 26 -4 30 16 30
20 0 22 -4 17 -30 -6 -25 -3 -30 13 -30 20 0 21 14 5 67 -2 6 -21 12 -42 11
-38 0 -38 -1 -38 -39z"/>
<path d="M3433 5714 c-7 -3 -13 -16 -13 -29 0 -44 50 -60 74 -22 20 32 -22 67
-61 51z m47 -34 c0 -13 -7 -20 -20 -20 -13 0 -20 7 -20 20 0 13 7 20 20 20 13
0 20 -7 20 -20z"/>
<path d="M3527 5713 c-15 -14 -6 -33 18 -39 14 -3 25 -10 25 -15 0 -13 -24
-11 -38 3 -9 9 -12 8 -12 -6 0 -13 7 -17 32 -14 42 4 51 34 14 44 -14 3 -26
11 -26 16 0 6 9 8 20 5 11 -3 20 -1 20 4 0 10 -43 12 -53 2z"/>
<path d="M3623 5714 c-7 -3 -13 -16 -13 -29 0 -44 50 -60 74 -22 20 32 -22 67
-61 51z m47 -34 c0 -13 -7 -20 -20 -20 -13 0 -20 7 -20 20 0 13 7 20 20 20 13
0 20 -7 20 -20z"/>
<path d="M3775 5679 c0 -31 3 -39 17 -39 15 0 17 5 12 25 -4 18 -1 27 10 31
25 10 19 21 -12 22 -25 0 -27 -2 -27 -39z"/>
<path d="M3850 5700 c-15 -28 4 -60 35 -60 14 0 29 8 35 20 15 28 -4 60 -35
60 -14 0 -29 -8 -35 -20z m58 -17 c5 -17 -26 -29 -40 -15 -6 6 -7 15 -3 22 9
14 37 9 43 -7z"/>
<path d="M3950 5701 c0 -11 9 -23 20 -26 11 -3 20 -11 20 -16 0 -13 -14 -11
-28 3 -9 9 -12 8 -12 -5 0 -21 55 -24 63 -3 6 16 -11 36 -30 36 -7 0 -13 5
-13 11 0 6 9 8 20 4 11 -4 20 -2 20 4 0 6 -13 11 -30 11 -23 0 -30 -5 -30 -19z"/>
<path d="M12155 5679 c0 -30 3 -39 17 -39 14 0 16 6 12 30 -5 24 -3 30 10 30
22 0 31 -27 16 -45 -10 -13 -9 -15 10 -15 16 0 20 4 16 16 -3 9 -6 26 -6 39 0
21 -5 24 -38 23 -37 0 -37 -1 -37 -39z"/>
<path d="M12265 5680 c0 -32 3 -40 18 -40 13 0 17 5 13 16 -3 9 -6 27 -6 40 0
13 -6 24 -13 24 -8 0 -12 -14 -12 -40z"/>
<path d="M12320 5700 c-15 -28 4 -60 35 -60 34 0 41 18 8 22 -38 4 -38 34 0
31 18 -1 27 3 27 13 0 23 -57 18 -70 -6z"/>
<path d="M12412 5700 c10 -16 10 -24 0 -40 -11 -18 -10 -20 11 -20 20 0 22 4
19 40 -3 31 -8 40 -23 40 -17 0 -18 -3 -7 -20z"/>
<path d="M12470 5710 c0 -5 9 -10 20 -10 27 0 25 -18 -2 -22 -39 -5 -28 -33
14 -34 40 -2 41 3 22 64 -4 14 -54 17 -54 2z m40 -50 c0 -5 -4 -10 -9 -10 -6
0 -13 5 -16 10 -3 6 1 10 9 10 9 0 16 -4 16 -10z"/>
<path d="M12563 5699 c9 -15 9 -23 -1 -39 -11 -18 -10 -20 13 -20 22 0 24 3
19 30 -5 23 -3 30 10 30 32 0 15 16 -18 17 -32 1 -34 -1 -23 -18z"/>
<path d="M12823 5713 c-7 -2 -13 -17 -13 -33 0 -28 15 -40 51 -40 29 0 23 18
-8 23 -26 4 -26 4 5 6 33 1 42 17 20 39 -12 12 -33 14 -55 5z m42 -13 c3 -5
-3 -10 -15 -10 -12 0 -18 5 -15 10 3 6 10 10 15 10 5 0 12 -4 15 -10z"/>
<path d="M12910 5701 c0 -11 9 -23 20 -26 11 -3 20 -11 20 -16 0 -13 -14 -11
-28 3 -9 9 -12 8 -12 -5 0 -21 55 -24 63 -3 6 16 -11 36 -30 36 -7 0 -13 5
-13 11 0 6 9 8 20 4 11 -4 20 -2 20 4 0 6 -13 11 -30 11 -23 0 -30 -5 -30 -19z"/>
<path d="M12995 5680 c0 -32 3 -40 18 -40 13 0 17 5 13 16 -3 9 -6 27 -6 40 0
13 -6 24 -13 24 -8 0 -12 -14 -12 -40z"/>
<path d="M13063 5714 c-7 -3 -13 -16 -13 -29 0 -44 50 -60 74 -22 20 32 -22
67 -61 51z m47 -34 c0 -13 -7 -20 -20 -20 -13 0 -20 7 -20 20 0 13 7 20 20 20
13 0 20 -7 20 -20z"/>
<path d="M13155 5679 c0 -30 3 -39 17 -39 14 0 16 6 12 30 -5 24 -3 30 10 30
22 0 31 -27 16 -45 -10 -13 -9 -15 10 -15 16 0 20 4 16 16 -3 9 -6 26 -6 39 0
21 -5 24 -38 23 -37 0 -37 -1 -37 -39z"/>
<path d="M2465 5124 c-16 -2 -73 -9 -125 -15 -433 -49 -871 -232 -1240 -517
-109 -85 -327 -303 -412 -412 -286 -370 -453 -770 -520 -1245 -7 -50 -13 -185
-13 -305 0 -352 54 -632 181 -945 127 -310 305 -577 549 -820 399 -400 878
-635 1460 -717 117 -17 493 -17 610 0 475 67 875 234 1245 520 109 85 327 303
412 412 286 370 453 770 520 1245 7 50 13 185 13 305 0 120 -6 255 -13 305
-67 475 -234 875 -520 1245 -85 109 -303 327 -412 412 -365 282 -765 451
-1230 518 -77 11 -451 22 -505 14z m-1601 -2104 c49 -6 118 -18 154 -27 l65
-16 -61 -28 c-57 -26 -67 -27 -161 -22 -86 5 -101 4 -101 -9 0 -12 18 -16 78
-20 42 -3 92 -12 111 -20 l34 -14 -51 -38 c-78 -57 -68 -96 25 -96 48 0 60 5
129 55 64 46 84 55 119 55 34 0 44 -4 55 -25 8 -16 10 -29 4 -34 -5 -5 -69
-22 -143 -38 l-134 -29 -24 -69 c-13 -38 -23 -75 -23 -83 0 -7 53 -39 122 -71
l121 -58 75 14 c41 8 76 12 79 9 9 -8 -30 -98 -44 -103 -7 -3 -70 22 -140 56
-69 34 -132 60 -140 57 -7 -3 -13 -2 -13 3 0 10 -107 49 -132 48 -11 0 -15 -4
-9 -11 5 -6 11 -28 15 -49 4 -21 10 -45 13 -53 4 -12 -1 -12 -33 3 -22 9 -46
23 -55 30 -9 7 -19 10 -24 6 -4 -5 -5 -2 -1 5 5 8 3 13 -5 11 -36 -4 -43 1
-21 17 27 19 28 40 2 47 -11 3 -20 1 -20 -4 0 -5 -8 -9 -17 -9 -11 0 -14 3 -7
8 6 4 16 18 23 32 11 22 10 23 -2 8 -19 -24 -24 -23 -54 12 -13 17 -30 27 -35
23 -7 -3 -8 -1 -4 6 4 6 0 14 -8 17 -9 3 -16 11 -16 17 0 6 12 0 28 -14 48
-43 76 -64 69 -53 -4 7 0 15 9 18 12 5 4 17 -36 56 -56 54 -87 62 -82 20 1
-19 0 -21 -7 -11 -19 29 -4 153 28 239 17 45 31 93 31 107 0 17 7 25 23 28 41
8 101 7 191 -3z m836 -60 l0 -40 -55 0 -55 0 0 -80 0 -80 55 0 55 0 0 -35 0
-35 -55 0 -55 0 0 -205 0 -205 -35 0 -35 0 0 360 0 360 90 0 90 0 0 -40z m130
-286 l0 -325 33 3 32 3 3 323 2 322 35 0 35 0 0 -360 0 -360 -105 0 -105 0 0
360 0 360 35 0 35 0 0 -326z m281 314 c0 -7 13 -112 28 -233 l29 -220 1 233 1
232 35 0 35 0 0 -360 0 -360 -45 0 c-29 0 -45 4 -46 13 0 6 -13 111 -28 232
l-29 220 -1 -232 -1 -233 -35 0 -35 0 0 360 0 360 45 0 c29 0 45 -4 46 -12z
m363 -69 l36 -81 0 -279 0 -279 -105 0 -105 0 0 360 0 360 69 0 68 0 37 -81z
m256 77 c0 -2 14 -154 30 -336 17 -182 30 -343 30 -356 0 -21 -5 -24 -34 -24
l-33 0 -7 60 -7 60 -34 0 -34 0 -7 -60 -7 -60 -33 0 c-29 0 -34 4 -34 23 0 12
14 172 30 355 17 183 30 335 30 337 0 3 25 5 55 5 30 0 55 -2 55 -4z m219 -48
c6 -29 16 -82 22 -117 14 -76 19 -69 44 72 l18 98 51 -3 51 -3 3 -357 2 -358
-40 0 -40 0 -1 248 -1 247 -17 -85 c-9 -47 -20 -90 -24 -96 -6 -11 -53 -11
-63 -1 -3 2 -13 47 -23 98 l-19 94 -1 -252 -1 -253 -35 0 -35 0 0 360 0 360
49 0 50 0 10 -52z m421 12 l0 -40 -55 0 -55 0 0 -80 0 -80 55 0 55 0 0 -35 0
-35 -55 0 -55 0 0 -170 0 -170 55 0 55 0 0 -35 0 -35 -90 0 -90 0 0 360 0 360
90 0 90 0 0 -40z m155 -12 c4 -29 17 -134 30 -233 l23 -180 1 233 1 232 35 0
35 0 0 -360 0 -360 -45 0 c-29 0 -45 4 -46 13 0 6 -13 111 -28 232 l-29 220
-1 -232 -1 -233 -35 0 -35 0 0 360 0 360 44 0 45 0 6 -52z m375 12 c0 -38 -2
-40 -30 -40 l-30 0 0 -320 0 -320 -35 0 -35 0 0 320 0 320 -35 0 c-34 0 -35 1
-35 40 l0 40 100 0 100 0 0 -40z m200 35 c0 -2 14 -154 30 -337 17 -183 30
-343 30 -355 0 -19 -5 -23 -34 -23 l-33 0 -7 60 -7 60 -34 0 -34 0 -7 -60 -7
-60 -33 0 c-29 0 -34 4 -34 23 0 12 14 172 30 355 17 183 30 335 30 337 0 3
25 5 55 5 30 0 55 -2 55 -5z m180 -321 l0 -325 33 3 32 3 3 78 3 77 34 0 35 0
0 -115 0 -115 -105 0 -105 0 0 360 0 360 35 0 35 0 0 -326z m-2880 308 c0 -19
-60 -61 -123 -86 -65 -25 -72 -26 -168 -17 -56 5 -103 12 -106 15 -3 2 23 19
57 36 60 30 95 37 328 59 6 0 12 -3 12 -7z m-292 -137 c-3 -3 -29 -24 -59 -45
-40 -31 -62 -40 -92 -40 -21 0 -37 4 -35 9 2 5 23 25 48 45 37 29 54 35 94 35
27 1 47 -1 44 -4z m-89 -197 c-7 -13 -14 -18 -16 -11 -3 7 1 22 8 35 7 13 14
18 16 11 3 -7 -1 -22 -8 -35z m-399 -46 c0 -5 -7 -9 -15 -9 -8 0 -12 4 -9 9 3
4 9 8 15 8 5 0 9 -4 9 -8z m484 -69 c58 -32 102 -59 97 -61 -13 -4 -221 96
-221 108 0 18 16 11 124 -47z m-344 -27 c0 -2 -7 -9 -15 -16 -13 -11 -14 -10
-9 4 5 14 24 23 24 12z m238 -59 c8 3 12 -8 12 -35 0 -22 6 -44 13 -50 6 -5
56 -29 110 -52 101 -45 116 -55 100 -71 -6 -6 -63 16 -151 58 -149 72 -147 70
-165 150 -4 20 -3 21 32 9 20 -7 42 -11 49 -9z m260 -137 c6 -17 -13 -11 -112
35 -59 27 -96 50 -96 59 0 11 27 2 103 -35 56 -27 104 -54 105 -59z m2697
-139 c3 -6 -8 -8 -29 -4 -48 8 -56 -14 -12 -32 42 -18 52 -31 36 -50 -13 -16
-75 -21 -84 -6 -3 4 11 8 31 7 48 -1 53 20 9 38 -34 14 -45 34 -29 49 10 10
71 8 78 -2z m59 -23 c8 -5 7 -8 -1 -8 -23 0 -15 -50 10 -60 22 -10 22 -10 -3
-7 -20 1 -26 8 -28 32 -2 16 -9 33 -15 37 -9 6 -9 8 1 8 6 0 12 8 13 18 0 13
2 14 6 2 3 -8 11 -18 17 -22z m111 -38 c0 -29 -4 -36 -23 -38 -43 -6 -69 37
-40 66 7 7 24 12 38 10 21 -3 25 -8 25 -38z m78 29 c-17 -6 -23 -16 -23 -39 0
-16 -4 -30 -10 -30 -5 0 -10 17 -10 38 0 37 2 39 33 40 28 0 29 -1 10 -9z m95
-1 c7 -7 12 -19 12 -27 0 -11 -6 -8 -20 9 -14 19 -22 22 -30 14 -18 -18 -7
-47 20 -55 l25 -7 -25 -1 c-29 -1 -50 15 -50 39 0 21 19 40 40 40 9 0 21 -5
28 -12z"/>
<path d="M817 2993 c-31 -8 -13 -28 28 -31 34 -3 66 10 54 22 -8 8 -63 14 -82
9z"/>
<path d="M750 2555 c-11 -13 -7 -17 23 -30 48 -20 67 -19 67 4 0 12 -9 21 -24
25 -13 3 -31 8 -38 11 -8 3 -21 -1 -28 -10z"/>
<path d="M770 2483 c-14 -15 -19 -23 -12 -19 8 5 20 2 30 -7 9 -8 28 -20 42
-26 l25 -12 -23 20 c-15 14 -18 21 -10 25 7 3 3 3 -9 0 -18 -4 -21 -1 -19 21
2 14 3 25 2 25 0 0 -12 -12 -26 -27z"/>
<path d="M2370 2634 l0 -285 33 3 32 3 3 236 c2 217 1 240 -17 283 -12 26 -27
46 -36 46 -13 0 -15 -35 -15 -286z"/>
<path d="M2667 2710 c-3 -36 -9 -104 -13 -152 l-7 -88 28 0 27 0 -7 100 c-4
55 -10 123 -14 152 l-7 53 -7 -65z"/>
<path d="M4037 2710 c-4 -36 -10 -104 -13 -152 l-7 -88 28 0 27 0 -7 100 c-4
55 -10 123 -14 152 l-7 53 -7 -65z"/>
<path d="M4074 2126 c-9 -24 4 -48 23 -44 12 2 18 12 18 28 0 29 -32 41 -41
16z"/>
<path d="M7582 3894 c-27 -18 -29 -55 -4 -77 39 -35 92 -13 92 38 0 51 -43 70
-88 39z"/>
<path d="M6020 3645 l0 -205 52 0 51 0 -6 138 c-5 128 -4 134 9 92 7 -25 26
-78 40 -118 26 -71 27 -73 58 -70 30 3 32 6 72 123 l41 120 -5 -143 -5 -142
47 0 46 0 0 205 0 206 -57 -3 -57 -3 -41 -118 -42 -119 -20 64 c-12 34 -31 89
-43 121 l-21 57 -60 0 -59 0 0 -205z"/>
<path d="M6615 3764 c-11 -3 -39 -12 -62 -20 l-42 -15 16 -35 c14 -28 21 -33
37 -27 40 14 100 9 104 -8 2 -12 -8 -18 -43 -22 -79 -11 -125 -51 -125 -108 0
-37 29 -77 64 -89 33 -11 53 -6 119 28 4 2 7 -3 7 -12 0 -12 11 -16 45 -16
l45 0 0 110 c0 121 -13 168 -52 193 -26 17 -83 28 -113 21z m55 -209 c0 -29
-28 -47 -53 -34 -22 13 -22 35 1 48 31 19 52 13 52 -14z"/>
<path d="M7016 3760 c-15 -5 -37 -17 -48 -26 -18 -17 -19 -17 -25 4 -4 18 -12
22 -49 22 l-44 0 0 -160 0 -160 55 0 55 0 0 108 c0 106 1 109 25 120 52 24 65
-4 65 -144 l0 -84 50 0 50 0 0 121 c0 140 -13 181 -62 198 -35 12 -33 12 -72
1z"/>
<path d="M7317 3756 c-20 -8 -45 -20 -54 -27 -24 -21 -53 -89 -53 -129 0 -50
38 -121 78 -143 39 -23 115 -26 160 -8 36 15 37 19 20 56 -9 20 -16 24 -32 18
-42 -15 -88 -7 -109 18 l-19 24 96 3 96 3 0 42 c0 107 -89 177 -183 143z m74
-76 c38 -21 23 -40 -31 -40 -47 0 -50 1 -40 19 15 30 40 37 71 21z"/>
<path d="M7850 3763 c-28 -4 -100 -34 -100 -40 0 -3 8 -18 17 -34 12 -20 22
-27 33 -22 8 4 35 7 60 7 61 1 63 -25 3 -36 -52 -9 -99 -33 -113 -57 -18 -34
-12 -88 13 -117 18 -21 32 -27 64 -27 22 0 51 8 64 17 29 20 39 20 39 1 0 -11
12 -15 46 -15 l46 0 -4 118 c-5 126 -18 169 -60 189 -29 15 -75 22 -108 16z
m58 -210 c-2 -23 -8 -29 -35 -31 -27 -3 -33 0 -33 17 0 22 24 40 53 41 14 0
18 -6 15 -27z"/>
<path d="M8316 3755 c-105 -37 -145 -155 -86 -253 36 -58 127 -83 198 -53 36
15 38 22 16 56 -14 21 -21 24 -53 19 -42 -7 -67 10 -77 52 -15 58 21 109 71
101 27 -5 36 -1 54 24 26 35 22 45 -27 59 -46 12 -48 12 -96 -5z"/>
<path d="M8602 3760 c-68 -16 -112 -80 -112 -163 0 -59 23 -104 71 -140 36
-26 115 -27 160 -1 41 23 79 93 79 144 0 20 -10 56 -22 80 -34 66 -103 98
-176 80z m78 -99 c5 -11 10 -38 10 -61 0 -53 -15 -80 -44 -80 -34 0 -50 25
-50 80 0 27 6 55 13 64 18 22 58 20 71 -3z"/>
<path d="M9024 3759 c-17 -5 -37 -16 -44 -24 -17 -21 -30 -19 -30 5 0 17 -7
20 -45 20 l-45 0 0 -160 0 -160 55 0 55 0 0 108 c0 106 1 109 25 120 49 23 55
10 55 -114 l0 -114 55 0 55 0 0 115 c0 150 -18 196 -80 208 -14 3 -39 1 -56
-4z"/>
<path d="M7560 3586 c0 -150 -2 -175 -16 -180 -9 -3 -20 -4 -24 -1 -5 3 -14
-11 -19 -32 -8 -28 -7 -39 2 -45 20 -13 76 -9 108 8 50 26 59 63 59 254 l0
170 -55 0 -55 0 0 -174z"/>
<path d="M12367 3542 c-10 -10 -17 -28 -17 -39 0 -23 30 -53 53 -53 9 0 17 -6
17 -14 0 -15 -55 -66 -70 -66 -5 0 -4 -13 1 -29 10 -27 13 -29 40 -19 82 28
122 159 68 224 -16 20 -73 17 -92 -4z"/>
<path d="M11241 2750 c-17 -28 -31 -52 -31 -55 0 -3 17 -5 38 -5 32 0 45 8 92
55 l54 55 -61 0 -61 0 -31 -50z"/>
<path d="M6882 2774 c-27 -18 -29 -55 -4 -77 38 -34 95 -11 95 38 0 49 -48 69
-91 39z"/>
<path d="M10462 2774 c-27 -18 -29 -55 -4 -77 38 -34 95 -11 95 38 0 49 -48
69 -91 39z"/>
<path d="M10947 2772 c-22 -24 -21 -55 1 -75 37 -33 92 -13 92 33 0 54 -58 80
-93 42z"/>
<path d="M10070 2540 l0 -220 45 0 c33 0 45 4 45 15 0 19 -2 19 45 -5 88 -45
175 32 175 155 0 116 -72 182 -162 151 l-38 -14 0 69 0 69 -55 0 -55 0 0 -220z
m190 1 c5 -11 10 -40 10 -65 0 -61 -28 -88 -74 -70 -20 8 -23 123 -4 142 18
18 56 14 68 -7z"/>
<path d="M7355 2686 c-6 -36 -12 -46 -29 -48 -16 -2 -22 -11 -24 -40 -3 -32 0
-38 16 -38 18 0 20 -9 24 -87 5 -104 22 -138 76 -153 20 -5 54 -7 75 -3 33 5
38 9 33 27 -3 12 -6 29 -6 38 0 12 -10 18 -32 20 l-33 3 -3 78 -3 77 36 0 c34
0 35 1 35 40 0 39 -1 40 -35 40 -35 0 -35 0 -35 45 l0 45 -44 0 -45 0 -6 -44z"/>
<path d="M7135 2643 c-55 -12 -95 -54 -95 -102 0 -31 46 -78 95 -97 77 -29 48
-71 -30 -43 -40 15 -42 14 -58 -7 -23 -31 -22 -37 14 -58 65 -38 177 -19 204
35 33 63 10 109 -71 145 -30 13 -54 28 -54 34 0 18 32 24 63 12 33 -12 49 -5
68 29 7 15 4 21 -18 32 -33 17 -90 26 -118 20z"/>
<path d="M7663 2639 c-128 -37 -149 -244 -31 -305 42 -22 124 -22 166 0 l33
17 -18 29 c-14 24 -22 28 -38 23 -51 -19 -115 0 -115 33 0 11 20 14 90 14 l90
0 0 43 c0 103 -84 173 -177 146z m68 -79 c38 -21 23 -40 -31 -40 -41 0 -48 3
-43 16 3 9 15 20 27 24 28 11 25 11 47 0z"/>
<path d="M8144 2641 c-127 -31 -169 -199 -72 -288 45 -42 149 -49 192 -13 12
9 12 15 -2 40 -15 26 -20 28 -58 23 -35 -5 -44 -2 -58 18 -9 13 -16 42 -16 65
0 51 25 77 70 72 26 -2 37 3 56 27 l24 30 -23 11 c-33 17 -78 23 -113 15z"/>
<path d="M8407 2636 c-50 -18 -67 -34 -88 -81 -25 -54 -24 -102 4 -155 28 -57
74 -84 140 -83 151 2 205 214 77 304 -35 24 -89 30 -133 15z m84 -92 c7 -9 13
-37 13 -64 0 -55 -16 -80 -50 -80 -29 0 -44 27 -44 80 0 23 5 50 10 61 13 23
53 25 71 3z"/>
<path d="M8836 2640 c-15 -5 -37 -17 -48 -26 -18 -17 -19 -17 -25 4 -4 18 -12
22 -49 22 l-44 0 0 -160 0 -160 55 0 55 0 0 108 c0 106 1 109 25 120 52 24 65
-4 65 -144 l0 -84 50 0 50 0 0 121 c0 140 -13 181 -62 198 -35 12 -33 12 -72
1z"/>
<path d="M9250 2637 c-25 -7 -53 -17 -62 -23 -16 -9 -16 -11 2 -41 18 -30 22
-31 49 -22 40 14 85 8 89 -12 2 -13 -9 -18 -49 -23 -121 -16 -162 -144 -62
-191 35 -17 61 -14 102 12 22 14 25 14 33 -1 6 -10 23 -16 48 -16 l40 0 0 110
c0 121 -13 168 -52 193 -34 23 -87 28 -138 14z m88 -198 c-2 -12 -12 -28 -24
-35 -17 -12 -23 -12 -40 1 -19 15 -19 15 5 35 32 27 63 27 59 -1z"/>
<path d="M9685 2643 c-11 -3 -31 -14 -45 -25 l-25 -20 -3 21 c-3 18 -10 21
-48 21 l-44 0 0 -160 0 -160 50 0 50 0 0 104 c0 97 2 106 22 120 28 20 33 20
52 0 13 -12 16 -38 16 -120 l0 -104 50 0 50 0 0 105 c0 101 1 105 25 121 45
29 55 8 55 -117 l0 -109 55 0 55 0 0 115 c0 162 -22 208 -99 208 -24 0 -51 -9
-71 -23 -28 -20 -32 -21 -43 -7 -7 9 -25 21 -40 27 -30 11 -30 11 -62 3z"/>
<path d="M10726 2635 c-105 -37 -145 -155 -86 -253 36 -58 127 -83 198 -53 36
15 38 22 16 56 -14 21 -21 24 -53 19 -42 -7 -67 10 -77 52 -15 58 21 109 71
101 27 -5 36 -1 54 24 26 35 22 45 -27 59 -46 12 -48 12 -96 -5z"/>
<path d="M11207 2636 c-50 -18 -67 -34 -88 -81 -25 -54 -24 -102 4 -155 28
-57 74 -84 140 -83 151 2 205 214 77 304 -35 24 -89 30 -133 15z m84 -92 c7
-9 13 -37 13 -64 0 -55 -16 -80 -50 -80 -29 0 -44 27 -44 80 0 23 5 50 10 61
13 23 53 25 71 3z"/>
<path d="M11636 2640 c-15 -5 -37 -17 -48 -26 -18 -17 -19 -17 -25 4 -4 18
-12 22 -49 22 l-44 0 0 -160 0 -160 55 0 55 0 0 108 c0 106 1 109 25 120 52
24 65 -4 65 -144 l0 -84 50 0 50 0 0 121 c0 140 -13 181 -62 198 -35 12 -33
12 -72 1z"/>
<path d="M6492 2628 c3 -7 27 -79 54 -160 l48 -148 61 0 61 0 47 149 c26 83
47 155 47 161 0 7 -17 10 -47 8 l-47 -3 -26 -105 c-15 -58 -29 -112 -32 -120
-2 -8 -18 39 -34 105 l-30 120 -53 3 c-41 2 -52 0 -49 -10z"/>
<path d="M6860 2480 l0 -160 55 0 55 0 0 160 0 160 -55 0 -55 0 0 -160z"/>
<path d="M10440 2480 l0 -160 55 0 55 0 0 160 0 160 -55 0 -55 0 0 -160z"/>
<path d="M10930 2480 l0 -160 55 0 55 0 0 160 0 160 -55 0 -55 0 0 -160z"/>
<path d="M11867 2422 c-18 -19 -22 -59 -9 -78 24 -37 91 -36 106 1 11 29 7 63
-10 79 -21 22 -67 20 -87 -2z"/>
<path d="M5230 1280 l0 -600 2226 0 2225 0 -20 26 c-26 33 -26 54 -1 87 13 16
16 28 10 32 -13 8 -13 51 0 75 7 13 5 27 -6 50 -18 35 -14 91 8 117 28 34 74
44 173 37 l95 -7 0 -33 c0 -26 -4 -34 -18 -34 -14 0 -17 -8 -17 -40 0 -59 -37
-92 -110 -98 -74 -6 -67 -26 11 -30 79 -3 101 -9 124 -32 31 -31 26 -76 -14
-116 l-34 -34 1689 0 1689 0 0 600 0 600 -4015 0 -4015 0 0 -600z m3264 544
c19 -18 21 -55 4 -72 -13 -13 -56 -16 -82 -6 -23 9 -21 70 2 83 25 15 58 13
76 -5z m896 -215 l0 -210 -52 0 c-29 0 -74 -2 -99 -5 -92 -11 -139 42 -139
158 0 107 57 167 147 154 l43 -6 0 60 0 60 50 0 50 0 0 -211z m-2659 71 l59
-115 0 118 0 117 50 0 50 0 0 -200 0 -200 -57 0 -58 0 -55 107 -55 107 -3
-107 -3 -107 -49 0 -50 0 0 200 0 201 56 -3 56 -3 59 -115z m799 65 c0 -45 0
-45 35 -45 34 0 35 -1 35 -40 0 -39 -1 -40 -35 -40 l-36 0 3 -72 c3 -72 3 -73
33 -78 23 -4 31 -11 36 -37 4 -23 2 -33 -8 -37 -25 -10 -103 -7 -125 5 -30 16
-48 71 -48 149 0 63 -2 70 -20 70 -17 0 -20 7 -20 40 0 36 3 40 25 40 22 0 25
4 25 38 0 21 3 42 7 45 3 4 26 7 50 7 l43 0 0 -45z m3990 0 c0 -45 0 -45 35
-45 34 0 35 -1 35 -40 0 -39 -1 -40 -35 -40 l-35 0 0 -59 c0 -77 6 -91 40 -91
24 0 30 -5 35 -31 9 -39 -4 -49 -67 -49 -35 0 -54 6 -75 24 -26 23 -28 30 -31
115 -4 82 -6 91 -23 91 -13 0 -19 7 -19 23 -1 21 -2 21 -24 -7 -20 -24 -27
-26 -44 -17 -25 13 -72 15 -72 2 0 -13 22 -29 51 -36 14 -3 38 -17 54 -29 41
-33 42 -94 3 -133 -36 -35 -121 -44 -179 -18 -44 20 -48 32 -20 66 18 22 19
22 55 5 38 -18 80 -14 73 7 -2 7 -29 24 -60 39 -57 27 -77 50 -77 87 0 84 111
129 203 82 29 -15 37 -16 37 -5 0 8 9 14 19 14 21 0 31 19 31 61 0 28 2 29 45
29 l45 0 0 -45z m-5056 -51 c9 -8 16 -28 16 -44 0 -36 -23 -60 -57 -60 -55 0
-83 62 -46 102 20 22 66 24 87 2z m696 -2 c53 -26 80 -74 80 -141 0 -97 -60
-161 -150 -161 -90 0 -150 64 -150 161 0 92 63 159 150 159 19 0 51 -8 70 -18z
m660 5 c41 -21 70 -74 70 -128 l0 -49 -91 0 -91 0 15 -22 c13 -20 23 -23 75
-21 54 1 61 -1 71 -23 15 -34 15 -33 -24 -50 -85 -35 -180 -7 -218 66 -24 46
-19 139 9 178 40 54 127 78 184 49z m469 -2 c38 -19 61 -71 61 -140 0 -109
-53 -170 -142 -162 l-48 4 0 -53 0 -54 -50 0 -50 0 0 206 0 207 53 -6 c30 -3
60 -1 68 4 21 13 77 11 108 -6z m471 2 c41 -21 70 -74 70 -128 l0 -49 -91 0
-91 0 15 -22 c13 -20 23 -23 75 -21 54 1 61 -1 71 -23 15 -34 15 -33 -24 -50
-85 -35 -180 -7 -218 66 -24 46 -19 139 9 178 40 54 127 78 184 49z m332 8 c3
-3 1 -24 -4 -45 -9 -35 -14 -40 -38 -40 -50 0 -70 -39 -70 -136 l0 -84 -50 0
-50 0 0 150 0 150 45 0 c34 0 45 -4 45 -16 0 -13 5 -12 26 5 25 19 83 29 96
16z m586 -29 c26 -25 27 -31 30 -152 l4 -125 -59 0 c-32 1 -78 -2 -102 -5 -50
-7 -84 7 -100 43 -35 76 8 134 111 151 44 8 52 19 26 36 -17 10 -24 9 -88 -18
-18 -7 -56 52 -42 66 21 21 90 38 140 35 42 -3 59 -10 80 -31z m296 10 l26
-17 -22 -30 c-15 -20 -27 -27 -38 -23 -27 12 -80 16 -80 6 0 -14 21 -29 51
-37 14 -3 38 -17 54 -29 41 -33 42 -94 3 -133 -36 -35 -121 -44 -179 -18 -44
20 -48 32 -20 66 18 22 19 22 55 5 38 -18 80 -14 73 7 -2 7 -29 24 -60 39 -31
15 -61 36 -66 47 -24 44 -5 101 43 126 39 20 124 15 160 -9z m417 14 c38 -21
49 -62 49 -185 l0 -115 -49 0 -49 0 -4 105 c-3 115 -14 137 -53 111 -17 -12
-20 -26 -23 -115 l-3 -101 -49 0 -50 0 0 150 0 150 39 0 c22 0 43 -5 46 -10 4
-6 16 -5 33 5 32 17 85 19 113 5z m649 -5 c44 -23 80 -108 65 -155 -6 -18 -15
-20 -91 -20 -46 0 -84 -4 -84 -8 0 -15 37 -43 56 -44 11 0 33 3 51 7 28 6 33
4 47 -23 15 -30 15 -30 -18 -46 -78 -37 -182 -11 -221 55 -27 46 -26 139 2
177 49 67 129 90 193 57z m810 1 c0 -7 -3 -28 -6 -45 -6 -26 -11 -31 -35 -31
-54 0 -69 -29 -69 -130 l0 -90 -50 0 -50 0 0 150 0 150 39 0 c22 0 43 -5 46
-10 4 -6 16 -5 33 5 35 19 92 20 92 1z m228 -5 c74 -38 102 -140 60 -221 -55
-108 -211 -108 -265 0 -29 55 -29 101 -2 157 37 76 129 104 207 64z m-3578
-141 l0 -150 -50 0 -50 0 0 150 0 150 50 0 50 0 0 -150z m2100 46 c0 -119 11
-141 55 -112 24 16 25 21 25 116 l0 100 50 0 50 0 0 -150 0 -150 -45 0 c-25 0
-45 5 -45 10 0 6 -13 4 -30 -5 -30 -15 -86 -20 -115 -9 -34 13 -45 59 -45 184
l0 120 50 0 50 0 0 -104z m-4137 -103 c4 -38 7 -98 7 -135 l0 -68 -51 0 -51 0
7 128 c4 70 9 130 12 135 2 4 19 7 37 7 l33 0 6 -67z m2633 -244 c3 -6 -15
-33 -42 -60 -43 -44 -53 -49 -91 -49 -24 0 -43 3 -43 6 0 3 15 30 33 60 l32
53 52 1 c28 0 55 -5 59 -11z m164 -199 c0 -141 3 -170 15 -178 9 -4 18 -25 22
-45 l6 -37 -46 0 c-29 0 -53 7 -68 19 -24 19 -24 23 -27 215 l-3 196 50 0 51
0 0 -170z m1165 73 c-3 -49 -8 -112 -11 -140 -5 -52 -6 -53 -39 -53 l-33 0 -6
63 c-3 34 -8 97 -10 140 l-6 77 56 0 55 0 -6 -87z m-1685 22 c0 -45 0 -45 35
-45 34 0 35 -1 35 -40 0 -39 -1 -40 -35 -40 l-35 0 0 -59 c0 -77 6 -91 40 -91
24 0 30 -5 35 -31 9 -39 -4 -49 -68 -49 -40 0 -53 5 -78 29 -28 28 -29 34 -29
115 0 79 -2 86 -20 86 -17 0 -20 7 -20 40 0 33 4 40 19 40 19 0 31 25 31 68 0
19 5 22 45 22 l45 0 0 -45z m-472 -58 c15 -16 14 -19 -5 -44 -12 -16 -27 -26
-35 -24 -7 2 -20 5 -29 8 -8 2 -26 -4 -39 -15 -48 -39 -22 -142 35 -142 11 0
27 6 34 13 10 10 17 6 37 -18 13 -16 24 -33 24 -36 0 -19 -76 -41 -127 -37
-46 4 -60 10 -91 41 -34 34 -37 42 -40 104 -4 83 18 124 81 154 50 23 129 21
155 -4z m241 12 c50 -18 65 -57 69 -186 l4 -113 -46 0 c-26 0 -46 5 -46 11 0
5 -10 3 -22 -5 -36 -25 -104 -21 -133 9 -38 37 -35 105 5 139 17 14 49 28 75
32 52 7 61 16 39 35 -13 11 -23 10 -60 -3 l-45 -16 -14 29 c-22 41 -19 46 28
62 51 19 103 21 146 6z m532 -5 c45 -23 59 -67 59 -189 l0 -105 -45 0 c-25 0
-45 5 -45 11 0 5 -10 3 -22 -5 -36 -25 -104 -21 -133 9 -31 30 -34 91 -6 127
19 24 78 48 120 48 12 0 21 6 21 15 0 23 -45 29 -81 11 -18 -9 -34 -16 -35
-16 -4 0 -34 57 -34 65 0 3 19 15 43 25 51 24 117 25 158 4z m497 -3 c74 -38
102 -140 60 -221 -55 -108 -211 -108 -265 0 -29 55 -29 101 -2 157 37 76 129
104 207 64z m642 1 c43 -23 80 -90 80 -147 0 -85 -66 -155 -147 -155 -111 0
-179 89 -154 199 22 99 131 150 221 103z m240 -202 c39 -39 12 -100 -44 -100
-40 0 -59 20 -59 62 0 54 63 78 103 38z"/>
<path d="M9226 1614 c-50 -49 -13 -172 42 -138 25 16 30 123 6 141 -23 17 -29
16 -48 -3z"/>
<path d="M7067 1615 c-47 -46 -17 -162 37 -142 38 15 44 107 10 142 -19 19
-29 19 -47 0z"/>
<path d="M7725 1610 c-18 -20 -17 -20 28 -20 48 0 56 7 35 28 -18 18 -43 15
-63 -8z"/>
<path d="M8178 1619 c-14 -8 -18 -24 -18 -74 0 -61 2 -65 25 -71 34 -8 52 9
60 56 11 67 -24 115 -67 89z"/>
<path d="M8665 1610 c-18 -20 -17 -20 28 -20 48 0 56 7 35 28 -18 18 -43 15
-63 -8z"/>
<path d="M9560 1512 c-25 -20 -20 -42 9 -42 22 0 41 19 41 42 0 23 -22 23 -50
0z"/>
<path d="M10942 1618 c-21 -21 -14 -28 29 -28 33 0 40 3 37 18 -4 21 -48 28
-66 10z"/>
<path d="M11976 1608 c-22 -31 -21 -101 2 -121 24 -22 35 -21 55 1 33 36 12
142 -28 142 -8 0 -21 -10 -29 -22z"/>
<path d="M8433 920 c-25 -10 -32 -50 -9 -50 30 0 46 13 46 36 0 26 -4 27 -37
14z"/>
<path d="M8953 918 c-31 -15 -30 -48 0 -48 28 0 47 17 47 42 0 20 -14 22 -47
6z"/>
<path d="M9436 1008 c-22 -31 -21 -101 2 -121 24 -22 35 -21 55 1 33 36 12
142 -28 142 -8 0 -21 -10 -29 -22z"/>
<path d="M10076 1008 c-31 -43 -10 -138 29 -138 44 0 65 109 27 143 -25 23
-38 21 -56 -5z"/>
<path d="M9762 1028 c-17 -17 -15 -53 3 -68 23 -19 47 6 43 44 -3 33 -25 45
-46 24z"/>
<path d="M9733 773 c-14 -36 60 -55 97 -25 14 11 23 22 20 25 -3 2 -29 7 -58
9 -41 4 -55 2 -59 -9z"/>
<path d="M13061 347 c-8 -11 -5 -14 19 -14 24 0 27 3 19 14 -6 7 -15 13 -19
13 -4 0 -13 -6 -19 -13z"/>
</g>
</svg>
