<?xml version="1.0" standalone="no"?>
<!DOCTYPE svg PUBLIC "-//W3C//DTD SVG 20010904//EN"
 "http://www.w3.org/TR/2001/REC-SVG-20010904/DTD/svg10.dtd">
<svg version="1.0" xmlns="http://www.w3.org/2000/svg"
 width="1366.000000pt" height="580.000000pt" viewBox="0 0 1366.000000 580.000000"
 preserveAspectRatio="xMidYMid meet">

<g transform="translate(0.000000,580.000000) scale(0.100000,-0.100000)"
fill="#000000" stroke="none">
<path d="M526 5481 c-4 -5 -2 -12 3 -15 5 -4 12 -2 15 3 4 5 2 12 -3 15 -5 4
-12 2 -15 -3z"/>
<path d="M780 5475 c0 -8 5 -15 10 -15 6 0 10 7 10 15 0 8 -4 15 -10 15 -5 0
-10 -7 -10 -15z"/>
<path d="M1571 5473 c-44 -36 -22 -103 34 -103 25 0 63 25 53 36 -4 4 -14 1
-22 -5 -8 -7 -25 -11 -38 -9 -18 2 -23 9 -23 32 0 37 27 56 55 38 26 -16 30
-15 30 3 0 8 -6 15 -12 15 -7 0 -22 3 -34 6 -12 3 -30 -2 -43 -13z"/>
<path d="M2770 5475 c-19 -23 -8 -48 28 -57 35 -9 41 -22 16 -32 -10 -4 -25 1
-35 10 -18 16 -19 16 -19 -2 0 -15 8 -20 34 -22 61 -4 75 54 16 68 -13 3 -25
11 -28 18 -5 16 30 16 46 0 9 -9 12 -8 12 4 0 9 -10 18 -22 22 -32 8 -34 8
-48 -9z"/>
<path d="M325 5425 c0 -50 2 -55 23 -55 12 0 22 5 22 10 0 6 -4 10 -10 10 -5
0 -10 18 -10 40 0 33 3 40 19 40 29 0 37 -21 15 -37 -18 -14 -18 -14 6 -11 19
2 26 10 28 31 3 26 2 27 -45 27 l-48 0 0 -55z"/>
<path d="M1035 5425 c0 -47 3 -55 19 -55 12 0 16 5 12 16 -3 9 -6 33 -6 55 0
25 -5 39 -12 39 -9 0 -13 -18 -13 -55z"/>
<path d="M2969 5471 c10 -6 12 -22 9 -53 l-5 -45 35 1 c42 1 63 26 46 54 -7 9
-21 17 -33 16 -14 0 -21 5 -21 18 0 12 -7 18 -22 18 -17 0 -20 -3 -9 -9z m71
-61 c0 -13 -7 -20 -20 -20 -13 0 -20 7 -20 20 0 13 7 20 20 20 13 0 20 -7 20
-20z"/>
<path d="M3712 5464 c-17 -31 2 -94 28 -94 11 0 20 5 20 10 0 6 -7 10 -15 10
-21 0 -19 30 3 46 16 12 16 13 0 14 -9 0 -18 8 -20 18 -3 15 -5 15 -16 -4z"/>
<path d="M445 5409 c0 -31 3 -39 17 -39 15 0 17 5 12 25 -4 18 -1 27 10 31 25
10 19 21 -12 22 -25 0 -27 -2 -27 -39z"/>
<path d="M522 5430 c10 -16 10 -24 0 -40 -11 -18 -10 -20 11 -20 20 0 22 4 19
40 -3 31 -8 40 -23 40 -17 0 -18 -3 -7 -20z"/>
<path d="M575 5409 c0 -30 3 -39 17 -39 14 0 16 6 12 30 -6 26 -4 30 16 30 20
0 22 -4 17 -30 -6 -25 -3 -30 13 -30 20 0 21 14 5 67 -2 6 -21 12 -42 11 -38
0 -38 -1 -38 -39z"/>
<path d="M692 5438 c-27 -27 -6 -68 35 -68 30 0 30 18 1 22 -13 2 -24 11 -26
22 -4 16 0 18 27 13 23 -5 31 -3 31 8 0 18 -51 20 -68 3z"/>
<path d="M775 5410 c0 -32 3 -40 18 -40 13 0 17 5 13 16 -3 9 -6 27 -6 40 0
13 -6 24 -13 24 -8 0 -12 -14 -12 -40z"/>
<path d="M820 5439 c0 -5 5 -9 10 -9 15 0 12 -77 -2 -83 -7 -3 -3 -6 9 -6 16
-1 21 3 17 14 -5 11 1 15 20 15 32 0 51 31 36 59 -7 15 -20 20 -50 19 -22 0
-40 -4 -40 -9z m78 -26 c5 -17 -26 -29 -40 -15 -6 6 -7 15 -3 22 9 14 37 9 43
-7z"/>
<path d="M940 5440 c0 -5 12 -10 27 -10 30 0 21 -16 -12 -22 -38 -7 -23 -33
21 -35 39 -2 41 -1 36 25 -3 15 -9 33 -15 40 -11 14 -57 16 -57 2z m42 -52
c-9 -9 -15 -9 -24 0 -9 9 -7 12 12 12 19 0 21 -3 12 -12z"/>
<path d="M1693 5444 c-7 -3 -13 -16 -13 -29 0 -44 50 -60 74 -22 20 32 -22 67
-61 51z m47 -34 c0 -13 -7 -20 -20 -20 -13 0 -20 7 -20 20 0 13 7 20 20 20 13
0 20 -7 20 -20z"/>
<path d="M1783 5428 c9 -14 9 -23 -1 -38 -11 -18 -10 -20 11 -20 20 0 23 4 19
30 -3 24 -1 30 13 30 14 0 16 -6 12 -30 -6 -25 -3 -30 13 -30 16 0 19 5 14 30
-6 26 -4 30 16 30 20 0 22 -4 17 -30 -6 -25 -3 -30 13 -30 20 0 21 13 5 66 -2
7 -30 11 -73 11 -65 -1 -69 -2 -59 -19z"/>
<path d="M1945 5394 c0 -44 3 -54 17 -54 11 0 15 6 11 19 -4 15 0 18 20 14 19
-4 27 0 32 16 12 39 -2 60 -43 59 l-37 0 0 -54z m65 16 c0 -13 -7 -20 -20 -20
-13 0 -20 7 -20 20 0 13 7 20 20 20 13 0 20 -7 20 -20z"/>
<path d="M2055 5409 c0 -30 3 -39 17 -39 14 0 16 6 12 30 -5 23 -3 30 10 30
28 0 17 17 -12 18 -25 0 -27 -2 -27 -39z"/>
<path d="M2130 5440 c0 -5 9 -10 20 -10 27 0 25 -18 -2 -22 -39 -5 -28 -33 14
-34 40 -2 41 3 22 64 -4 14 -54 17 -54 2z m40 -50 c0 -5 -4 -10 -9 -10 -6 0
-13 5 -16 10 -3 6 1 10 9 10 9 0 16 -4 16 -10z"/>
<path d="M2225 5409 c0 -30 3 -39 17 -39 14 0 16 6 12 30 -5 23 -3 30 10 30
28 0 17 17 -12 18 -25 0 -27 -2 -27 -39z"/>
<path d="M2883 5444 c-7 -3 -13 -16 -13 -29 0 -44 50 -60 74 -22 20 32 -22 67
-61 51z m47 -34 c0 -13 -7 -20 -20 -20 -13 0 -20 7 -20 20 0 13 7 20 20 20 13
0 20 -7 20 -20z"/>
<path d="M3083 5429 c9 -15 9 -23 -1 -39 -11 -18 -10 -20 13 -20 22 0 24 3 19
30 -5 23 -3 30 10 30 32 0 15 16 -18 17 -32 1 -34 -1 -23 -18z"/>
<path d="M3163 5443 c-7 -2 -13 -17 -13 -33 0 -28 15 -40 51 -40 29 0 23 18
-8 23 -26 4 -26 4 5 6 33 1 42 17 20 39 -12 12 -33 14 -55 5z m42 -13 c3 -5
-3 -10 -15 -10 -12 0 -18 5 -15 10 3 6 10 10 15 10 5 0 12 -4 15 -10z"/>
<path d="M3305 5409 c0 -30 3 -39 17 -39 14 0 16 6 12 30 -6 26 -4 30 16 30
20 0 22 -4 17 -30 -6 -25 -3 -30 13 -30 20 0 21 14 5 67 -2 6 -21 12 -42 11
-38 0 -38 -1 -38 -39z"/>
<path d="M3433 5444 c-7 -3 -13 -16 -13 -29 0 -44 50 -60 74 -22 20 32 -22 67
-61 51z m47 -34 c0 -13 -7 -20 -20 -20 -13 0 -20 7 -20 20 0 13 7 20 20 20 13
0 20 -7 20 -20z"/>
<path d="M3527 5443 c-15 -14 -6 -33 18 -39 14 -3 25 -10 25 -15 0 -13 -24
-11 -38 3 -9 9 -12 8 -12 -6 0 -13 7 -17 32 -14 42 4 51 34 14 44 -14 3 -26
11 -26 16 0 6 9 8 20 5 11 -3 20 -1 20 4 0 10 -43 12 -53 2z"/>
<path d="M3623 5444 c-7 -3 -13 -16 -13 -29 0 -44 50 -60 74 -22 20 32 -22 67
-61 51z m47 -34 c0 -13 -7 -20 -20 -20 -13 0 -20 7 -20 20 0 13 7 20 20 20 13
0 20 -7 20 -20z"/>
<path d="M3775 5409 c0 -31 3 -39 17 -39 15 0 17 5 12 25 -4 18 -1 27 10 31
25 10 19 21 -12 22 -25 0 -27 -2 -27 -39z"/>
<path d="M3850 5430 c-15 -28 4 -60 35 -60 14 0 29 8 35 20 15 28 -4 60 -35
60 -14 0 -29 -8 -35 -20z m58 -17 c5 -17 -26 -29 -40 -15 -6 6 -7 15 -3 22 9
14 37 9 43 -7z"/>
<path d="M3950 5431 c0 -11 9 -23 20 -26 11 -3 20 -11 20 -16 0 -13 -14 -11
-28 3 -9 9 -12 8 -12 -5 0 -21 55 -24 63 -3 6 16 -11 36 -30 36 -7 0 -13 5
-13 11 0 6 9 8 20 4 11 -4 20 -2 20 4 0 6 -13 11 -30 11 -23 0 -30 -5 -30 -19z"/>
<path d="M7963 4245 c-28 -43 -28 -45 0 -45 21 0 87 56 87 73 0 4 -15 7 -32 7
-27 0 -37 -7 -55 -35z"/>
<path d="M5737 4246 c-11 -28 4 -47 32 -44 20 2 26 8 26 28 0 20 -6 26 -26 28
-17 2 -29 -3 -32 -12z"/>
<path d="M6074 4245 c-9 -23 3 -45 24 -45 25 0 44 23 36 44 -8 20 -53 21 -60
1z"/>
<path d="M7754 4245 c-10 -25 4 -47 28 -43 17 2 24 11 26 31 3 23 0 27 -23 27
-14 0 -28 -7 -31 -15z"/>
<path d="M6670 4200 c0 -54 -1 -55 -32 -39 -14 8 -28 7 -49 -2 -44 -18 -59
-46 -59 -112 0 -48 4 -62 25 -82 27 -28 82 -34 104 -12 11 10 14 10 18 0 3 -7
16 -13 29 -13 l24 0 0 155 0 155 -30 0 c-29 0 -30 -1 -30 -50z m-9 -90 c6 0 9
-25 7 -57 -3 -52 -5 -58 -26 -61 -34 -5 -52 15 -52 59 0 41 24 74 47 65 8 -3
19 -6 24 -6z"/>
<path d="M5350 4085 l0 -145 30 0 30 0 0 145 0 145 -30 0 -30 0 0 -145z"/>
<path d="M5565 4153 c-20 -11 -30 -12 -33 -4 -2 6 -15 11 -28 11 -24 0 -24 0
-24 -110 l0 -110 30 0 30 0 0 73 c0 78 9 97 46 97 25 0 34 -31 34 -116 0 -54
0 -54 31 -54 l31 0 -4 96 c-4 86 -7 99 -27 115 -28 23 -47 23 -86 2z"/>
<path d="M5913 4156 c-75 -34 -84 -168 -14 -206 25 -13 87 -13 112 0 31 17 6
47 -36 42 -57 -7 -87 66 -44 109 14 14 28 19 44 15 26 -7 54 19 39 34 -17 17
-69 20 -101 6z"/>
<path d="M6246 4155 c-56 -29 -77 -89 -52 -148 18 -44 51 -67 96 -67 120 0
147 178 33 221 -33 12 -43 11 -77 -6z m65 -45 c14 -8 19 -21 19 -50 0 -56 -8
-70 -40 -70 -32 0 -40 14 -40 70 0 27 6 42 18 49 21 13 20 13 43 1z"/>
<path d="M6842 4155 c-68 -30 -80 -135 -22 -187 34 -31 102 -39 135 -15 24 18
4 32 -49 33 -26 0 -43 7 -53 20 -13 18 -11 19 52 22 76 3 84 12 66 73 -8 26
-21 44 -41 54 -35 18 -46 18 -88 0z m78 -55 c10 -19 8 -20 -35 -20 -50 0 -52
2 -29 24 21 22 51 20 64 -4z"/>
<path d="M7160 4163 c-30 -11 -50 -37 -50 -63 0 -31 23 -55 68 -71 34 -11 43
-36 17 -45 -8 -3 -28 -1 -44 4 -24 8 -32 7 -43 -5 -19 -23 15 -43 72 -43 36 0
52 5 68 23 40 43 24 83 -44 112 -19 8 -34 21 -34 30 0 13 9 16 42 13 33 -2 43
1 46 13 5 25 -60 46 -98 32z"/>
<path d="M7366 4155 c-37 -19 -53 -41 -61 -82 -7 -39 15 -95 46 -117 42 -29
146 -15 133 18 -4 10 -20 14 -51 13 -34 -2 -48 3 -59 18 -15 19 -13 20 56 23
l70 3 0 30 c0 41 -23 83 -55 97 -34 15 -44 15 -79 -3z m74 -55 c10 -19 8 -20
-36 -20 -46 0 -47 0 -29 20 10 11 26 20 36 20 10 0 23 -9 29 -20z"/>
<path d="M7578 4155 c-58 -32 -47 -85 24 -121 47 -24 49 -27 34 -42 -14 -14
-21 -15 -49 -4 -28 11 -34 10 -45 -5 -10 -15 -9 -19 10 -30 13 -7 42 -12 66
-13 54 0 85 27 80 73 -2 27 -11 36 -48 55 -55 28 -59 47 -8 47 45 0 66 16 44
34 -23 19 -78 23 -108 6z"/>
<path d="M7922 4155 c-41 -18 -66 -73 -58 -125 13 -84 117 -120 177 -61 24 25
29 37 29 80 0 41 -5 56 -27 81 -34 36 -76 45 -121 25z m72 -51 c20 -19 21 -88
2 -104 -8 -6 -25 -10 -38 -8 -20 3 -23 10 -26 53 -3 38 1 52 14 62 23 17 29
16 48 -3z"/>
<path d="M8205 4153 c-20 -11 -30 -12 -33 -4 -2 6 -15 11 -28 11 -24 0 -24 0
-24 -110 l0 -110 30 0 30 0 0 73 c0 78 9 97 46 97 28 0 34 -17 34 -101 l0 -69
31 0 31 0 -4 96 c-3 86 -5 98 -27 115 -28 23 -46 23 -86 2z"/>
<path d="M5740 4050 l0 -110 30 0 30 0 0 110 0 110 -30 0 -30 0 0 -110z"/>
<path d="M6070 4050 l0 -110 30 0 30 0 0 110 0 110 -30 0 -30 0 0 -110z"/>
<path d="M7750 4050 l0 -110 30 0 30 0 0 110 0 110 -30 0 -30 0 0 -110z"/>
<path d="M7375 3695 c-24 -23 -25 -29 -25 -155 0 -126 1 -132 25 -155 l24 -25
346 0 346 0 24 25 c24 23 25 29 25 155 0 126 -1 132 -25 155 l-24 25 -346 0
-346 0 -24 -25z m305 -73 c0 -13 -23 -32 -37 -32 -11 0 -11 5 -3 20 10 19 40
28 40 12z m100 -26 c0 -8 6 -17 13 -20 10 -5 10 -7 0 -12 -7 -3 -13 -19 -13
-35 0 -18 4 -28 10 -24 6 3 10 2 10 -4 0 -17 -20 -23 -35 -11 -10 8 -19 9 -35
0 -23 -12 -60 -5 -60 12 0 6 9 8 20 5 30 -8 33 8 4 22 -38 17 -28 45 19 49 24
2 37 8 37 18 0 8 7 14 15 14 8 0 15 -6 15 -14z m210 0 c0 -8 6 -17 13 -20 10
-5 10 -7 0 -12 -7 -3 -13 -19 -13 -35 0 -18 4 -28 10 -24 6 3 10 2 10 -4 0
-14 -16 -22 -33 -15 -15 5 -27 73 -19 107 5 20 32 23 32 3z m-540 -25 c0 -5
-7 -11 -15 -15 -9 -3 -15 -18 -15 -36 0 -20 -5 -30 -15 -30 -11 0 -15 12 -15
45 0 43 1 45 30 45 17 0 30 -4 30 -9z m76 -2 c4 -8 9 -8 17 0 6 6 35 11 64 11
l53 0 0 -45 c0 -32 -4 -45 -14 -45 -7 0 -16 -9 -19 -21 -5 -17 -12 -20 -44
-17 -37 3 -38 4 -38 41 1 36 0 37 -33 37 -23 0 -32 -4 -29 -12 2 -7 14 -12 26
-11 25 3 28 -12 5 -21 -42 -16 -83 51 -52 82 15 15 55 16 64 1z m414 -8 c5
-11 10 -31 10 -44 0 -19 -6 -26 -31 -31 -57 -11 -80 32 -31 58 l27 15 -37 1
c-37 0 -38 -1 -38 -35 0 -24 -5 -35 -15 -35 -11 0 -15 12 -15 45 l0 45 60 0
c48 0 61 -4 70 -19z m148 7 c22 -22 13 -38 -19 -38 -20 0 -29 -4 -26 -12 2 -7
14 -12 26 -11 25 3 28 -12 5 -21 -24 -9 -64 20 -64 47 0 29 18 47 45 47 12 0
26 -5 33 -12z"/>
<path d="M7705 3550 c3 -5 12 -10 20 -10 7 0 16 -6 18 -12 3 -7 6 -3 6 10 1
17 -4 22 -25 22 -14 0 -23 -4 -19 -10z"/>
<path d="M7488 3553 c7 -3 16 -2 19 1 4 3 -2 6 -13 5 -11 0 -14 -3 -6 -6z"/>
<path d="M7570 3545 c0 -8 5 -15 10 -15 6 0 10 7 10 15 0 8 -4 15 -10 15 -5 0
-10 -7 -10 -15z"/>
<path d="M7620 3545 c0 -8 -12 -21 -27 -29 l-28 -15 33 -1 c29 0 32 3 32 30 0
17 -2 30 -5 30 -3 0 -5 -7 -5 -15z"/>
<path d="M7568 3468 c9 -9 15 -9 24 0 9 9 7 12 -12 12 -19 0 -21 -3 -12 -12z"/>
<path d="M7895 3520 c-3 -5 1 -10 9 -10 9 0 16 5 16 10 0 6 -4 10 -9 10 -6 0
-13 -4 -16 -10z"/>
<path d="M8048 3553 c7 -3 16 -2 19 1 4 3 -2 6 -13 5 -11 0 -14 -3 -6 -6z"/>
<path d="M5542 3598 c-20 -20 -14 -37 19 -53 36 -19 33 -40 -4 -40 -15 1 -23
-3 -18 -8 16 -16 56 -3 59 20 2 16 -5 26 -28 38 -38 19 -34 41 6 38 22 -2 25
0 14 7 -20 13 -34 12 -48 -2z"/>
<path d="M5938 3590 c-2 -7 -1 -31 2 -54 4 -31 10 -41 25 -44 18 -2 18 -2 3 8
-11 6 -18 23 -18 40 0 22 5 30 18 31 13 0 14 2 2 6 -8 3 -18 10 -21 16 -4 5
-8 4 -11 -3z"/>
<path d="M7128 3588 c-8 -22 7 -91 20 -94 7 -1 8 0 2 3 -12 6 -13 70 -1 75 5
2 3 8 -4 15 -10 9 -15 9 -17 1z"/>
<path d="M5633 3535 c0 -27 2 -38 4 -22 2 15 2 37 0 50 -2 12 -4 0 -4 -28z"/>
<path d="M5747 3569 c6 -8 13 -30 16 -49 4 -28 4 -26 3 9 -1 30 -6 46 -16 49
-12 4 -13 2 -3 -9z"/>
<path d="M5808 3554 c-21 -46 30 -88 59 -48 17 23 16 39 -3 58 -23 23 -43 20
-56 -10z m52 1 c18 -22 3 -57 -23 -53 -25 3 -34 32 -17 53 16 19 24 19 40 0z"/>
<path d="M6003 3535 c0 -27 2 -38 4 -22 2 15 2 37 0 50 -2 12 -4 0 -4 -28z"/>
<path d="M6052 3568 c-28 -28 -7 -79 33 -77 17 1 17 2 -4 8 -37 10 -38 31 -2
31 19 0 31 5 31 13 0 16 -20 37 -35 37 -6 0 -16 -5 -23 -12z m46 -15 c2 -8 -6
-13 -22 -13 -25 0 -33 10 -19 24 10 10 36 3 41 -11z"/>
<path d="M6153 3573 c-8 -3 -12 -21 -12 -46 l2 -42 6 40 c4 26 11 40 21 40 10
0 17 -14 21 -40 l7 -40 -2 45 c-1 45 -13 56 -43 43z"/>
<path d="M6242 3568 c-6 -6 -12 -24 -12 -39 0 -27 16 -40 48 -38 10 1 7 4 -7
8 -35 9 -37 29 -4 34 l28 4 -27 2 c-31 1 -37 18 -12 28 9 3 20 0 26 -8 8 -12
9 -11 5 1 -5 19 -29 24 -45 8z"/>
<path d="M6323 3563 c-4 -11 1 -22 15 -31 28 -18 28 -29 0 -35 -20 -5 -20 -5
2 -4 32 2 41 36 11 44 -25 7 -28 30 -3 36 16 4 16 5 -1 6 -10 0 -21 -7 -24
-16z"/>
<path d="M6434 3540 c1 -36 5 -45 21 -48 18 -4 19 -3 3 10 -9 7 -19 29 -21 48
-3 26 -4 24 -3 -10z"/>
<path d="M6532 3530 c1 -42 2 -43 5 -8 4 35 24 55 44 42 5 -3 10 -22 10 -42 1
-25 3 -30 6 -13 3 12 2 34 -1 47 -5 18 -12 23 -36 21 -29 -2 -30 -4 -28 -47z"/>
<path d="M6636 3572 c-3 -5 5 -8 17 -8 18 1 22 -5 22 -29 0 -25 -4 -30 -22
-29 -13 0 -23 -3 -23 -8 0 -5 14 -7 30 -6 26 2 30 6 30 33 0 32 -15 55 -36 55
-7 0 -15 -4 -18 -8z"/>
<path d="M6766 3564 c-31 -31 -9 -81 31 -71 15 4 14 5 -4 6 -33 2 -41 40 -13
63 12 10 18 18 12 18 -6 0 -18 -7 -26 -16z"/>
<path d="M6842 3543 c-2 -46 7 -58 38 -48 16 5 20 15 19 43 l-2 37 -6 -35 c-4
-21 -12 -36 -23 -38 -13 -3 -18 6 -21 40 l-4 43 -1 -42z"/>
<path d="M6946 3572 c-3 -5 4 -8 16 -8 12 1 23 -5 26 -13 3 -10 -3 -13 -27 -9
-24 3 -31 1 -31 -12 0 -22 20 -40 45 -39 17 1 17 2 -4 8 -37 10 -38 31 -2 31
19 0 31 5 31 13 0 27 -41 49 -54 29z"/>
<path d="M7043 3573 c-8 -3 -12 -21 -12 -46 l2 -42 6 40 c4 26 11 40 21 40 10
0 17 -14 21 -40 l7 -40 -2 45 c-1 45 -13 56 -43 43z"/>
<path d="M7213 3568 c23 -17 19 -61 -5 -66 -22 -4 -24 25 -3 31 11 4 10 4 -2
3 -10 -1 -19 -11 -21 -24 -3 -20 1 -22 28 -20 30 2 31 4 28 43 -2 31 -8 41
-23 43 -19 4 -19 3 -2 -10z"/>
<path d="M5710 3530 c0 -22 2 -40 4 -40 2 0 6 18 8 40 2 22 0 40 -4 40 -5 0
-8 -18 -8 -40z"/>
<path d="M6488 3534 c-2 -19 0 -37 4 -40 4 -3 8 13 8 35 0 51 -6 53 -12 5z"/>
<path d="M6635 3530 c-3 -6 1 -7 9 -4 18 7 21 14 7 14 -6 0 -13 -4 -16 -10z"/>
<path d="M7270 3501 c0 -5 5 -13 10 -16 6 -3 10 -2 10 4 0 5 -4 13 -10 16 -5
3 -10 2 -10 -4z"/>
<path d="M5259 1441 l-29 -29 0 -222 0 -222 29 -29 29 -29 1542 0 1542 0 29
29 29 29 0 222 0 222 -29 29 -29 29 -1542 0 -1542 0 -29 -29z m983 -168 c22
-20 23 -41 1 -65 -20 -22 -51 -23 -75 -1 -22 20 -23 41 -1 65 20 22 51 23 75
1z m416 -31 c2 -7 -3 -12 -12 -12 -9 0 -16 7 -16 16 0 17 22 14 28 -4z m127 8
c3 -6 -1 -13 -10 -16 -19 -8 -30 0 -20 15 8 14 22 14 30 1z m480 0 c3 -6 -1
-13 -10 -16 -19 -8 -30 0 -20 15 8 14 22 14 30 1z m75 -5 c-7 -8 -19 -15 -26
-15 -8 0 -11 6 -8 15 4 8 15 15 26 15 17 0 18 -3 8 -15z m-820 -50 c0 -42 -3
-55 -15 -55 -12 0 -15 13 -15 55 0 42 3 55 15 55 12 0 15 -13 15 -55z m538 36
c3 -10 -1 -12 -17 -8 -11 3 -21 1 -21 -5 0 -5 9 -12 20 -15 11 -3 20 -10 20
-16 0 -6 7 -1 16 11 21 31 68 27 72 -5 3 -18 -2 -23 -20 -24 -23 -1 -23 -1 2
-8 14 -4 33 -5 44 -3 16 4 17 6 2 14 -9 5 -16 18 -16 28 0 16 7 20 30 20 31 0
42 -16 15 -22 -13 -2 -12 -6 5 -16 18 -11 20 -10 20 13 0 18 5 25 20 25 12 0
20 -7 20 -17 0 -15 1 -15 13 1 9 12 23 17 42 14 25 -2 31 -8 33 -33 3 -19 -2
-33 -14 -42 -24 -17 -30 -17 -54 7 -16 16 -20 17 -20 5 0 -10 -9 -15 -27 -15
-16 1 -54 -1 -86 -3 -39 -3 -63 0 -70 8 -9 10 -17 9 -35 -3 -18 -12 -28 -13
-48 -3 -28 13 -23 35 7 26 10 -4 19 -2 19 4 0 5 -9 12 -19 16 -25 8 -35 34
-20 52 15 17 61 13 67 -6z m-728 -6 c0 -8 7 -15 15 -15 8 0 15 -4 15 -10 0 -5
-7 -10 -15 -10 -8 0 -15 -7 -15 -15 0 -8 -4 -15 -10 -15 -5 0 -10 7 -10 15 0
8 -7 15 -15 15 -8 0 -15 5 -15 10 0 6 7 10 15 10 8 0 15 7 15 15 0 8 5 15 10
15 6 0 10 -7 10 -15z m284 -21 c13 -34 7 -64 -14 -64 -16 0 -20 7 -22 33 l-1
32 -4 -32 c-3 -25 -9 -33 -24 -33 -16 0 -19 7 -19 40 0 40 0 40 39 40 26 0 41
-5 45 -16z m46 -24 c0 -29 -4 -40 -15 -40 -11 0 -15 11 -15 40 0 29 4 40 15
40 11 0 15 -11 15 -40z m80 31 c0 -5 -9 -11 -20 -14 -11 -3 -20 -10 -20 -17 0
-7 9 -14 20 -17 22 -6 26 -18 10 -28 -34 -21 -76 39 -50 70 13 16 60 21 60 6z
m50 -15 c0 -22 2 -23 25 -13 23 11 23 12 5 15 -34 6 -22 23 13 20 29 -3 32 -6
35 -39 3 -33 0 -37 -25 -42 -15 -3 -32 -2 -38 1 -5 4 -20 5 -32 3 -21 -2 -23
2 -23 38 0 34 3 41 20 41 14 0 20 -7 20 -24z m148 10 c-10 -7 -18 -25 -18 -40
0 -19 -5 -26 -20 -26 -17 0 -20 7 -20 40 0 40 0 40 38 40 33 -1 35 -2 20 -14z
m510 -28 c2 -29 0 -38 -12 -38 -11 0 -16 9 -16 30 0 17 -4 30 -10 30 -5 0 -10
-13 -10 -30 0 -20 -5 -30 -15 -30 -11 0 -15 11 -15 41 l0 40 38 -3 c35 -3 37
-5 40 -40z m-1170 -20 c14 -14 16 -68 2 -68 -5 0 -10 8 -10 18 0 29 -21 42
-65 42 -44 0 -65 -13 -65 -42 0 -10 -4 -18 -10 -18 -14 0 -12 54 2 68 16 16
130 16 146 0z"/>
<path d="M6184 1256 c-9 -24 4 -48 23 -44 12 2 18 12 18 28 0 29 -32 41 -41
16z"/>
<path d="M7310 1180 c0 -11 5 -20 10 -20 6 0 10 9 10 20 0 11 -4 20 -10 20 -5
0 -10 -9 -10 -20z"/>
</g>
</svg>
