<?xml version="1.0" standalone="no"?>
<!DOCTYPE svg PUBLIC "-//W3C//DTD SVG 20010904//EN"
 "http://www.w3.org/TR/2001/REC-SVG-20010904/DTD/svg10.dtd">
<svg version="1.0" xmlns="http://www.w3.org/2000/svg"
 width="1349.000000pt" height="600.000000pt" viewBox="0 0 1349.000000 600.000000"
 preserveAspectRatio="xMidYMid meet">

<g transform="translate(0.000000,600.000000) scale(0.100000,-0.100000)"
fill="#000000" stroke="none">
<path d="M526 5691 c-4 -5 -2 -12 3 -15 5 -4 12 -2 15 3 4 5 2 12 -3 15 -5 4
-12 2 -15 -3z"/>
<path d="M780 5685 c0 -8 5 -15 10 -15 6 0 10 7 10 15 0 8 -4 15 -10 15 -5 0
-10 -7 -10 -15z"/>
<path d="M1571 5683 c-44 -36 -22 -103 34 -103 25 0 63 25 53 36 -4 4 -14 1
-22 -5 -8 -7 -25 -11 -38 -9 -18 2 -23 9 -23 32 0 37 27 56 55 38 26 -16 30
-15 30 3 0 8 -6 15 -12 15 -7 0 -22 3 -34 6 -12 3 -30 -2 -43 -13z"/>
<path d="M2770 5685 c-19 -23 -8 -48 28 -57 35 -9 41 -22 16 -32 -10 -4 -25 1
-35 10 -18 16 -19 16 -19 -2 0 -15 8 -20 34 -22 61 -4 75 54 16 68 -13 3 -25
11 -28 18 -5 16 30 16 46 0 9 -9 12 -8 12 4 0 9 -10 18 -22 22 -32 8 -34 8
-48 -9z"/>
<path d="M12270 5684 c0 -8 5 -12 10 -9 6 3 10 10 10 16 0 5 -4 9 -10 9 -5 0
-10 -7 -10 -16z"/>
<path d="M12416 5691 c-4 -5 -2 -12 3 -15 5 -4 12 -2 15 3 4 5 2 12 -3 15 -5
4 -12 2 -15 -3z"/>
<path d="M12712 5691 c-22 -14 -10 -54 18 -61 14 -3 25 -12 25 -20 0 -20 -21
-23 -39 -5 -15 15 -16 15 -16 -2 0 -14 8 -19 34 -21 61 -4 75 54 16 68 -13 3
-25 11 -28 18 -5 16 30 16 46 0 9 -9 12 -8 12 4 0 9 -10 18 -22 22 -29 7 -30
7 -46 -3z"/>
<path d="M13000 5691 c0 -6 5 -13 10 -16 6 -3 10 1 10 9 0 9 -4 16 -10 16 -5
0 -10 -4 -10 -9z"/>
<path d="M13090 5689 c0 -5 5 -7 10 -4 6 3 10 8 10 11 0 2 -4 4 -10 4 -5 0
-10 -5 -10 -11z"/>
<path d="M325 5635 c0 -50 2 -55 23 -55 12 0 22 5 22 10 0 6 -4 10 -10 10 -5
0 -10 18 -10 40 0 33 3 40 19 40 29 0 37 -21 15 -37 -18 -14 -18 -14 6 -11 19
2 26 10 28 31 3 26 2 27 -45 27 l-48 0 0 -55z"/>
<path d="M1035 5635 c0 -47 3 -55 19 -55 12 0 16 5 12 16 -3 9 -6 33 -6 55 0
25 -5 39 -12 39 -9 0 -13 -18 -13 -55z"/>
<path d="M2969 5681 c10 -6 12 -22 9 -53 l-5 -45 35 1 c42 1 63 26 46 54 -7 9
-21 17 -33 16 -14 0 -21 5 -21 18 0 12 -7 18 -22 18 -17 0 -20 -3 -9 -9z m71
-61 c0 -13 -7 -20 -20 -20 -13 0 -20 7 -20 20 0 13 7 20 20 20 13 0 20 -7 20
-20z"/>
<path d="M3712 5674 c-17 -31 2 -94 28 -94 11 0 20 5 20 10 0 6 -7 10 -15 10
-21 0 -19 30 3 46 16 12 16 13 0 14 -9 0 -18 8 -20 18 -3 15 -5 15 -16 -4z"/>
<path d="M12088 5683 c15 -6 16 -75 0 -91 -9 -9 -7 -12 13 -12 23 0 24 3 24
55 0 52 -1 55 -25 54 -14 0 -19 -3 -12 -6z"/>
<path d="M445 5619 c0 -31 3 -39 17 -39 15 0 17 5 12 25 -4 18 -1 27 10 31 25
10 19 21 -12 22 -25 0 -27 -2 -27 -39z"/>
<path d="M522 5640 c10 -16 10 -24 0 -40 -11 -18 -10 -20 11 -20 20 0 22 4 19
40 -3 31 -8 40 -23 40 -17 0 -18 -3 -7 -20z"/>
<path d="M575 5619 c0 -30 3 -39 17 -39 14 0 16 6 12 30 -6 26 -4 30 16 30 20
0 22 -4 17 -30 -6 -25 -3 -30 13 -30 20 0 21 14 5 67 -2 6 -21 12 -42 11 -38
0 -38 -1 -38 -39z"/>
<path d="M692 5648 c-27 -27 -6 -68 35 -68 30 0 30 18 1 22 -13 2 -24 11 -26
22 -4 16 0 18 27 13 23 -5 31 -3 31 8 0 18 -51 20 -68 3z"/>
<path d="M775 5620 c0 -32 3 -40 18 -40 13 0 17 5 13 16 -3 9 -6 27 -6 40 0
13 -6 24 -13 24 -8 0 -12 -14 -12 -40z"/>
<path d="M820 5649 c0 -5 5 -9 10 -9 15 0 12 -77 -2 -83 -7 -3 -3 -6 9 -6 16
-1 21 3 17 14 -5 11 1 15 20 15 32 0 51 31 36 59 -7 15 -20 20 -50 19 -22 0
-40 -4 -40 -9z m78 -26 c5 -17 -26 -29 -40 -15 -6 6 -7 15 -3 22 9 14 37 9 43
-7z"/>
<path d="M940 5650 c0 -5 12 -10 27 -10 30 0 21 -16 -12 -22 -38 -7 -23 -33
21 -35 39 -2 41 -1 36 25 -3 15 -9 33 -15 40 -11 14 -57 16 -57 2z m42 -52
c-9 -9 -15 -9 -24 0 -9 9 -7 12 12 12 19 0 21 -3 12 -12z"/>
<path d="M1693 5654 c-7 -3 -13 -16 -13 -29 0 -44 50 -60 74 -22 20 32 -22 67
-61 51z m47 -34 c0 -13 -7 -20 -20 -20 -13 0 -20 7 -20 20 0 13 7 20 20 20 13
0 20 -7 20 -20z"/>
<path d="M1783 5638 c9 -14 9 -23 -1 -38 -11 -18 -10 -20 11 -20 20 0 23 4 19
30 -3 24 -1 30 13 30 14 0 16 -6 12 -30 -6 -25 -3 -30 13 -30 16 0 19 5 14 30
-6 26 -4 30 16 30 20 0 22 -4 17 -30 -6 -25 -3 -30 13 -30 20 0 21 13 5 66 -2
7 -30 11 -73 11 -65 -1 -69 -2 -59 -19z"/>
<path d="M1945 5604 c0 -44 3 -54 17 -54 11 0 15 6 11 19 -4 15 0 18 20 14 19
-4 27 0 32 16 12 39 -2 60 -43 59 l-37 0 0 -54z m65 16 c0 -13 -7 -20 -20 -20
-13 0 -20 7 -20 20 0 13 7 20 20 20 13 0 20 -7 20 -20z"/>
<path d="M2055 5619 c0 -30 3 -39 17 -39 14 0 16 6 12 30 -5 23 -3 30 10 30
28 0 17 17 -12 18 -25 0 -27 -2 -27 -39z"/>
<path d="M2130 5650 c0 -5 9 -10 20 -10 27 0 25 -18 -2 -22 -39 -5 -28 -33 14
-34 40 -2 41 3 22 64 -4 14 -54 17 -54 2z m40 -50 c0 -5 -4 -10 -9 -10 -6 0
-13 5 -16 10 -3 6 1 10 9 10 9 0 16 -4 16 -10z"/>
<path d="M2225 5619 c0 -30 3 -39 17 -39 14 0 16 6 12 30 -5 23 -3 30 10 30
28 0 17 17 -12 18 -25 0 -27 -2 -27 -39z"/>
<path d="M2883 5654 c-7 -3 -13 -16 -13 -29 0 -44 50 -60 74 -22 20 32 -22 67
-61 51z m47 -34 c0 -13 -7 -20 -20 -20 -13 0 -20 7 -20 20 0 13 7 20 20 20 13
0 20 -7 20 -20z"/>
<path d="M3083 5639 c9 -15 9 -23 -1 -39 -11 -18 -10 -20 13 -20 22 0 24 3 19
30 -5 23 -3 30 10 30 32 0 15 16 -18 17 -32 1 -34 -1 -23 -18z"/>
<path d="M3163 5653 c-7 -2 -13 -17 -13 -33 0 -28 15 -40 51 -40 29 0 23 18
-8 23 -26 4 -26 4 5 6 33 1 42 17 20 39 -12 12 -33 14 -55 5z m42 -13 c3 -5
-3 -10 -15 -10 -12 0 -18 5 -15 10 3 6 10 10 15 10 5 0 12 -4 15 -10z"/>
<path d="M3305 5619 c0 -30 3 -39 17 -39 14 0 16 6 12 30 -6 26 -4 30 16 30
20 0 22 -4 17 -30 -6 -25 -3 -30 13 -30 20 0 21 14 5 67 -2 6 -21 12 -42 11
-38 0 -38 -1 -38 -39z"/>
<path d="M3433 5654 c-7 -3 -13 -16 -13 -29 0 -44 50 -60 74 -22 20 32 -22 67
-61 51z m47 -34 c0 -13 -7 -20 -20 -20 -13 0 -20 7 -20 20 0 13 7 20 20 20 13
0 20 -7 20 -20z"/>
<path d="M3527 5653 c-15 -14 -6 -33 18 -39 14 -3 25 -10 25 -15 0 -13 -24
-11 -38 3 -9 9 -12 8 -12 -6 0 -13 7 -17 32 -14 42 4 51 34 14 44 -14 3 -26
11 -26 16 0 6 9 8 20 5 11 -3 20 -1 20 4 0 10 -43 12 -53 2z"/>
<path d="M3623 5654 c-7 -3 -13 -16 -13 -29 0 -44 50 -60 74 -22 20 32 -22 67
-61 51z m47 -34 c0 -13 -7 -20 -20 -20 -13 0 -20 7 -20 20 0 13 7 20 20 20 13
0 20 -7 20 -20z"/>
<path d="M3775 5619 c0 -31 3 -39 17 -39 15 0 17 5 12 25 -4 18 -1 27 10 31
25 10 19 21 -12 22 -25 0 -27 -2 -27 -39z"/>
<path d="M3850 5640 c-15 -28 4 -60 35 -60 14 0 29 8 35 20 15 28 -4 60 -35
60 -14 0 -29 -8 -35 -20z m58 -17 c5 -17 -26 -29 -40 -15 -6 6 -7 15 -3 22 9
14 37 9 43 -7z"/>
<path d="M3950 5641 c0 -11 9 -23 20 -26 11 -3 20 -11 20 -16 0 -13 -14 -11
-28 3 -9 9 -12 8 -12 -5 0 -21 55 -24 63 -3 6 16 -11 36 -30 36 -7 0 -13 5
-13 11 0 6 9 8 20 4 11 -4 20 -2 20 4 0 6 -13 11 -30 11 -23 0 -30 -5 -30 -19z"/>
<path d="M12155 5619 c0 -30 3 -39 17 -39 14 0 16 6 12 30 -5 24 -3 30 10 30
22 0 31 -27 16 -45 -10 -13 -9 -15 10 -15 16 0 20 4 16 16 -3 9 -6 26 -6 39 0
21 -5 24 -38 23 -37 0 -37 -1 -37 -39z"/>
<path d="M12265 5620 c0 -32 3 -40 18 -40 13 0 17 5 13 16 -3 9 -6 27 -6 40 0
13 -6 24 -13 24 -8 0 -12 -14 -12 -40z"/>
<path d="M12320 5640 c-15 -28 4 -60 35 -60 34 0 41 18 8 22 -38 4 -38 34 0
31 18 -1 27 3 27 13 0 23 -57 18 -70 -6z"/>
<path d="M12412 5640 c10 -16 10 -24 0 -40 -11 -18 -10 -20 11 -20 20 0 22 4
19 40 -3 31 -8 40 -23 40 -17 0 -18 -3 -7 -20z"/>
<path d="M12470 5650 c0 -5 9 -10 20 -10 27 0 25 -18 -2 -22 -39 -5 -28 -33
14 -34 40 -2 41 3 22 64 -4 14 -54 17 -54 2z m40 -50 c0 -5 -4 -10 -9 -10 -6
0 -13 5 -16 10 -3 6 1 10 9 10 9 0 16 -4 16 -10z"/>
<path d="M12563 5639 c9 -15 9 -23 -1 -39 -11 -18 -10 -20 13 -20 22 0 24 3
19 30 -5 23 -3 30 10 30 32 0 15 16 -18 17 -32 1 -34 -1 -23 -18z"/>
<path d="M12823 5653 c-7 -2 -13 -17 -13 -33 0 -28 15 -40 51 -40 29 0 23 18
-8 23 -26 4 -26 4 5 6 33 1 42 17 20 39 -12 12 -33 14 -55 5z m42 -13 c3 -5
-3 -10 -15 -10 -12 0 -18 5 -15 10 3 6 10 10 15 10 5 0 12 -4 15 -10z"/>
<path d="M12910 5641 c0 -11 9 -23 20 -26 11 -3 20 -11 20 -16 0 -13 -14 -11
-28 3 -9 9 -12 8 -12 -5 0 -21 55 -24 63 -3 6 16 -11 36 -30 36 -7 0 -13 5
-13 11 0 6 9 8 20 4 11 -4 20 -2 20 4 0 6 -13 11 -30 11 -23 0 -30 -5 -30 -19z"/>
<path d="M12995 5620 c0 -32 3 -40 18 -40 13 0 17 5 13 16 -3 9 -6 27 -6 40 0
13 -6 24 -13 24 -8 0 -12 -14 -12 -40z"/>
<path d="M13063 5654 c-7 -3 -13 -16 -13 -29 0 -44 50 -60 74 -22 20 32 -22
67 -61 51z m47 -34 c0 -13 -7 -20 -20 -20 -13 0 -20 7 -20 20 0 13 7 20 20 20
13 0 20 -7 20 -20z"/>
<path d="M13155 5619 c0 -30 3 -39 17 -39 14 0 16 6 12 30 -5 24 -3 30 10 30
22 0 31 -27 16 -45 -10 -13 -9 -15 10 -15 16 0 20 4 16 16 -3 9 -6 26 -6 39 0
21 -5 24 -38 23 -37 0 -37 -1 -37 -39z"/>
<path d="M6596 4665 c-16 -24 -15 -25 2 -25 10 0 29 11 42 25 l23 25 -25 0
c-16 0 -32 -9 -42 -25z"/>
<path d="M6090 4565 c0 -88 1 -95 20 -95 16 0 20 7 20 35 0 25 5 35 15 35 9 0
23 -16 32 -35 12 -26 23 -35 41 -35 l24 0 -21 36 c-20 33 -20 38 -6 54 8 9 15
28 15 43 0 41 -24 57 -86 57 l-54 0 0 -95z m98 43 c3 -18 -32 -43 -48 -33 -6
3 -10 17 -10 31 0 22 4 25 27 22 16 -2 29 -10 31 -20z"/>
<path d="M6810 4640 c0 -11 -7 -20 -15 -20 -8 0 -15 -9 -15 -20 0 -11 5 -20
10 -20 6 0 10 -16 10 -36 0 -51 15 -74 50 -74 32 0 42 23 15 34 -9 3 -15 19
-15 41 0 24 4 35 15 35 8 0 15 9 15 20 0 11 -7 20 -15 20 -8 0 -15 9 -15 20 0
13 -7 20 -20 20 -13 0 -20 -7 -20 -20z"/>
<path d="M7190 4640 c0 -11 -4 -20 -10 -20 -5 0 -10 -9 -10 -20 0 -11 5 -20
10 -20 6 0 10 -19 10 -43 0 -50 13 -67 52 -67 33 0 37 15 8 30 -25 13 -29 80
-5 80 8 0 15 9 15 20 0 11 -7 20 -15 20 -8 0 -15 9 -15 20 0 13 -7 20 -20 20
-13 0 -20 -7 -20 -20z"/>
<path d="M6280 4600 c-27 -27 -27 -83 1 -111 24 -24 94 -24 94 1 0 10 -8 14
-26 12 -14 -2 -31 4 -39 12 -11 14 -7 16 34 16 41 0 46 2 46 23 0 60 -68 89
-110 47z m68 -27 c2 -8 -6 -13 -22 -13 -25 0 -33 10 -19 24 10 10 36 3 41 -11z"/>
<path d="M6438 4609 c-14 -8 -17 -23 -16 -72 0 -34 -2 -70 -7 -80 -17 -40 50
-62 110 -35 18 8 25 19 25 39 0 30 -15 39 -66 39 -19 0 -34 5 -34 10 0 6 13
10 28 10 34 0 52 16 52 47 0 13 5 23 10 23 6 0 10 7 10 15 0 11 -12 15 -47 15
-27 0 -56 -5 -65 -11z m57 -29 c8 -13 -14 -42 -26 -34 -5 3 -9 14 -9 25 0 20
24 26 35 9z m13 -127 c2 -9 -7 -13 -27 -13 -21 0 -31 5 -31 16 0 19 51 16 58
-3z"/>
<path d="M6580 4545 c0 -73 1 -75 25 -75 24 0 25 2 25 75 0 73 -1 75 -25 75
-24 0 -25 -2 -25 -75z"/>
<path d="M6676 4599 c-18 -27 -11 -46 25 -65 38 -19 38 -38 -1 -31 -32 7 -51
-10 -29 -24 20 -13 73 -11 87 3 24 24 14 57 -23 75 -37 18 -37 38 0 29 27 -7
44 12 24 25 -25 16 -67 10 -83 -12z"/>
<path d="M6910 4545 c0 -73 1 -75 24 -75 23 0 25 4 28 53 3 45 6 52 26 55 14
2 22 10 22 23 0 22 -20 25 -39 7 -11 -10 -14 -10 -18 0 -3 6 -13 12 -24 12
-17 0 -19 -8 -19 -75z"/>
<path d="M7040 4610 c-19 -12 -5 -25 27 -25 15 0 28 -6 30 -12 3 -8 -5 -13
-20 -13 -46 0 -75 -53 -44 -78 6 -5 36 -10 66 -10 l54 0 -7 61 c-3 33 -11 66
-17 73 -13 16 -67 18 -89 4z m60 -84 c0 -21 -20 -30 -33 -17 -9 9 -8 14 3 21
21 14 30 12 30 -4z"/>
<path d="M7301 4594 c-12 -15 -21 -37 -21 -49 0 -37 37 -75 73 -75 18 0 37 4
44 8 19 12 1 29 -31 28 -16 -1 -31 5 -33 12 -3 8 8 12 36 12 38 0 41 2 41 28
0 60 -72 83 -109 36z m73 -19 c4 -11 -2 -15 -26 -15 -26 0 -29 2 -18 15 7 8
18 15 25 15 7 0 15 -7 19 -15z"/>
<path d="M6423 4180 c0 -30 2 -43 4 -27 2 15 2 39 0 55 -2 15 -4 2 -4 -28z"/>
<path d="M7128 4220 c-2 -6 -2 -29 0 -51 3 -28 9 -39 21 -39 12 0 13 2 3 9 -7
4 -12 23 -10 44 2 36 -6 59 -14 37z"/>
<path d="M7628 4217 c-7 -22 7 -80 20 -83 7 -1 8 0 2 3 -12 6 -13 60 -1 65 5
2 3 8 -4 15 -10 9 -14 9 -17 0z"/>
<path d="M6497 4203 c6 -4 13 -24 16 -43 4 -34 4 -33 3 4 -1 26 -6 41 -16 43
-10 3 -11 2 -3 -4z"/>
<path d="M6557 4203 c-2 -5 -5 -23 -5 -40 -1 -29 3 -33 25 -33 20 0 24 -4 18
-17 -5 -14 -3 -15 6 -6 14 14 3 33 -20 33 -13 0 -18 8 -19 30 0 21 4 30 15 30
10 0 14 -6 10 -20 -3 -11 -2 -18 3 -15 4 3 10 14 13 25 4 16 0 20 -18 20 -13
0 -26 -3 -28 -7z"/>
<path d="M6697 4203 c-3 -5 5 -8 18 -8 13 0 21 3 18 8 -2 4 -10 7 -18 7 -8 0
-16 -3 -18 -7z"/>
<path d="M6773 4194 c-3 -9 0 -20 8 -25 23 -15 34 -10 13 6 -16 13 -17 16 -4
25 11 7 11 10 2 10 -7 0 -15 -7 -19 -16z"/>
<path d="M6863 4204 c20 -6 23 -24 5 -24 -9 0 -10 -2 -2 -8 7 -4 14 -16 17
-27 3 -11 5 -2 4 20 -2 32 -6 40 -22 42 -16 1 -16 1 -2 -3z"/>
<path d="M6933 4203 c-8 -3 -12 -20 -12 -41 2 -34 2 -34 6 -7 2 17 12 36 21
43 16 12 8 15 -15 5z"/>
<path d="M7033 4204 c20 -6 23 -24 5 -24 -9 0 -10 -2 -2 -8 7 -4 14 -16 17
-27 3 -11 5 -2 4 20 -2 32 -6 40 -22 42 -16 1 -16 1 -2 -3z"/>
<path d="M7306 4194 c-19 -19 -20 -25 -3 -48 8 -11 20 -16 28 -13 11 4 10 6
-2 6 -28 2 -33 34 -9 53 12 10 18 18 12 18 -6 0 -18 -7 -26 -16z"/>
<path d="M7374 4176 c1 -26 6 -41 16 -43 10 -3 11 -2 3 4 -6 4 -13 24 -16 43
-4 34 -4 33 -3 -4z"/>
<path d="M7480 4206 c0 -2 7 -7 16 -10 8 -3 12 -2 9 4 -6 10 -25 14 -25 6z"/>
<path d="M7540 4171 c0 -23 2 -41 4 -41 8 0 12 71 4 76 -4 3 -8 -13 -8 -35z"/>
<path d="M7577 4199 c6 -8 13 -27 16 -44 4 -23 4 -20 3 9 -1 25 -6 41 -16 44
-12 4 -13 2 -3 -9z"/>
<path d="M7703 4204 c23 -7 22 -21 -3 -29 -25 -8 -27 -45 -2 -45 13 0 14 2 3
9 -7 5 -10 14 -7 20 10 16 24 13 30 -6 2 -10 4 -2 3 17 -2 27 -7 35 -22 37
-16 1 -16 1 -2 -3z"/>
<path d="M6460 4165 c0 -19 2 -35 4 -35 2 0 6 16 8 35 2 19 0 35 -4 35 -4 0
-8 -16 -8 -35z"/>
<path d="M6630 4163 c0 -43 5 -41 13 5 4 18 2 32 -3 32 -6 0 -10 -16 -10 -37z"/>
<path d="M7184 4171 c0 -21 7 -36 16 -38 10 -3 11 -2 3 4 -6 4 -13 22 -16 38
-4 27 -5 27 -3 -4z"/>
<path d="M7418 4170 c-3 -17 -1 -33 4 -36 4 -3 8 11 8 30 0 44 -6 47 -12 6z"/>
<path d="M7463 4168 c1 -26 7 -33 25 -34 17 -1 18 -1 3 3 -12 3 -22 15 -25 34
-6 28 -6 27 -3 -3z"/>
<path d="M6680 4170 c0 -5 5 -10 10 -10 6 0 10 5 10 10 0 6 -4 10 -10 10 -5 0
-10 -4 -10 -10z"/>
<path d="M6698 4138 c6 -6 18 -8 28 -6 14 3 12 5 -9 10 -19 3 -25 2 -19 -4z"/>
<path d="M6785 4140 c-19 -8 -19 -9 3 -9 12 -1 22 4 22 9 0 6 -1 10 -2 9 -2 0
-12 -4 -23 -9z"/>
<path d="M5788 4133 c7 -3 16 -2 19 1 4 3 -2 6 -13 5 -11 0 -14 -3 -6 -6z"/>
<path d="M5998 4133 c7 -3 16 -2 19 1 4 3 -2 6 -13 5 -11 0 -14 -3 -6 -6z"/>
<path d="M6098 4133 c7 -3 16 -2 19 1 4 3 -2 6 -13 5 -11 0 -14 -3 -6 -6z"/>
<path d="M6268 4133 c7 -3 16 -2 19 1 4 3 -2 6 -13 5 -11 0 -14 -3 -6 -6z"/>
<path d="M6328 4133 c7 -3 16 -2 19 1 4 3 -2 6 -13 5 -11 0 -14 -3 -6 -6z"/>
<path d="M6848 4133 c7 -3 16 -2 19 1 4 3 -2 6 -13 5 -11 0 -14 -3 -6 -6z"/>
<path d="M7018 4133 c7 -3 16 -2 19 1 4 3 -2 6 -13 5 -11 0 -14 -3 -6 -6z"/>
<path d="M5480 3966 c0 -51 1 -53 26 -52 49 2 59 61 13 74 -8 2 -6 -2 5 -10
22 -17 18 -51 -7 -56 -14 -3 -17 4 -17 47 0 28 -4 51 -10 51 -5 0 -10 -24 -10
-54z"/>
<path d="M5160 3958 c0 -28 2 -49 4 -47 8 9 13 99 5 99 -5 0 -9 -23 -9 -52z"/>
<path d="M5221 3975 l-2 -40 -15 28 c-9 16 -18 27 -20 24 -3 -2 5 -22 18 -43
l23 -39 3 28 c2 15 1 39 -1 55 -3 21 -4 18 -6 -13z"/>
<path d="M5270 3975 c-28 -34 16 -84 47 -53 14 14 15 22 5 43 -13 28 -33 32
-52 10z m44 -10 c8 -21 -3 -45 -20 -45 -8 0 -17 7 -20 15 -8 21 2 45 20 45 7
0 16 -7 20 -15z"/>
<path d="M5350 3951 c0 -23 2 -41 4 -41 8 0 12 71 4 76 -4 3 -8 -13 -8 -35z"/>
<path d="M5388 3978 c7 -7 13 -26 13 -42 2 -31 2 -31 8 4 6 33 -2 49 -23 50
-6 0 -5 -5 2 -12z"/>
<path d="M5437 3979 c6 -8 13 -27 16 -44 4 -23 4 -20 3 9 -1 25 -6 41 -16 44
-12 4 -13 2 -3 -9z"/>
<path d="M5588 3983 c-13 -3 -18 -15 -18 -39 0 -19 5 -34 10 -34 6 0 10 13 10
28 0 15 5 33 12 40 7 7 10 11 8 11 -3 -1 -13 -3 -22 -6z"/>
<path d="M5630 3970 c-15 -28 4 -60 33 -59 22 2 22 2 -1 6 -18 4 -23 10 -20
31 2 16 9 27 18 27 8 0 14 -6 13 -12 -2 -7 2 -13 7 -13 14 0 13 13 -2 28 -18
18 -36 15 -48 -8z"/>
<path d="M5421 3188 c0 -32 2 -58 7 -58 4 0 6 19 4 43 -5 70 -10 76 -11 15z"/>
<path d="M5461 3188 c0 -32 2 -58 7 -58 4 0 6 19 4 43 -5 70 -10 76 -11 15z"/>
<path d="M5593 3185 c0 -33 2 -45 4 -27 2 18 2 45 0 60 -2 15 -4 0 -4 -33z"/>
<path d="M5188 3218 c7 -7 12 -21 12 -31 0 -14 -5 -18 -20 -14 -11 3 -20 1
-20 -3 0 -5 -3 -17 -6 -27 -5 -17 -5 -17 6 0 14 22 46 22 54 1 4 -9 9 -15 11
-12 9 8 -26 98 -38 98 -7 0 -7 -4 1 -12z"/>
<path d="M5251 3151 c1 -31 3 -48 6 -39 2 9 14 18 26 20 18 2 22 10 22 38 0
31 -3 35 -27 36 -27 1 -28 0 -27 -55z m44 18 c0 -15 -7 -25 -17 -27 -13 -3
-18 3 -18 21 0 13 3 27 7 31 13 12 28 -1 28 -25z"/>
<path d="M5340 3190 c-15 -28 4 -60 33 -59 l22 2 -22 4 c-18 3 -23 11 -23 35
0 25 3 29 20 25 11 -3 18 -1 14 4 -9 16 -33 10 -44 -11z"/>
<path d="M5503 3170 c0 -25 2 -35 4 -22 2 12 2 32 0 45 -2 12 -4 2 -4 -23z"/>
<path d="M5550 3196 c-17 -22 -9 -60 15 -64 18 -2 18 -2 3 8 -10 6 -18 20 -18
30 0 10 8 24 18 29 9 6 12 11 6 11 -6 0 -17 -7 -24 -14z"/>
<path d="M5640 3196 c-18 -23 -8 -61 17 -64 29 -4 48 30 33 58 -13 24 -33 26
-50 6z m38 -29 c2 -19 -1 -27 -13 -27 -19 0 -30 24 -21 46 9 23 31 11 34 -19z"/>
<path d="M5501 2408 c0 -32 2 -58 7 -58 4 0 6 19 4 43 -5 70 -10 76 -11 15z"/>
<path d="M5160 2400 l0 -50 33 1 c30 2 30 2 5 6 -35 5 -39 40 -5 46 l22 4 -22
2 c-33 2 -29 29 5 34 25 4 25 4 -5 6 l-33 1 0 -50z"/>
<path d="M5258 2423 c-13 -3 -18 -15 -18 -39 0 -43 18 -45 22 -2 5 47 28 48
29 1 l2 -38 6 35 c6 31 -3 52 -19 49 -3 -1 -13 -3 -22 -6z"/>
<path d="M5327 2419 c6 -8 13 -27 16 -44 4 -23 4 -20 3 9 -1 25 -6 41 -16 44
-12 4 -13 2 -3 -9z"/>
<path d="M5386 2421 c-3 -5 3 -7 14 -4 26 7 26 -14 0 -22 -25 -8 -27 -45 -2
-45 13 0 14 2 3 9 -7 5 -10 14 -7 20 11 18 24 13 29 -11 3 -13 4 -5 4 17 -2
28 -7 41 -19 43 -9 2 -19 -1 -22 -7z"/>
<path d="M5463 2390 c0 -25 2 -35 4 -22 2 12 2 32 0 45 -2 12 -4 2 -4 -23z"/>
<path d="M5386 1673 c-6 -14 -5 -15 5 -6 7 7 10 15 7 18 -3 3 -9 -2 -12 -12z"/>
<path d="M5310 1638 c0 -24 5 -50 10 -58 7 -11 10 2 10 43 0 31 -4 57 -10 57
-5 0 -10 -19 -10 -42z"/>
<path d="M5442 1663 c-4 -10 -5 -36 -1 -58 l6 -40 2 38 c0 22 6 37 14 37 8 0
7 4 -3 10 -13 9 -13 11 0 20 9 6 11 10 3 10 -7 0 -16 -8 -21 -17z"/>
<path d="M5162 1663 c12 -3 18 -18 21 -51 l3 -47 2 47 c2 35 6 48 20 51 9 3
-1 5 -23 5 -22 0 -32 -2 -23 -5z"/>
<path d="M5242 1638 c-26 -26 -6 -69 33 -67 17 1 16 2 -5 8 -17 5 -24 14 -24
31 0 30 30 40 38 13 4 -15 5 -15 3 2 -3 23 -27 31 -45 13z"/>
<path d="M5360 1630 c-15 -28 4 -60 33 -59 l22 2 -22 4 c-18 3 -23 11 -23 35
0 25 3 29 20 25 11 -3 18 -1 14 4 -9 16 -33 10 -44 -11z"/>
<path d="M5490 1635 c-28 -34 16 -84 47 -53 14 14 15 22 5 43 -13 28 -33 32
-52 10z m44 -10 c8 -21 -3 -45 -20 -45 -8 0 -17 7 -20 15 -8 21 2 45 20 45 7
0 16 -7 20 -15z"/>
<path d="M5570 1611 c0 -23 2 -41 4 -41 8 0 12 71 4 76 -4 3 -8 -13 -8 -35z"/>
<path d="M5607 1643 c6 -4 13 -24 16 -43 4 -34 4 -33 3 4 -1 26 -6 41 -16 43
-10 3 -11 2 -3 -4z"/>
<path d="M5660 1630 c-15 -28 4 -62 33 -58 39 5 31 78 -9 78 -7 0 -18 -9 -24
-20z m45 -21 c0 -15 -7 -25 -17 -27 -13 -3 -18 3 -18 21 0 13 3 27 7 31 13 12
28 -1 28 -25z"/>
<path d="M5780 896 c0 -7 40 -14 44 -7 3 4 -6 8 -20 9 -13 1 -24 0 -24 -2z"/>
<path d="M5167 883 c-12 -11 -8 -68 5 -81 14 -14 44 -16 52 -4 2 4 -8 8 -22 7
-24 0 -27 4 -27 35 0 28 4 35 25 41 l25 7 -26 1 c-14 1 -29 -2 -32 -6z"/>
<path d="M5428 877 c-7 -22 7 -80 20 -83 7 -1 8 0 2 3 -12 6 -13 60 -1 65 5 2
3 8 -4 15 -10 9 -14 9 -17 0z"/>
<path d="M5260 856 c-18 -23 -8 -61 17 -64 29 -4 48 30 33 58 -13 24 -33 26
-50 6z m38 -29 c2 -19 -1 -27 -13 -27 -19 0 -30 24 -21 46 9 23 31 11 34 -19z"/>
<path d="M5340 831 c0 -23 2 -41 4 -41 8 0 12 71 4 76 -4 3 -8 -13 -8 -35z"/>
<path d="M5377 859 c6 -8 13 -27 16 -44 4 -23 4 -20 3 9 -1 25 -6 41 -16 44
-12 4 -13 2 -3 -9z"/>
<path d="M5481 825 c1 -27 3 -32 6 -15 3 14 11 32 19 40 11 14 11 16 -6 16
-17 0 -20 -7 -19 -41z"/>
<path d="M5545 861 c-3 -6 0 -8 8 -5 8 3 18 1 22 -5 3 -6 0 -11 -7 -11 -9 0
-10 -2 -2 -8 7 -4 14 -16 17 -27 3 -11 5 -2 4 20 -2 28 -7 41 -19 43 -9 2 -19
-2 -23 -7z"/>
<path d="M5621 856 c-10 -12 -8 -17 8 -26 26 -13 27 -27 4 -34 -14 -4 -14 -4
2 -3 28 3 31 34 4 42 -22 7 -22 8 -4 21 10 8 14 14 8 14 -6 0 -16 -6 -22 -14z"/>
<path d="M5690 850 c-15 -28 4 -60 33 -59 l22 2 -22 4 c-18 3 -23 11 -23 35 0
25 3 29 20 25 11 -3 18 -1 14 4 -9 16 -33 10 -44 -11z"/>
<path d="M5771 826 l2 -41 6 35 c4 22 12 35 21 35 9 0 18 -13 22 -35 l6 -35
-1 40 c-2 36 -5 40 -29 41 -26 1 -28 -1 -27 -40z"/>
<path d="M5886 855 c14 -11 15 -14 4 -15 -12 0 -13 -2 -1 -9 16 -11 6 -31 -16
-31 -10 0 -13 6 -8 18 5 13 3 14 -6 5 -16 -16 -2 -33 26 -31 18 2 25 8 25 24
0 34 -10 54 -28 54 -13 0 -12 -3 4 -15z"/>
<path d="M5535 820 c-9 -14 3 -30 23 -30 15 1 15 2 -1 11 -9 6 -15 14 -12 20
4 5 4 9 1 9 -3 0 -8 -4 -11 -10z"/>
<path d="M5480 66 c0 -51 1 -53 26 -52 49 2 59 61 13 74 -8 2 -6 -2 5 -10 22
-17 18 -51 -7 -56 -14 -3 -17 4 -17 47 0 28 -4 51 -10 51 -5 0 -10 -24 -10
-54z"/>
<path d="M5793 65 c0 -33 2 -45 4 -27 2 18 2 45 0 60 -2 15 -4 0 -4 -33z"/>
<path d="M5160 58 c0 -28 2 -49 4 -47 8 9 13 99 5 99 -5 0 -9 -23 -9 -52z"/>
<path d="M5221 75 l-2 -40 -15 28 c-9 16 -18 27 -20 24 -3 -2 5 -22 18 -43
l23 -39 3 27 c2 16 1 40 -1 55 -3 22 -4 19 -6 -12z"/>
<path d="M5952 67 c-2 -36 2 -49 14 -54 30 -11 49 11 50 58 1 24 0 33 -2 19
-11 -63 -15 -71 -32 -68 -12 2 -19 17 -23 48 l-6 45 -1 -48z"/>
<path d="M5270 75 c-28 -34 16 -84 47 -53 14 14 15 22 5 43 -13 28 -33 32 -52
10z m44 -10 c8 -21 -3 -45 -20 -45 -8 0 -17 7 -20 15 -8 21 2 45 20 45 7 0 16
-7 20 -15z"/>
<path d="M5350 51 c0 -23 2 -41 4 -41 8 0 12 71 4 76 -4 3 -8 -13 -8 -35z"/>
<path d="M5388 78 c7 -7 13 -26 13 -42 2 -31 2 -31 8 4 6 33 -2 49 -23 50 -6
0 -5 -5 2 -12z"/>
<path d="M5437 79 c6 -8 13 -27 16 -44 4 -23 4 -20 3 9 -1 25 -6 41 -16 44
-12 4 -13 2 -3 -9z"/>
<path d="M5588 83 c-13 -3 -18 -15 -18 -39 0 -19 5 -34 10 -34 6 0 10 13 10
28 0 15 5 33 12 40 7 7 10 11 8 11 -3 -1 -13 -3 -22 -6z"/>
<path d="M5630 70 c-15 -28 4 -60 33 -59 22 2 22 2 -1 6 -18 4 -23 10 -20 31
2 16 9 27 18 27 8 0 14 -6 13 -12 -2 -7 2 -13 7 -13 14 0 13 13 -2 28 -18 18
-36 15 -48 -8z"/>
<path d="M5750 76 c-17 -22 -9 -60 15 -64 18 -2 18 -2 3 8 -10 6 -18 20 -18
30 0 10 8 24 18 29 9 6 12 11 6 11 -6 0 -17 -7 -24 -14z"/>
<path d="M5840 76 c-20 -25 -8 -61 20 -63 25 -3 25 -3 3 7 -24 10 -31 44 -11
56 6 4 17 -1 25 -11 7 -11 13 -14 13 -9 0 11 -21 34 -31 34 -4 0 -12 -7 -19
-14z"/>
<path d="M6051 76 c-10 -12 -8 -17 8 -26 26 -13 27 -27 4 -34 -14 -4 -14 -4 2
-3 28 3 31 34 4 42 -22 7 -22 8 -4 21 10 8 14 14 8 14 -6 0 -16 -6 -22 -14z"/>
<path d="M6158 58 c-4 -42 -30 -44 -39 -3 -6 27 -7 27 -8 5 -1 -34 11 -49 37
-47 19 1 22 7 22 39 0 47 -8 50 -12 6z"/>
<path d="M6230 78 l25 -10 -27 -10 c-32 -11 -39 -48 -10 -48 13 0 14 2 3 9
-16 11 -6 31 16 31 9 0 13 -6 10 -15 -4 -8 -2 -17 3 -20 14 -9 12 49 -2 63 -7
7 -19 12 -27 11 -9 0 -5 -5 9 -11z"/>
<path d="M6298 83 c-13 -3 -18 -15 -18 -39 0 -19 5 -34 10 -34 6 0 10 13 10
28 0 15 5 33 12 40 7 7 10 11 8 11 -3 -1 -13 -3 -22 -6z"/>
<path d="M6343 50 c0 -25 2 -35 4 -22 2 12 2 32 0 45 -2 12 -4 2 -4 -23z"/>
<path d="M6390 76 c-18 -23 -8 -61 17 -64 29 -4 48 30 33 58 -13 24 -33 26
-50 6z m38 -29 c2 -19 -1 -27 -13 -27 -19 0 -30 24 -21 46 9 23 31 11 34 -19z"/>
</g>
</svg>
