<?xml version="1.0" standalone="no"?>
<!DOCTYPE svg PUBLIC "-//W3C//DTD SVG 20010904//EN"
 "http://www.w3.org/TR/2001/REC-SVG-20010904/DTD/svg10.dtd">
<svg version="1.0" xmlns="http://www.w3.org/2000/svg"
 width="1344.000000pt" height="609.000000pt" viewBox="0 0 1344.000000 609.000000"
 preserveAspectRatio="xMidYMid meet">

<g transform="translate(0.000000,609.000000) scale(0.100000,-0.100000)"
fill="#000000" stroke="none">
<path d="M11357 5884 c-13 -13 -7 -61 9 -75 24 -20 49 1 49 42 0 29 -4 34 -25
37 -14 2 -29 0 -33 -4z m41 -36 c-2 -18 -7 -33 -13 -33 -5 0 -11 15 -13 33 -3
24 1 32 13 32 12 0 16 -8 13 -32z"/>
<path d="M526 5751 c-4 -5 -2 -12 3 -15 5 -4 12 -2 15 3 4 5 2 12 -3 15 -5 4
-12 2 -15 -3z"/>
<path d="M780 5745 c0 -8 5 -15 10 -15 6 0 10 7 10 15 0 8 -4 15 -10 15 -5 0
-10 -7 -10 -15z"/>
<path d="M1571 5743 c-44 -36 -22 -103 34 -103 25 0 63 25 53 36 -4 4 -14 1
-22 -5 -8 -7 -25 -11 -38 -9 -18 2 -23 9 -23 32 0 37 27 56 55 38 26 -16 30
-15 30 3 0 8 -6 15 -12 15 -7 0 -22 3 -34 6 -12 3 -30 -2 -43 -13z"/>
<path d="M2770 5745 c-19 -23 -8 -48 28 -57 35 -9 41 -22 16 -32 -10 -4 -25 1
-35 10 -18 16 -19 16 -19 -2 0 -15 8 -20 34 -22 61 -4 75 54 16 68 -13 3 -25
11 -28 18 -5 16 30 16 46 0 9 -9 12 -8 12 4 0 9 -10 18 -22 22 -32 8 -34 8
-48 -9z"/>
<path d="M11656 5751 c-4 -5 -2 -12 3 -15 5 -4 12 -2 15 3 4 5 2 12 -3 15 -5
4 -12 2 -15 -3z"/>
<path d="M12220 5751 c0 -6 5 -13 10 -16 6 -3 10 1 10 9 0 9 -4 16 -10 16 -5
0 -10 -4 -10 -9z"/>
<path d="M13100 5751 c0 -6 5 -13 10 -16 6 -3 10 1 10 9 0 9 -4 16 -10 16 -5
0 -10 -4 -10 -9z"/>
<path d="M325 5695 c0 -50 2 -55 23 -55 12 0 22 5 22 10 0 6 -4 10 -10 10 -5
0 -10 18 -10 40 0 33 3 40 19 40 29 0 37 -21 15 -37 -18 -14 -18 -14 6 -11 19
2 26 10 28 31 3 26 2 27 -45 27 l-48 0 0 -55z"/>
<path d="M1035 5695 c0 -47 3 -55 19 -55 12 0 16 5 12 16 -3 9 -6 33 -6 55 0
25 -5 39 -12 39 -9 0 -13 -18 -13 -55z"/>
<path d="M2969 5741 c10 -6 12 -22 9 -53 l-5 -45 35 1 c42 1 63 26 46 54 -7 9
-21 17 -33 16 -14 0 -21 5 -21 18 0 12 -7 18 -22 18 -17 0 -20 -3 -9 -9z m71
-61 c0 -13 -7 -20 -20 -20 -13 0 -20 7 -20 20 0 13 7 20 20 20 13 0 20 -7 20
-20z"/>
<path d="M3712 5734 c-17 -31 2 -94 28 -94 11 0 20 5 20 10 0 6 -7 10 -15 10
-21 0 -19 30 3 46 16 12 16 13 0 14 -9 0 -18 8 -20 18 -3 15 -5 15 -16 -4z"/>
<path d="M11518 5744 c15 -7 16 -76 0 -92 -9 -9 -1 -12 39 -12 52 0 82 18 67
41 -4 7 -7 24 -8 38 -1 24 -4 26 -56 28 -30 1 -49 0 -42 -3z m77 -19 c0 -5
-10 -11 -22 -13 -16 -2 -23 2 -23 13 0 11 7 15 23 13 12 -2 22 -7 22 -13z m5
-50 c0 -9 -9 -15 -25 -15 -16 0 -25 6 -25 15 0 9 9 15 25 15 16 0 25 -6 25
-15z"/>
<path d="M12327 5731 c4 -15 0 -18 -20 -14 -19 4 -27 0 -32 -16 -13 -41 2 -60
46 -59 31 0 39 4 35 15 -3 8 -6 32 -6 54 0 27 -4 39 -14 39 -9 0 -12 -7 -9
-19z m3 -51 c0 -13 -7 -20 -20 -20 -13 0 -20 7 -20 20 0 13 7 20 20 20 13 0
20 -7 20 -20z"/>
<path d="M12497 5683 c-22 -60 -27 -86 -13 -72 11 11 54 139 47 139 -5 0 -20
-30 -34 -67z"/>
<path d="M12748 5743 c15 -6 16 -75 0 -91 -9 -9 -2 -12 35 -12 70 0 104 40 77
91 -9 15 -21 19 -68 18 -31 0 -51 -3 -44 -6z m87 -43 c0 -31 -3 -35 -27 -38
-27 -3 -28 -1 -28 38 0 39 1 41 28 38 24 -3 27 -7 27 -38z"/>
<path d="M13248 5743 c15 -6 16 -75 0 -91 -9 -9 -6 -12 17 -12 23 0 26 3 17
12 -7 7 -12 31 -12 55 0 35 -3 43 -17 42 -11 0 -13 -3 -5 -6z"/>
<path d="M445 5679 c0 -31 3 -39 17 -39 15 0 17 5 12 25 -4 18 -1 27 10 31 25
10 19 21 -12 22 -25 0 -27 -2 -27 -39z"/>
<path d="M522 5700 c10 -16 10 -24 0 -40 -11 -18 -10 -20 11 -20 20 0 22 4 19
40 -3 31 -8 40 -23 40 -17 0 -18 -3 -7 -20z"/>
<path d="M575 5679 c0 -30 3 -39 17 -39 14 0 16 6 12 30 -6 26 -4 30 16 30 20
0 22 -4 17 -30 -6 -25 -3 -30 13 -30 20 0 21 14 5 67 -2 6 -21 12 -42 11 -38
0 -38 -1 -38 -39z"/>
<path d="M692 5708 c-27 -27 -6 -68 35 -68 30 0 30 18 1 22 -13 2 -24 11 -26
22 -4 16 0 18 27 13 23 -5 31 -3 31 8 0 18 -51 20 -68 3z"/>
<path d="M775 5680 c0 -32 3 -40 18 -40 13 0 17 5 13 16 -3 9 -6 27 -6 40 0
13 -6 24 -13 24 -8 0 -12 -14 -12 -40z"/>
<path d="M820 5709 c0 -5 5 -9 10 -9 15 0 12 -77 -2 -83 -7 -3 -3 -6 9 -6 16
-1 21 3 17 14 -5 11 1 15 20 15 32 0 51 31 36 59 -7 15 -20 20 -50 19 -22 0
-40 -4 -40 -9z m78 -26 c5 -17 -26 -29 -40 -15 -6 6 -7 15 -3 22 9 14 37 9 43
-7z"/>
<path d="M940 5710 c0 -5 12 -10 27 -10 30 0 21 -16 -12 -22 -38 -7 -23 -33
21 -35 39 -2 41 -1 36 25 -3 15 -9 33 -15 40 -11 14 -57 16 -57 2z m42 -52
c-9 -9 -15 -9 -24 0 -9 9 -7 12 12 12 19 0 21 -3 12 -12z"/>
<path d="M1693 5714 c-7 -3 -13 -16 -13 -29 0 -44 50 -60 74 -22 20 32 -22 67
-61 51z m47 -34 c0 -13 -7 -20 -20 -20 -13 0 -20 7 -20 20 0 13 7 20 20 20 13
0 20 -7 20 -20z"/>
<path d="M1783 5698 c9 -14 9 -23 -1 -38 -11 -18 -10 -20 11 -20 20 0 23 4 19
30 -3 24 -1 30 13 30 14 0 16 -6 12 -30 -6 -25 -3 -30 13 -30 16 0 19 5 14 30
-6 26 -4 30 16 30 20 0 22 -4 17 -30 -6 -25 -3 -30 13 -30 20 0 21 13 5 66 -2
7 -30 11 -73 11 -65 -1 -69 -2 -59 -19z"/>
<path d="M1945 5664 c0 -44 3 -54 17 -54 11 0 15 6 11 19 -4 15 0 18 20 14 19
-4 27 0 32 16 12 39 -2 60 -43 59 l-37 0 0 -54z m65 16 c0 -13 -7 -20 -20 -20
-13 0 -20 7 -20 20 0 13 7 20 20 20 13 0 20 -7 20 -20z"/>
<path d="M2055 5679 c0 -30 3 -39 17 -39 14 0 16 6 12 30 -5 23 -3 30 10 30
28 0 17 17 -12 18 -25 0 -27 -2 -27 -39z"/>
<path d="M2130 5710 c0 -5 9 -10 20 -10 27 0 25 -18 -2 -22 -39 -5 -28 -33 14
-34 40 -2 41 3 22 64 -4 14 -54 17 -54 2z m40 -50 c0 -5 -4 -10 -9 -10 -6 0
-13 5 -16 10 -3 6 1 10 9 10 9 0 16 -4 16 -10z"/>
<path d="M2225 5679 c0 -30 3 -39 17 -39 14 0 16 6 12 30 -5 23 -3 30 10 30
28 0 17 17 -12 18 -25 0 -27 -2 -27 -39z"/>
<path d="M2883 5714 c-7 -3 -13 -16 -13 -29 0 -44 50 -60 74 -22 20 32 -22 67
-61 51z m47 -34 c0 -13 -7 -20 -20 -20 -13 0 -20 7 -20 20 0 13 7 20 20 20 13
0 20 -7 20 -20z"/>
<path d="M3083 5699 c9 -15 9 -23 -1 -39 -11 -18 -10 -20 13 -20 22 0 24 3 19
30 -5 23 -3 30 10 30 32 0 15 16 -18 17 -32 1 -34 -1 -23 -18z"/>
<path d="M3163 5713 c-7 -2 -13 -17 -13 -33 0 -28 15 -40 51 -40 29 0 23 18
-8 23 -26 4 -26 4 5 6 33 1 42 17 20 39 -12 12 -33 14 -55 5z m42 -13 c3 -5
-3 -10 -15 -10 -12 0 -18 5 -15 10 3 6 10 10 15 10 5 0 12 -4 15 -10z"/>
<path d="M3305 5679 c0 -30 3 -39 17 -39 14 0 16 6 12 30 -6 26 -4 30 16 30
20 0 22 -4 17 -30 -6 -25 -3 -30 13 -30 20 0 21 14 5 67 -2 6 -21 12 -42 11
-38 0 -38 -1 -38 -39z"/>
<path d="M3433 5714 c-7 -3 -13 -16 -13 -29 0 -44 50 -60 74 -22 20 32 -22 67
-61 51z m47 -34 c0 -13 -7 -20 -20 -20 -13 0 -20 7 -20 20 0 13 7 20 20 20 13
0 20 -7 20 -20z"/>
<path d="M3527 5713 c-15 -14 -6 -33 18 -39 14 -3 25 -10 25 -15 0 -13 -24
-11 -38 3 -9 9 -12 8 -12 -6 0 -13 7 -17 32 -14 42 4 51 34 14 44 -14 3 -26
11 -26 16 0 6 9 8 20 5 11 -3 20 -1 20 4 0 10 -43 12 -53 2z"/>
<path d="M3623 5714 c-7 -3 -13 -16 -13 -29 0 -44 50 -60 74 -22 20 32 -22 67
-61 51z m47 -34 c0 -13 -7 -20 -20 -20 -13 0 -20 7 -20 20 0 13 7 20 20 20 13
0 20 -7 20 -20z"/>
<path d="M3775 5679 c0 -31 3 -39 17 -39 15 0 17 5 12 25 -4 18 -1 27 10 31
25 10 19 21 -12 22 -25 0 -27 -2 -27 -39z"/>
<path d="M3850 5700 c-15 -28 4 -60 35 -60 14 0 29 8 35 20 15 28 -4 60 -35
60 -14 0 -29 -8 -35 -20z m58 -17 c5 -17 -26 -29 -40 -15 -6 6 -7 15 -3 22 9
14 37 9 43 -7z"/>
<path d="M3950 5701 c0 -11 9 -23 20 -26 11 -3 20 -11 20 -16 0 -13 -14 -11
-28 3 -9 9 -12 8 -12 -5 0 -21 55 -24 63 -3 6 16 -11 36 -30 36 -7 0 -13 5
-13 11 0 6 9 8 20 4 11 -4 20 -2 20 4 0 6 -13 11 -30 11 -23 0 -30 -5 -30 -19z"/>
<path d="M11652 5700 c10 -16 10 -24 0 -40 -11 -18 -10 -20 11 -20 20 0 22 4
19 40 -3 31 -8 40 -23 40 -17 0 -18 -3 -7 -20z"/>
<path d="M11712 5708 c-27 -27 -6 -68 34 -68 36 0 37 18 2 23 l-33 4 33 1 c33
2 42 18 20 40 -7 7 -19 12 -28 12 -9 0 -21 -5 -28 -12z m43 -8 c3 -5 -3 -10
-15 -10 -12 0 -18 5 -15 10 3 6 10 10 15 10 5 0 12 -4 15 -10z"/>
<path d="M11803 5699 c9 -15 9 -24 -1 -39 -11 -18 -10 -20 11 -20 20 0 23 4
19 30 -3 24 -1 30 13 30 14 0 16 -6 12 -30 -6 -25 -3 -30 13 -30 20 0 21 13 5
66 -2 6 -21 11 -43 11 -37 0 -39 -1 -29 -18z"/>
<path d="M11900 5716 c0 -11 43 -76 50 -76 4 0 13 14 20 30 7 17 16 30 21 30
5 0 9 5 9 10 0 6 -9 10 -21 10 -14 0 -19 -5 -16 -13 3 -8 1 -20 -4 -28 -8 -12
-10 -12 -18 0 -5 8 -7 20 -4 28 3 8 -2 13 -16 13 -12 0 -21 -2 -21 -4z"/>
<path d="M12023 5713 c-7 -2 -13 -17 -13 -33 0 -28 15 -40 51 -40 29 0 23 18
-8 23 -26 4 -26 4 5 6 33 1 42 17 20 39 -12 12 -33 14 -55 5z m42 -13 c3 -5
-3 -10 -15 -10 -12 0 -18 5 -15 10 3 6 10 10 15 10 5 0 12 -4 15 -10z"/>
<path d="M12105 5679 c0 -30 3 -39 17 -39 14 0 16 6 12 30 -6 26 -4 30 16 30
20 0 22 -4 17 -30 -6 -25 -3 -30 13 -30 20 0 21 14 5 67 -2 6 -21 12 -42 11
-38 0 -38 -1 -38 -39z"/>
<path d="M12215 5680 c0 -32 3 -40 18 -40 13 0 17 5 13 16 -3 9 -6 27 -6 40 0
13 -6 24 -13 24 -8 0 -12 -14 -12 -40z"/>
<path d="M12393 5714 c-7 -3 -13 -16 -13 -29 0 -44 50 -60 74 -22 20 32 -22
67 -61 51z m47 -34 c0 -13 -7 -20 -20 -20 -13 0 -20 7 -20 20 0 13 7 20 20 20
13 0 20 -7 20 -20z"/>
<path d="M12560 5710 c0 -5 12 -10 27 -10 30 0 21 -16 -12 -22 -38 -7 -23 -33
21 -35 39 -2 41 -1 36 25 -3 15 -9 33 -15 40 -11 14 -57 16 -57 2z m42 -52
c-9 -9 -15 -9 -24 0 -9 9 -7 12 12 12 19 0 21 -3 12 -12z"/>
<path d="M12895 5710 c-4 -6 5 -10 19 -10 14 0 26 -4 26 -10 0 -5 -12 -10 -26
-10 -19 0 -25 -4 -22 -17 2 -13 14 -19 41 -20 41 -2 39 -6 21 57 -6 21 -48 28
-59 10z m40 -50 c-3 -5 -10 -10 -16 -10 -5 0 -9 5 -9 10 0 6 7 10 16 10 8 0
12 -4 9 -10z"/>
<path d="M12985 5679 c0 -30 3 -39 17 -39 14 0 16 6 12 30 -6 26 -4 30 16 30
20 0 22 -4 17 -30 -6 -25 -3 -30 13 -30 20 0 21 14 5 67 -2 6 -21 12 -42 11
-38 0 -38 -1 -38 -39z"/>
<path d="M13095 5680 c0 -32 3 -40 18 -40 13 0 17 5 13 16 -3 9 -6 27 -6 40 0
13 -6 24 -13 24 -8 0 -12 -14 -12 -40z"/>
<path d="M13162 5708 c-27 -27 -6 -68 34 -68 36 0 37 18 2 23 l-33 4 33 1 c33
2 42 18 20 40 -7 7 -19 12 -28 12 -9 0 -21 -5 -28 -12z m43 -8 c3 -5 -3 -10
-15 -10 -12 0 -18 5 -15 10 3 6 10 10 15 10 5 0 12 -4 15 -10z"/>
<path d="M12653 5641 c0 -11 5 -17 9 -15 11 7 10 34 -1 34 -6 0 -9 -9 -8 -19z"/>
<path d="M11250 4440 c0 -13 -7 -20 -19 -20 -26 0 -43 -24 -39 -57 3 -25 7
-28 41 -30 l37 -1 0 64 c0 36 -4 64 -10 64 -5 0 -10 -9 -10 -20z m0 -65 c0
-18 -5 -25 -20 -25 -15 0 -20 7 -20 25 0 18 5 25 20 25 15 0 20 -7 20 -25z"/>
<path d="M10440 4390 c0 -33 4 -60 10 -60 6 0 10 11 10 25 0 14 5 25 10 25 6
0 16 -11 22 -25 6 -14 15 -25 20 -25 11 0 10 7 -2 30 -7 13 -7 21 0 25 16 10
12 52 -6 59 -9 3 -27 6 -40 6 -23 0 -24 -3 -24 -60z m58 23 c-5 -26 -38 -29
-38 -4 0 15 6 21 21 21 14 0 19 -5 17 -17z"/>
<path d="M11436 4434 c-33 -32 -13 -104 29 -104 34 0 41 18 8 22 -25 3 -28 7
-28 38 0 31 3 35 28 38 15 2 25 8 22 13 -9 14 -42 11 -59 -7z"/>
<path d="M10552 4408 c-15 -15 -16 -50 0 -66 15 -15 58 -16 58 -2 0 6 -6 10
-12 9 -24 -3 -38 1 -38 11 0 6 12 10 26 10 21 0 25 4 22 23 -3 25 -36 35 -56
15z m43 -18 c3 -5 -3 -10 -14 -10 -12 0 -21 5 -21 10 0 6 6 10 14 10 8 0 18
-4 21 -10z"/>
<path d="M10633 4403 c-4 -11 1 -22 15 -31 28 -18 29 -35 2 -27 -11 4 -20 2
-20 -4 0 -6 11 -11 25 -11 36 0 44 28 14 51 l-24 19 23 0 c13 0 20 4 17 10
-10 16 -45 12 -52 -7z"/>
<path d="M10712 4378 c3 -41 5 -43 36 -44 32 -1 32 -1 31 45 -2 44 -2 45 -8
11 -9 -50 -41 -55 -41 -6 0 20 -5 36 -11 36 -6 0 -9 -17 -7 -42z"/>
<path d="M10810 4374 c0 -24 5 -44 10 -44 6 0 10 16 10 36 0 49 32 44 41 -6
l6 -35 4 35 c3 23 10 36 22 38 14 3 17 -4 17 -32 0 -20 5 -36 10 -36 11 0 13
60 2 75 -4 6 -33 11 -64 11 l-58 1 0 -43z"/>
<path d="M10972 4408 c-15 -15 -16 -50 0 -66 15 -15 58 -16 58 -2 0 6 -6 10
-12 9 -24 -3 -38 1 -38 11 0 6 12 10 26 10 21 0 25 4 22 23 -3 25 -36 35 -56
15z m43 -18 c3 -5 -3 -10 -14 -10 -12 0 -21 5 -21 10 0 6 6 10 14 10 8 0 18
-4 21 -10z"/>
<path d="M11060 4373 c0 -24 5 -43 10 -43 6 0 10 16 10 35 0 24 5 35 15 35 10
0 15 -11 15 -35 0 -19 5 -35 11 -35 6 0 9 17 7 43 -3 40 -4 42 -35 42 -32 1
-33 0 -33 -42z"/>
<path d="M11302 4408 c-15 -15 -16 -50 0 -66 15 -15 58 -16 58 -2 0 6 -6 10
-12 9 -24 -3 -38 1 -38 11 0 6 12 10 26 10 21 0 25 4 22 23 -3 25 -36 35 -56
15z m43 -18 c3 -5 -3 -10 -14 -10 -12 0 -21 5 -21 10 0 6 6 10 14 10 8 0 18
-4 21 -10z"/>
<path d="M11530 4406 c-28 -35 11 -93 48 -70 35 22 22 84 -18 84 -10 0 -23 -7
-30 -14z m50 -30 c0 -23 -22 -41 -34 -29 -3 4 -6 17 -6 30 0 16 6 23 20 23 14
0 20 -7 20 -24z"/>
<path d="M11620 4374 c0 -51 17 -60 22 -12 2 22 9 34 21 36 14 3 17 -4 17 -32
0 -20 5 -36 10 -36 6 0 10 16 10 35 0 24 5 35 15 35 10 0 15 -11 15 -35 0 -19
5 -35 11 -35 6 0 9 17 7 43 l-3 42 -62 1 -63 1 0 -43z"/>
<path d="M11780 4358 c0 -32 4 -58 10 -58 6 0 10 7 10 15 0 8 9 15 20 15 28 0
46 40 31 68 -8 15 -20 21 -41 19 -30 -2 -30 -3 -30 -59z m55 17 c0 -11 -8 -21
-17 -23 -14 -3 -18 3 -18 23 0 20 4 26 18 23 9 -2 17 -12 17 -23z"/>
<path d="M11880 4373 c0 -24 5 -43 10 -43 6 0 10 16 10 35 0 24 5 35 15 35 8
0 15 4 15 9 0 5 -11 8 -25 7 -23 -1 -25 -5 -25 -43z"/>
<path d="M11945 4410 c-3 -6 4 -10 17 -10 23 -1 23 -1 -4 -21 -35 -26 -27 -49
18 -47 29 1 34 5 34 25 0 13 -5 33 -10 44 -11 20 -45 26 -55 9z m45 -49 c0
-12 -28 -22 -34 -12 -3 5 -3 11 1 15 9 9 33 7 33 -3z"/>
<path d="M9061 4333 c-25 -28 -31 -42 -26 -62 4 -14 12 -29 18 -33 18 -12 52
-9 65 4 18 18 14 66 -7 85 -19 15 -19 17 -3 29 15 12 15 13 1 14 -8 0 -30 -17
-48 -37z m39 -53 c0 -20 -5 -30 -15 -30 -18 0 -30 24 -21 45 10 28 36 17 36
-15z"/>
<path d="M4630 4325 c-6 -14 -10 -37 -10 -50 0 -33 18 -77 29 -71 5 4 5 20 -1
40 -8 24 -7 43 0 65 13 38 -4 54 -18 16z"/>
<path d="M4688 4328 c-23 -28 -22 -35 2 -48 26 -14 25 -30 -2 -30 l-22 0 23
-21 c22 -20 23 -20 36 -3 21 27 18 49 -7 67 l-23 16 23 0 c26 1 27 7 8 27 -18
18 -18 18 -38 -8z"/>
<path d="M4765 4275 c0 -82 8 -95 24 -38 11 37 -1 113 -17 113 -4 0 -7 -34 -7
-75z"/>
<path d="M7740 4331 c-14 -27 -13 -94 3 -115 11 -14 13 -5 13 58 0 42 -2 76
-3 76 -1 0 -7 -9 -13 -19z"/>
<path d="M7798 4331 c-23 -23 -23 -38 2 -53 26 -17 25 -28 -2 -28 -21 0 -21 0
-2 -19 17 -17 21 -17 37 -3 23 20 22 40 -5 63 l-23 18 23 1 c20 0 21 2 10 20
-15 24 -18 24 -40 1z"/>
<path d="M7875 4275 c0 -63 2 -73 13 -58 6 9 12 35 12 58 0 23 -6 49 -12 58
-11 15 -13 5 -13 -58z"/>
<path d="M757 4333 c-4 -3 -7 -28 -7 -55 0 -36 4 -48 15 -48 8 0 15 7 15 15 0
8 11 17 24 21 43 10 44 57 3 68 -29 8 -42 7 -50 -1z m53 -33 c0 -5 -7 -10 -15
-10 -8 0 -15 5 -15 10 0 6 7 10 15 10 8 0 15 -4 15 -10z"/>
<path d="M857 4333 c-4 -3 -7 -28 -7 -55 0 -36 4 -48 15 -48 9 0 15 9 16 23
l0 22 11 -22 c18 -37 33 -27 35 22 1 35 -3 47 -17 55 -22 12 -44 13 -53 3z
m43 -33 c0 -5 -4 -10 -10 -10 -5 0 -10 5 -10 10 0 6 5 10 10 10 6 0 10 -4 10
-10z"/>
<path d="M959 4319 c-22 -22 -20 -66 4 -81 18 -12 52 -9 65 4 17 17 15 64 -4
82 -21 22 -40 20 -65 -5z m51 -39 c0 -20 -5 -30 -15 -30 -18 0 -30 24 -21 45
10 28 36 17 36 -15z"/>
<path d="M1067 4333 c-4 -3 -7 -28 -7 -55 0 -46 1 -48 28 -48 37 0 52 17 52
57 0 27 -5 35 -26 43 -30 12 -38 12 -47 3z m48 -33 c8 -13 -4 -50 -16 -50 -5
0 -9 14 -9 30 0 30 13 40 25 20z"/>
<path d="M1166 4333 c-11 -11 -7 -78 6 -91 19 -19 56 -14 68 8 13 25 9 86 -5
83 -5 -1 -12 -19 -15 -39 -7 -53 -30 -57 -30 -5 0 38 -10 57 -24 44z"/>
<path d="M1283 4325 c-42 -29 -23 -95 27 -95 18 0 30 5 30 13 0 8 -10 13 -22
13 -33 -1 -33 48 0 52 13 2 21 9 19 15 -6 18 -30 19 -54 2z"/>
<path d="M1357 4333 c-12 -11 -8 -23 8 -23 11 0 15 -11 15 -40 0 -29 4 -40 15
-40 11 0 15 11 15 39 0 26 5 41 16 45 8 3 12 10 9 16 -7 11 -68 14 -78 3z"/>
<path d="M1456 4324 c-19 -18 -21 -65 -4 -82 19 -19 66 -15 78 7 15 29 12 49
-10 71 -24 24 -43 25 -64 4z m49 -44 c0 -36 -29 -33 -33 3 -3 23 0 28 15 25
12 -2 18 -12 18 -28z"/>
<path d="M2676 4333 c-3 -3 -6 -28 -6 -55 0 -36 4 -48 15 -48 11 0 15 12 15
49 0 47 -9 68 -24 54z"/>
<path d="M2727 4333 c-4 -3 -7 -28 -7 -55 0 -36 4 -48 15 -48 9 0 15 10 16 23
1 16 2 18 6 5 2 -10 8 -18 13 -18 5 0 14 8 19 18 9 15 10 15 11 -5 0 -19 6
-23 30 -23 17 0 30 5 30 10 0 14 37 13 42 -1 2 -7 9 -10 15 -8 16 6 -18 104
-36 104 -8 0 -22 -22 -32 -50 l-17 -50 -3 49 c-5 59 -24 71 -43 26 l-13 -32
-11 31 c-11 30 -22 38 -35 24z"/>
<path d="M2952 4324 c-43 -30 -19 -98 33 -92 24 2 31 8 33 31 3 22 -1 27 -18
27 -17 0 -20 -4 -15 -21 5 -15 3 -20 -6 -17 -20 7 -24 47 -5 53 53 17 51 16
36 25 -21 13 -32 12 -58 -6z"/>
<path d="M3047 4334 c-4 -4 -7 -29 -7 -56 l0 -48 35 0 c19 0 35 5 35 10 0 6
-9 10 -20 10 -11 0 -20 5 -20 10 0 6 7 10 15 10 20 0 19 17 -2 29 -16 9 -15
10 5 11 31 0 23 24 -9 28 -14 2 -28 0 -32 -4z"/>
<path d="M3127 4333 c-4 -3 -7 -28 -7 -55 0 -36 4 -48 15 -48 10 0 15 10 15
28 l1 27 15 -27 c8 -16 21 -28 30 -28 12 0 14 11 12 50 -3 52 -19 68 -28 29
-5 -21 -6 -21 -17 5 -13 26 -24 32 -36 19z"/>
<path d="M4057 4333 c-4 -3 -7 -28 -7 -55 0 -36 4 -48 15 -48 8 0 15 7 15 15
0 8 11 17 24 21 43 10 44 57 3 68 -29 8 -42 7 -50 -1z m53 -33 c0 -5 -7 -10
-15 -10 -8 0 -15 5 -15 10 0 6 7 10 15 10 8 0 15 -4 15 -10z"/>
<path d="M4157 4333 c-4 -3 -7 -28 -7 -55 0 -36 4 -48 15 -48 9 0 15 9 16 23
l0 22 11 -22 c18 -37 33 -27 35 22 1 35 -3 47 -17 55 -22 12 -44 13 -53 3z
m43 -33 c0 -5 -4 -10 -10 -10 -5 0 -10 5 -10 10 0 6 5 10 10 10 6 0 10 -4 10
-10z"/>
<path d="M4257 4334 c-4 -4 -7 -29 -7 -56 l0 -48 35 0 c19 0 35 5 35 10 0 6
-9 10 -20 10 -11 0 -20 5 -20 10 0 6 7 10 15 10 21 0 19 28 -2 33 -13 3 -12 5
5 6 14 1 22 6 20 14 -5 13 -50 22 -61 11z"/>
<path d="M4355 4326 c-22 -16 -25 -73 -4 -87 18 -12 65 -7 61 6 -1 5 -12 10
-25 10 -27 0 -38 42 -13 50 53 17 51 16 36 25 -21 13 -33 12 -55 -4z"/>
<path d="M4436 4333 c-3 -3 -6 -28 -6 -55 0 -36 4 -48 15 -48 11 0 15 12 15
49 0 47 -9 68 -24 54z"/>
<path d="M4489 4319 c-22 -22 -20 -66 4 -81 18 -12 52 -9 65 4 17 17 15 64 -4
82 -21 22 -40 20 -65 -5z m51 -39 c0 -20 -5 -30 -15 -30 -18 0 -30 24 -21 45
10 28 36 17 36 -15z"/>
<path d="M5697 4322 c-20 -22 -22 -63 -5 -80 14 -14 98 -16 98 -2 0 14 37 13
42 -1 2 -7 9 -10 15 -8 16 6 -18 104 -36 104 -8 0 -21 -19 -29 -43 -12 -38
-17 -43 -41 -40 -20 2 -27 9 -29 31 -3 23 0 27 22 27 29 0 35 14 10 24 -24 9
-29 8 -47 -12z"/>
<path d="M5877 4333 c-4 -3 -7 -28 -7 -55 0 -36 4 -48 15 -48 9 0 15 9 16 23
l0 22 11 -22 c21 -43 38 -27 38 33 0 34 -4 53 -10 49 -5 -3 -10 -18 -10 -33
l0 -27 -20 33 c-21 34 -23 36 -33 25z"/>
<path d="M5970 4326 c0 -9 5 -16 10 -16 6 0 10 -18 10 -40 0 -29 4 -40 15 -40
11 0 15 11 15 40 0 30 4 40 16 40 32 0 6 25 -29 28 -28 2 -37 -1 -37 -12z"/>
<path d="M6066 4333 c-3 -3 -6 -28 -6 -55 0 -36 4 -48 15 -48 11 0 15 12 15
49 0 47 -9 68 -24 54z"/>
<path d="M6117 4333 c-4 -3 -7 -28 -7 -55 0 -47 1 -48 30 -48 58 0 76 80 23
101 -29 11 -37 11 -46 2z m48 -53 c0 -13 -6 -25 -12 -27 -9 -3 -13 6 -13 27 0
21 4 30 13 28 6 -3 12 -15 12 -28z"/>
<path d="M6232 4327 c-5 -6 -12 -22 -16 -34 -3 -13 -9 -32 -12 -43 -4 -14 -1
-20 10 -20 9 0 16 5 16 10 0 6 7 10 15 10 8 0 15 -4 15 -10 0 -5 7 -10 16 -10
12 0 15 6 10 25 -17 69 -36 94 -54 72z"/>
<path d="M6307 4333 c-4 -3 -7 -28 -7 -55 0 -46 1 -48 29 -48 36 0 61 23 61
55 0 36 -61 71 -83 48z m51 -50 c-4 -39 -28 -42 -28 -4 0 21 5 31 16 31 11 0
14 -8 12 -27z"/>
<path d="M7245 4330 c-3 -6 1 -13 9 -16 11 -4 16 -19 16 -45 0 -28 4 -39 15
-39 11 0 15 11 15 39 0 26 5 41 16 45 25 10 6 26 -31 26 -19 0 -37 -5 -40 -10z"/>
<path d="M7346 4324 c-19 -18 -21 -65 -4 -82 19 -19 66 -15 78 7 15 29 12 49
-10 71 -24 24 -43 25 -64 4z m49 -44 c0 -36 -29 -33 -33 3 -3 23 0 28 15 25
12 -2 18 -12 18 -28z"/>
<path d="M7437 4333 c-12 -11 -8 -23 8 -23 11 0 15 -11 15 -40 0 -29 4 -40 15
-40 11 0 15 11 15 39 0 26 5 41 16 45 8 3 12 10 9 16 -7 11 -68 14 -78 3z"/>
<path d="M7542 4327 c-5 -6 -12 -22 -16 -34 -3 -13 -9 -32 -12 -43 -4 -14 -1
-20 10 -20 9 0 16 5 16 10 0 6 7 10 15 10 8 0 15 -4 15 -10 0 -5 7 -10 16 -10
12 0 15 6 10 25 -17 69 -36 94 -54 72z"/>
<path d="M7616 4333 c-3 -3 -6 -28 -6 -55 l0 -48 35 0 c19 0 35 5 35 10 0 6
-9 10 -20 10 -17 0 -20 7 -20 39 0 38 -10 57 -24 44z"/>
<path d="M8742 4327 c-5 -6 -12 -22 -16 -34 -3 -13 -9 -32 -12 -43 -4 -14 -1
-20 10 -20 9 0 16 5 16 10 0 6 7 10 15 10 8 0 15 -4 15 -10 0 -5 7 -10 16 -10
12 0 15 6 10 25 -17 69 -36 94 -54 72z"/>
<path d="M8828 4329 c-22 -12 -24 -71 -4 -89 17 -13 63 -10 57 5 -2 6 -12 9
-21 7 -20 -3 -32 20 -24 43 4 8 14 15 24 15 25 0 34 16 14 24 -21 8 -26 7 -46
-5z"/>
<path d="M8915 4326 c-22 -16 -25 -73 -4 -87 18 -12 65 -7 61 6 -1 5 -12 10
-25 10 -27 0 -38 42 -13 50 53 17 51 16 36 25 -21 13 -33 12 -55 -4z"/>
<path d="M8996 4333 c-3 -3 -6 -28 -6 -55 0 -36 4 -48 15 -48 11 0 15 12 15
49 0 47 -9 68 -24 54z"/>
<path d="M9157 4333 c-4 -3 -7 -28 -7 -55 0 -36 4 -48 15 -48 9 0 15 9 16 23
l0 22 11 -22 c21 -43 38 -27 38 33 0 34 -4 53 -10 49 -5 -3 -10 -18 -10 -33
l0 -27 -20 33 c-21 34 -23 36 -33 25z"/>
<path d="M4690 3805 c0 -32 2 -56 5 -53 8 8 9 98 1 105 -3 4 -6 -20 -6 -52z"/>
<path d="M5250 3842 c0 -13 -7 -18 -21 -18 -12 1 -26 -7 -33 -16 -15 -25 4
-53 38 -54 25 -1 26 1 26 52 0 30 -2 54 -5 54 -3 0 -5 -8 -5 -18z m-2 -50 c2
-13 -3 -25 -13 -28 -23 -9 -38 10 -30 36 9 27 39 22 43 -8z"/>
<path d="M12566 3838 c-19 -18 -19 -19 8 -47 28 -30 22 -49 -12 -37 -14 5 -13
3 2 -9 14 -11 23 -12 33 -4 19 16 16 37 -7 51 -24 15 -26 35 -5 40 8 2 11 8 7
14 -5 8 -13 5 -26 -8z"/>
<path d="M4470 3798 c0 -28 2 -49 4 -47 8 9 13 99 5 99 -5 0 -9 -23 -9 -52z"/>
<path d="M4531 3815 l-2 -40 -15 28 c-9 16 -18 27 -20 24 -3 -2 5 -22 18 -43
l23 -39 3 28 c2 15 1 39 -1 55 -3 21 -4 18 -6 -13z"/>
<path d="M5448 3839 c-2 -6 -2 -28 0 -50 3 -28 9 -39 21 -38 10 0 11 2 4 6
-15 5 -18 60 -4 65 5 2 3 8 -4 15 -9 8 -15 9 -17 2z"/>
<path d="M10730 3801 c0 -28 5 -53 10 -56 6 -4 10 15 10 49 0 31 -4 56 -10 56
-5 0 -10 -22 -10 -49z"/>
<path d="M10443 3833 c13 -3 17 -15 17 -49 0 -24 5 -44 10 -44 6 0 10 20 10
44 0 26 5 46 13 49 6 3 -6 5 -28 5 -22 0 -32 -2 -22 -5z"/>
<path d="M10598 3828 c-2 -7 -2 -29 2 -48 3 -25 11 -36 25 -38 15 -2 16 -1 7
6 -8 5 -13 22 -12 38 3 42 1 54 -9 54 -5 0 -11 -6 -13 -12z"/>
<path d="M12637 3834 c-10 -10 -9 -66 2 -82 5 -8 17 -12 27 -10 15 3 19 12 19
48 0 38 -3 45 -20 48 -12 2 -24 0 -28 -4z m38 -45 c0 -24 -5 -34 -15 -34 -16
0 -25 37 -16 62 10 26 31 8 31 -28z"/>
<path d="M12762 3828 c-26 -26 -8 -88 25 -88 23 0 38 46 25 75 -13 27 -31 32
-50 13z m36 -35 c-4 -43 -23 -55 -32 -19 -8 31 2 56 21 56 10 0 13 -10 11 -37z"/>
<path d="M12839 3816 c-9 -20 -9 -32 0 -52 14 -33 42 -28 55 9 19 53 -33 92
-55 43z m41 -26 c0 -29 -4 -40 -15 -40 -11 0 -15 11 -15 40 0 29 4 40 15 40
11 0 15 -11 15 -40z"/>
<path d="M4580 3816 c-19 -24 -4 -68 22 -64 29 4 46 33 32 56 -15 23 -38 26
-54 8z m45 -16 c8 -24 -1 -40 -21 -40 -17 0 -28 24 -20 45 8 22 34 18 41 -5z"/>
<path d="M4727 3823 c6 -4 13 -24 16 -43 4 -34 4 -33 3 4 -1 26 -6 41 -16 43
-10 3 -11 2 -3 -4z"/>
<path d="M4786 3821 c-3 -5 3 -7 14 -4 29 8 25 -12 -6 -26 -29 -13 -28 -34 2
-39 15 -2 16 -1 5 6 -7 6 -10 15 -7 21 11 18 24 13 29 -11 3 -13 4 -5 4 17 -2
28 -7 41 -19 43 -9 2 -19 -1 -22 -7z"/>
<path d="M4850 3825 c0 -5 5 -17 10 -25 5 -8 10 -10 10 -5 0 6 -5 17 -10 25
-5 8 -10 11 -10 5z"/>
<path d="M4971 3771 c1 -31 3 -48 6 -39 2 9 14 18 26 20 18 2 22 10 22 38 0
31 -3 35 -27 36 -27 1 -28 0 -27 -55z m44 18 c0 -15 -7 -25 -17 -27 -13 -3
-18 3 -18 21 0 13 3 27 7 31 13 12 28 -1 28 -25z"/>
<path d="M5061 3785 c2 -33 3 -35 6 -10 2 17 11 35 20 42 13 10 13 12 -6 10
-18 -1 -21 -7 -20 -42z"/>
<path d="M5110 3810 c-15 -28 4 -62 33 -58 39 5 31 78 -9 78 -7 0 -18 -9 -24
-20z m45 -21 c0 -15 -7 -25 -17 -27 -13 -3 -18 3 -18 21 0 13 3 27 7 31 13 12
28 -1 28 -25z"/>
<path d="M5281 3808 c-2 -37 8 -58 27 -58 14 0 14 1 0 13 -9 6 -19 26 -21 42
-4 28 -4 29 -6 3z"/>
<path d="M5333 3790 c0 -25 2 -35 4 -22 2 12 2 32 0 45 -2 12 -4 2 -4 -23z"/>
<path d="M5380 3816 c-20 -25 -8 -61 20 -63 25 -3 25 -3 3 7 -13 5 -23 18 -23
30 0 12 9 24 23 30 15 6 17 9 6 9 -9 1 -22 -6 -29 -13z"/>
<path d="M5500 3816 c-19 -24 -4 -68 22 -64 29 4 46 33 32 56 -15 23 -38 26
-54 8z m45 -16 c8 -24 -1 -40 -21 -40 -17 0 -28 24 -20 45 8 22 34 18 41 -5z"/>
<path d="M5587 3823 c-13 -13 -7 -32 13 -38 27 -9 25 -25 -2 -26 -19 -1 -20
-2 -4 -6 10 -3 23 0 30 7 8 9 6 16 -11 27 -28 19 -29 30 -5 36 14 4 14 5 1 6
-9 0 -19 -2 -22 -6z"/>
<path d="M10520 3806 c-19 -24 -4 -68 22 -64 29 4 46 33 32 56 -15 23 -38 26
-54 8z m38 -29 c2 -19 -1 -27 -13 -27 -19 0 -30 24 -21 46 9 23 31 11 34 -19z"/>
<path d="M10656 3811 c-4 -5 3 -7 14 -4 26 7 26 -14 0 -22 -11 -3 -20 -15 -20
-26 0 -15 6 -19 30 -17 24 2 30 7 30 24 0 12 -3 29 -6 38 -7 17 -39 22 -48 7z
m34 -46 c0 -8 -7 -15 -15 -15 -16 0 -20 12 -8 23 11 12 23 8 23 -8z"/>
<path d="M4890 3781 c0 -7 -5 -9 -11 -5 -7 4 -9 0 -5 -14 5 -14 1 -24 -11 -31
-16 -9 -16 -10 -1 -11 15 0 44 58 33 68 -3 3 -5 0 -5 -7z"/>
<path d="M13061 347 c-8 -11 -5 -14 19 -14 24 0 27 3 19 14 -6 7 -15 13 -19
13 -4 0 -13 -6 -19 -13z"/>
</g>
</svg>
